{
DisplayStrings = (
"nrhmuijflt\012noaecspboqdg ijfltceuad\012kxzwvy\012IftnHLEFTZH\012EHNMAVvYyWwMHNKkXx\012HNMAVWYZK\012HoOQCcGZH\012DKRPBHE\012SsOJjtr JSC\01201742539C68\0120HOT17ZH4ANM\012SsCc27Z0\012Z5SsCcB308B\01253SsCc906bg",

glyphs = (
{
glyphname = A;
lastChange = "2014-08-25 10:38:23 +0100";
layers = (
{
anchors = (
{
name = ogonek;
position = "{641, 0}";
},
{
name = top;
position = "{335, 660}";
}
);
layerId = "90FEB760-6DE5-46E5-A8E9-582C63BAB3AD";
name = Regular;
paths = (
{
closed = 1;
nodes = (
"302 660 LINE",
"555 0 LINE",
"641 0 LINE",
"383 660 LINE"
);
},
{
closed = 1;
nodes = (
"288 660 LINE",
"29 0 LINE",
"115 0 LINE",
"368 660 LINE"
);
},
{
closed = 1;
nodes = (
"157 258 LINE",
"157 183 LINE",
"510 183 LINE",
"510 258 LINE"
);
}
);
width = 670;
}
);
unicode = 0041;
},
{
glyphname = AE;
lastChange = "2014-08-25 10:38:23 +0100";
layers = (
{
layerId = "90FEB760-6DE5-46E5-A8E9-582C63BAB3AD";
name = Regular;
paths = (
{
closed = 1;
nodes = (
"188 258 LINE",
"148 183 LINE",
"483 183 LINE",
"483 258 LINE"
);
},
{
closed = 1;
nodes = (
"443 660 LINE",
"443 0 LINE",
"523 0 LINE",
"523 660 LINE"
);
},
{
closed = 1;
nodes = (
"485 75 LINE",
"485 0 LINE",
"894 0 LINE",
"894 75 LINE"
);
},
{
closed = 1;
nodes = (
"485 372 LINE",
"485 297 LINE",
"794 297 LINE",
"794 372 LINE"
);
},
{
closed = 1;
nodes = (
"421 660 LINE",
"381 585 LINE",
"879 585 LINE",
"879 660 LINE"
);
},
{
closed = 1;
nodes = (
"380 660 LINE",
"-8 0 LINE",
"84 0 LINE",
"466 660 LINE"
);
}
);
width = 953;
}
);
rightMetricsKey = E;
unicode = 00C6;
},
{
glyphname = B;
lastChange = "2014-08-25 10:38:23 +0100";
layers = (
{
layerId = "90FEB760-6DE5-46E5-A8E9-582C63BAB3AD";
name = Regular;
paths = (
{
closed = 1;
nodes = (
"150 350 LINE",
"150 295 LINE",
"363 295 LINE SMOOTH",
"457 295 OFFCURVE",
"503 255 OFFCURVE",
"503 185 CURVE SMOOTH",
"503 115 OFFCURVE",
"457 75 OFFCURVE",
"363 75 CURVE SMOOTH",
"150 75 LINE",
"150 0 LINE",
"344 0 LINE SMOOTH",
"500 0 OFFCURVE",
"587 73 OFFCURVE",
"587 185 CURVE SMOOTH",
"587 285 OFFCURVE",
"498 350 OFFCURVE",
"362 350 CURVE SMOOTH"
);
},
{
closed = 1;
nodes = (
"110 660 LINE",
"110 0 LINE",
"190 0 LINE",
"190 660 LINE"
);
},
{
closed = 1;
nodes = (
"150 660 LINE",
"150 585 LINE",
"346 585 LINE SMOOTH",
"440 585 OFFCURVE",
"486 550 OFFCURVE",
"486 478 CURVE SMOOTH",
"486 405 OFFCURVE",
"440 370 OFFCURVE",
"346 370 CURVE SMOOTH",
"150 370 LINE",
"150 315 LINE",
"345 315 LINE SMOOTH",
"481 315 OFFCURVE",
"570 377 OFFCURVE",
"570 478 CURVE SMOOTH",
"570 590 OFFCURVE",
"501 660 OFFCURVE",
"345 660 CURVE SMOOTH"
);
}
);
width = 661;
}
);
leftMetricsKey = I;
unicode = 0042;
},
{
glyphname = C;
lastChange = "2014-08-25 10:38:23 +0100";
layers = (
{
anchors = (
{
name = bottom;
position = "{385, 0}";
},
{
name = top;
position = "{384, 660}";
}
);
layerId = "90FEB760-6DE5-46E5-A8E9-582C63BAB3AD";
name = Regular;
paths = (
{
closed = 1;
nodes = (
"200 670 OFFCURVE",
"80 539 OFFCURVE",
"80 330 CURVE SMOOTH",
"80 121 OFFCURVE",
"198 -10 OFFCURVE",
"386 -10 CURVE SMOOTH",
"510 -10 OFFCURVE",
"610 56 OFFCURVE",
"652 169 CURVE",
"572 199 LINE",
"543 110 OFFCURVE",
"474 65 OFFCURVE",
"386 65 CURVE SMOOTH",
"249 65 OFFCURVE",
"164 164 OFFCURVE",
"164 330 CURVE SMOOTH",
"164 497 OFFCURVE",
"255 595 OFFCURVE",
"390 595 CURVE SMOOTH",
"478 595 OFFCURVE",
"532 555 OFFCURVE",
"561 479 CURVE",
"640 516 LINE",
"598 616 OFFCURVE",
"512 670 OFFCURVE",
"384 670 CURVE SMOOTH"
);
}
);
width = 692;
}
);
leftMetricsKey = O;
unicode = 0043;
},
{
glyphname = D;
lastChange = "2014-08-25 10:38:23 +0100";
layers = (
{
anchors = (
{
name = center;
position = "{368, 330}";
},
{
name = top;
position = "{373, 660}";
}
);
layerId = "90FEB760-6DE5-46E5-A8E9-582C63BAB3AD";
name = Regular;
paths = (
{
closed = 1;
nodes = (
"150 660 LINE",
"150 585 LINE",
"331 585 LINE SMOOTH",
"482 585 OFFCURVE",
"571 490 OFFCURVE",
"571 330 CURVE SMOOTH",
"571 170 OFFCURVE",
"482 75 OFFCURVE",
"331 75 CURVE SMOOTH",
"150 75 LINE",
"150 0 LINE",
"323 0 LINE SMOOTH",
"530 0 OFFCURVE",
"655 118 OFFCURVE",
"655 330 CURVE SMOOTH",
"655 542 OFFCURVE",
"530 660 OFFCURVE",
"323 660 CURVE SMOOTH"
);
},
{
closed = 1;
nodes = (
"110 660 LINE",
"110 0 LINE",
"190 0 LINE",
"190 660 LINE"
);
}
);
width = 735;
}
);
leftMetricsKey = I;
rightMetricsKey = O;
unicode = 0044;
},
{
glyphname = E;
lastChange = "2014-08-25 10:38:23 +0100";
layers = (
{
anchors = (
{
name = bottom;
position = "{341, 0}";
},
{
name = ogonek;
position = "{588, 0}";
},
{
name = top;
position = "{341, 660}";
}
);
layerId = "90FEB760-6DE5-46E5-A8E9-582C63BAB3AD";
name = Regular;
paths = (
{
closed = 1;
nodes = (
"110 660 LINE",
"110 0 LINE",
"190 0 LINE",
"190 660 LINE"
);
},
{
closed = 1;
nodes = (
"152 75 LINE",
"152 0 LINE",
"588 0 LINE",
"588 75 LINE"
);
},
{
closed = 1;
nodes = (
"152 372 LINE",
"152 297 LINE",
"488 297 LINE",
"488 372 LINE"
);
},
{
closed = 1;
nodes = (
"152 660 LINE",
"152 585 LINE",
"573 585 LINE",
"573 660 LINE"
);
}
);
width = 647;
}
);
leftMetricsKey = I;
unicode = 0045;
},
{
glyphname = F;
lastChange = "2014-08-25 10:38:23 +0100";
layers = (
{
layerId = "90FEB760-6DE5-46E5-A8E9-582C63BAB3AD";
name = Regular;
paths = (
{
closed = 1;
nodes = (
"110 660 LINE",
"110 0 LINE",
"190 0 LINE",
"190 660 LINE"
);
},
{
closed = 1;
nodes = (
"152 372 LINE",
"152 297 LINE",
"488 297 LINE",
"488 372 LINE"
);
},
{
closed = 1;
nodes = (
"152 660 LINE",
"152 585 LINE",
"572 585 LINE",
"572 660 LINE"
);
}
);
width = 617;
}
);
leftMetricsKey = E;
unicode = 0046;
},
{
glyphname = G;
lastChange = "2014-08-25 10:38:23 +0100";
layers = (
{
anchors = (
{
name = bottom;
position = "{417, 0}";
},
{
name = top;
position = "{385, 660}";
}
);
layerId = "90FEB760-6DE5-46E5-A8E9-582C63BAB3AD";
name = Regular;
paths = (
{
closed = 1;
nodes = (
"203 670 OFFCURVE",
"80 539 OFFCURVE",
"80 330 CURVE SMOOTH",
"80 121 OFFCURVE",
"198 -10 OFFCURVE",
"386 -10 CURVE SMOOTH",
"547 -10 OFFCURVE",
"630 85 OFFCURVE",
"630 224 CURVE",
"586 235 LINE",
"586 121 OFFCURVE",
"499 65 OFFCURVE",
"389 65 CURVE SMOOTH",
"242 65 OFFCURVE",
"164 164 OFFCURVE",
"164 330 CURVE SMOOTH",
"164 496 OFFCURVE",
"254 595 OFFCURVE",
"388 595 CURVE SMOOTH",
"480 595 OFFCURVE",
"550 555 OFFCURVE",
"579 479 CURVE",
"652 519 LINE",
"601 621 OFFCURVE",
"519 670 OFFCURVE",
"388 670 CURVE SMOOTH"
);
},
{
closed = 1;
nodes = (
"586 333 LINE",
"586 143 LINE",
"604 0 LINE",
"657 0 LINE",
"657 143 LINE",
"657 333 LINE"
);
},
{
closed = 1;
nodes = (
"374 333 LINE",
"374 258 LINE",
"657 258 LINE",
"657 333 LINE"
);
}
);
width = 721;
}
);
leftMetricsKey = O;
unicode = 0047;
},
{
glyphname = H;
lastChange = "2014-08-25 10:38:23 +0100";
layers = (
{
layerId = "90FEB760-6DE5-46E5-A8E9-582C63BAB3AD";
name = Regular;
paths = (
{
closed = 1;
nodes = (
"548 660 LINE",
"548 0 LINE",
"628 0 LINE",
"628 660 LINE"
);
},
{
closed = 1;
nodes = (
"110 660 LINE",
"110 0 LINE",
"190 0 LINE",
"190 660 LINE"
);
},
{
closed = 1;
nodes = (
"152 372 LINE",
"152 297 LINE",
"585 297 LINE",
"585 372 LINE"
);
}
);
width = 738;
}
);
leftMetricsKey = I;
rightMetricsKey = I;
unicode = 0048;
},
{
glyphname = I;
lastChange = "2014-08-25 10:38:23 +0100";
layers = (
{
anchors = (
{
name = ogonek;
position = "{190, 0}";
},
{
name = top;
position = "{150, 660}";
}
);
layerId = "90FEB760-6DE5-46E5-A8E9-582C63BAB3AD";
name = Regular;
paths = (
{
closed = 1;
nodes = (
"110 660 LINE",
"110 0 LINE",
"190 0 LINE",
"190 660 LINE"
);
}
);
width = 300;
}
);
unicode = 0049;
},
{
glyphname = J;
lastChange = "2014-08-25 10:38:23 +0100";
layers = (
{
layerId = "90FEB760-6DE5-46E5-A8E9-582C63BAB3AD";
name = Regular;
paths = (
{
closed = 1;
nodes = (
"387 660 LINE",
"387 246 LINE SMOOTH",
"387 128 OFFCURVE",
"353 65 OFFCURVE",
"240 65 CURVE SMOOTH",
"140 65 OFFCURVE",
"108 120 OFFCURVE",
"123 233 CURVE",
"49 218 LINE",
"23 79 OFFCURVE",
"95 -10 OFFCURVE",
"243 -10 CURVE SMOOTH",
"383 -10 OFFCURVE",
"466 78 OFFCURVE",
"466 226 CURVE SMOOTH",
"467 660 LINE"
);
}
);
width = 569;
}
);
rightMetricsKey = U;
unicode = 004A;
},
{
glyphname = K;
lastChange = "2014-08-25 10:38:23 +0100";
layers = (
{
anchors = (
{
name = bottom;
position = "{375, 0}";
},
{
name = top;
position = "{355, 660}";
}
);
layerId = "90FEB760-6DE5-46E5-A8E9-582C63BAB3AD";
name = Regular;
paths = (
{
closed = 1;
nodes = (
"522 660 LINE",
"150 279 LINE",
"150 171 LINE",
"627 660 LINE"
);
},
{
closed = 1;
nodes = (
"110 660 LINE",
"110 0 LINE",
"190 0 LINE",
"190 660 LINE"
);
},
{
closed = 1;
nodes = (
"281 371 LINE",
"534 0 LINE",
"630 0 LINE",
"347 416 LINE"
);
}
);
width = 669;
}
);
leftMetricsKey = I;
unicode = 004B;
},
{
glyphname = L;
lastChange = "2014-08-25 10:38:23 +0100";
layers = (
{
anchors = (
{
name = bottom;
position = "{364, 0}";
},
{
name = top;
position = "{150, 660}";
},
{
name = topright;
position = "{312, 730}";
}
);
layerId = "90FEB760-6DE5-46E5-A8E9-582C63BAB3AD";
name = Regular;
paths = (
{
closed = 1;
nodes = (
"110 660 LINE",
"110 0 LINE",
"190 0 LINE",
"190 660 LINE"
);
},
{
closed = 1;
nodes = (
"152 75 LINE",
"152 0 LINE",
"568 0 LINE",
"568 75 LINE"
);
}
);
width = 597;
}
);
leftMetricsKey = I;
rightMetricsKey = E;
unicode = 004C;
},
{
glyphname = Lslash;
lastChange = "2014-08-25 10:38:23 +0100";
layers = (
{
components = (
{
name = L;
transform = "{1, 0, 0, 1, 0, 0}";
}
);
layerId = "90FEB760-6DE5-46E5-A8E9-582C63BAB3AD";
name = Regular;
paths = (
{
closed = 1;
nodes = (
"3 289 LINE",
"3 206 LINE",
"365 448 LINE",
"365 531 LINE"
);
}
);
width = 597;
}
);
unicode = 0141;
},
{
glyphname = M;
lastChange = "2014-08-25 10:38:23 +0100";
layers = (
{
layerId = "90FEB760-6DE5-46E5-A8E9-582C63BAB3AD";
name = Regular;
paths = (
{
closed = 1;
nodes = (
"629 660 LINE",
"388 0 LINE",
"470 0 LINE",
"646 485 LINE",
"703 660 LINE"
);
},
{
closed = 1;
nodes = (
"110 660 LINE",
"110 415 LINE",
"110 0 LINE",
"190 0 LINE",
"190 415 LINE",
"175 660 LINE"
);
},
{
closed = 1;
nodes = (
"156 660 LINE",
"212 486 LINE",
"388 0 LINE",
"470 0 LINE",
"230 660 LINE"
);
},
{
closed = 1;
nodes = (
"683 660 LINE",
"668 415 LINE",
"668 0 LINE",
"748 0 LINE",
"748 415 LINE",
"748 660 LINE"
);
}
);
width = 858;
}
);
leftMetricsKey = i;
rightMetricsKey = l;
unicode = 004D;
},
{
glyphname = N;
lastChange = "2014-08-25 10:38:23 +0100";
layers = (
{
anchors = (
{
name = bottom;
position = "{399, 0}";
},
{
name = top;
position = "{373, 660}";
}
);
layerId = "90FEB760-6DE5-46E5-A8E9-582C63BAB3AD";
name = Regular;
paths = (
{
closed = 1;
nodes = (
"135 660 LINE",
"253 442 LINE",
"533 0 LINE",
"603 0 LINE",
"484 220 LINE",
"205 660 LINE"
);
},
{
closed = 1;
nodes = (
"110 660 LINE",
"110 466 LINE",
"110 0 LINE",
"190 0 LINE",
"190 466 LINE",
"180 660 LINE"
);
},
{
closed = 1;
nodes = (
"548 660 LINE",
"548 194 LINE",
"558 0 LINE",
"628 0 LINE",
"628 194 LINE",
"628 660 LINE"
);
}
);
width = 738;
}
);
leftMetricsKey = I;
rightMetricsKey = I;
unicode = 004E;
},
{
glyphname = O;
lastChange = "2014-08-25 10:38:23 +0100";
layers = (
{
anchors = (
{
name = top;
position = "{386, 660}";
}
);
layerId = "90FEB760-6DE5-46E5-A8E9-582C63BAB3AD";
name = Regular;
paths = (
{
closed = 1;
nodes = (
"198 670 OFFCURVE",
"80 539 OFFCURVE",
"80 330 CURVE SMOOTH",
"80 121 OFFCURVE",
"198 -10 OFFCURVE",
"386 -10 CURVE SMOOTH",
"574 -10 OFFCURVE",
"692 121 OFFCURVE",
"692 330 CURVE SMOOTH",
"692 539 OFFCURVE",
"574 670 OFFCURVE",
"386 670 CURVE SMOOTH"
);
},
{
closed = 1;
nodes = (
"523 595 OFFCURVE",
"608 496 OFFCURVE",
"608 330 CURVE SMOOTH",
"608 164 OFFCURVE",
"523 65 OFFCURVE",
"386 65 CURVE SMOOTH",
"249 65 OFFCURVE",
"164 164 OFFCURVE",
"164 330 CURVE SMOOTH",
"164 496 OFFCURVE",
"249 595 OFFCURVE",
"386 595 CURVE SMOOTH"
);
}
);
width = 772;
}
);
unicode = 004F;
},
{
color = 0;
glyphname = Oslash;
lastChange = "2014-08-25 10:38:23 +0100";
layers = (
{
components = (
{
name = O;
transform = "{1, 0, 0, 1, 0, 0}";
}
);
layerId = "90FEB760-6DE5-46E5-A8E9-582C63BAB3AD";
name = Regular;
paths = (
{
closed = 1;
nodes = (
"601 700 LINE",
"99 -41 LINE",
"170 -41 LINE",
"672 700 LINE"
);
}
);
width = 772;
}
);
leftMetricsKey = O;
rightMetricsKey = O;
unicode = 00D8;
},
{
color = 0;
glyphname = OE;
lastChange = "2014-08-25 10:38:23 +0100";
layers = (
{
layerId = "90FEB760-6DE5-46E5-A8E9-582C63BAB3AD";
name = Regular;
paths = (
{
closed = 1;
nodes = (
"193 670 OFFCURVE",
"80 539 OFFCURVE",
"80 330 CURVE SMOOTH",
"80 121 OFFCURVE",
"193 -10 OFFCURVE",
"381 -10 CURVE SMOOTH",
"473 -10 OFFCURVE",
"530 14 OFFCURVE",
"569 66 CURVE",
"569 177 LINE",
"533 107 OFFCURVE",
"478 65 OFFCURVE",
"381 65 CURVE SMOOTH",
"244 65 OFFCURVE",
"164 164 OFFCURVE",
"164 330 CURVE SMOOTH",
"164 496 OFFCURVE",
"244 595 OFFCURVE",
"381 595 CURVE SMOOTH",
"478 595 OFFCURVE",
"533 553 OFFCURVE",
"569 483 CURVE",
"569 594 LINE",
"530 646 OFFCURVE",
"473 670 OFFCURVE",
"381 670 CURVE SMOOTH"
);
},
{
closed = 1;
nodes = (
"558 660 LINE",
"558 0 LINE",
"638 0 LINE",
"638 660 LINE"
);
},
{
closed = 1;
nodes = (
"600 75 LINE",
"600 0 LINE",
"1000 0 LINE",
"1000 75 LINE"
);
},
{
closed = 1;
nodes = (
"600 372 LINE",
"600 297 LINE",
"900 297 LINE",
"900 372 LINE"
);
},
{
closed = 1;
nodes = (
"600 660 LINE",
"600 585 LINE",
"985 585 LINE",
"985 660 LINE"
);
}
);
width = 1059;
}
);
leftMetricsKey = O;
rightMetricsKey = E;
unicode = 0152;
},
{
glyphname = P;
lastChange = "2014-08-25 10:38:23 +0100";
layers = (
{
layerId = "90FEB760-6DE5-46E5-A8E9-582C63BAB3AD";
name = Regular;
paths = (
{
closed = 1;
nodes = (
"150 660 LINE",
"150 585 LINE",
"331 585 LINE SMOOTH",
"435 585 OFFCURVE",
"481 541 OFFCURVE",
"481 459 CURVE SMOOTH",
"481 377 OFFCURVE",
"435 333 OFFCURVE",
"331 333 CURVE SMOOTH",
"150 333 LINE",
"150 258 LINE",
"343 258 LINE SMOOTH",
"476 258 OFFCURVE",
"565 335 OFFCURVE",
"565 459 CURVE SMOOTH",
"565 583 OFFCURVE",
"476 660 OFFCURVE",
"343 660 CURVE SMOOTH"
);
},
{
closed = 1;
nodes = (
"110 660 LINE",
"110 0 LINE",
"190 0 LINE",
"190 660 LINE"
);
}
);
width = 594;
}
);
leftMetricsKey = I;
unicode = 0050;
},
{
color = 2;
glyphname = Thorn;
lastChange = "2014-08-25 10:38:23 +0100";
layers = (
{
layerId = "90FEB760-6DE5-46E5-A8E9-582C63BAB3AD";
name = Regular;
paths = (
{
closed = 1;
nodes = (
"150 542 LINE",
"150 467 LINE",
"337 467 LINE SMOOTH",
"441 467 OFFCURVE",
"491 425 OFFCURVE",
"491 337 CURVE SMOOTH",
"491 249 OFFCURVE",
"441 207 OFFCURVE",
"337 207 CURVE SMOOTH",
"150 207 LINE",
"150 132 LINE",
"329 132 LINE SMOOTH",
"493 132 OFFCURVE",
"575 206 OFFCURVE",
"575 337 CURVE SMOOTH",
"575 469 OFFCURVE",
"493 542 OFFCURVE",
"329 542 CURVE SMOOTH"
);
},
{
closed = 1;
nodes = (
"110 660 LINE",
"110 0 LINE",
"190 0 LINE",
"190 660 LINE"
);
}
);
width = 655;
}
);
leftMetricsKey = H;
rightMetricsKey = O;
unicode = 00DE;
},
{
glyphname = Q;
lastChange = "2014-08-25 10:38:23 +0100";
layers = (
{
components = (
{
name = O;
transform = "{1, 0, 0, 1, 0, 0}";
}
);
layerId = "90FEB760-6DE5-46E5-A8E9-582C63BAB3AD";
name = Regular;
paths = (
{
closed = 1;
nodes = (
"336 20 LINE",
"334 -145 OFFCURVE",
"435 -193 OFFCURVE",
"531 -195 CURVE SMOOTH",
"598 -196 OFFCURVE",
"645 -179 OFFCURVE",
"680 -156 CURVE",
"655 -88 LINE",
"630 -111 OFFCURVE",
"585 -124 OFFCURVE",
"536 -124 CURVE SMOOTH",
"463 -124 OFFCURVE",
"400 -92 OFFCURVE",
"407 38 CURVE"
);
}
);
width = 772;
}
);
leftMetricsKey = O;
rightMetricsKey = o;
unicode = 0051;
},
{
glyphname = R;
lastChange = "2014-08-25 10:38:23 +0100";
layers = (
{
anchors = (
{
name = bottom;
position = "{367, 0}";
},
{
name = top;
position = "{334, 660}";
}
);
layerId = "90FEB760-6DE5-46E5-A8E9-582C63BAB3AD";
name = Regular;
paths = (
{
closed = 1;
nodes = (
"150 660 LINE",
"150 585 LINE",
"359 585 LINE SMOOTH",
"453 585 OFFCURVE",
"499 546 OFFCURVE",
"499 467 CURVE SMOOTH",
"499 388 OFFCURVE",
"453 349 OFFCURVE",
"359 349 CURVE SMOOTH",
"150 349 LINE",
"150 274 LINE",
"360 274 LINE SMOOTH",
"494 274 OFFCURVE",
"583 348 OFFCURVE",
"583 467 CURVE SMOOTH",
"583 586 OFFCURVE",
"494 660 OFFCURVE",
"360 660 CURVE SMOOTH"
);
},
{
closed = 1;
nodes = (
"110 660 LINE",
"110 0 LINE",
"190 0 LINE",
"190 660 LINE"
);
},
{
closed = 1;
nodes = (
"338 289 LINE",
"528 0 LINE",
"623 0 LINE",
"405 333 LINE"
);
}
);
width = 659;
}
);
leftMetricsKey = I;
unicode = 0052;
},
{
glyphname = S;
lastChange = "2014-08-25 10:38:23 +0100";
layers = (
{
anchors = (
{
name = bottom;
position = "{358, 0}";
},
{
name = top;
position = "{325, 660}";
}
);
layerId = "90FEB760-6DE5-46E5-A8E9-582C63BAB3AD";
name = Regular;
paths = (
{
closed = 1;
nodes = (
"166 670 OFFCURVE",
"73 580 OFFCURVE",
"73 474 CURVE SMOOTH",
"73 370 OFFCURVE",
"142 321 OFFCURVE",
"295 293 CURVE SMOOTH",
"468 260 OFFCURVE",
"497 230 OFFCURVE",
"497 171 CURVE SMOOTH",
"497 103 OFFCURVE",
"429 65 OFFCURVE",
"327 65 CURVE SMOOTH",
"232 65 OFFCURVE",
"141 123 OFFCURVE",
"128 203 CURVE",
"47 161 LINE",
"86 60 OFFCURVE",
"185 -10 OFFCURVE",
"325 -10 CURVE SMOOTH",
"479 -10 OFFCURVE",
"580 65 OFFCURVE",
"580 178 CURVE SMOOTH",
"580 282 OFFCURVE",
"516 333 OFFCURVE",
"351 363 CURVE SMOOTH",
"194 392 OFFCURVE",
"157 423 OFFCURVE",
"157 483 CURVE SMOOTH",
"157 546 OFFCURVE",
"215 595 OFFCURVE",
"320 595 CURVE SMOOTH",
"417 595 OFFCURVE",
"465 561 OFFCURVE",
"505 474 CURVE",
"574 530 LINE",
"523 622 OFFCURVE",
"440 670 OFFCURVE",
"319 670 CURVE SMOOTH"
);
}
);
width = 635;
}
);
unicode = 0053;
},
{
glyphname = T;
lastChange = "2014-08-25 10:38:23 +0100";
layers = (
{
anchors = (
{
name = bottom;
position = "{273, 0}";
},
{
name = center;
position = "{328, 330}";
},
{
name = top;
position = "{328, 660}";
}
);
layerId = "90FEB760-6DE5-46E5-A8E9-582C63BAB3AD";
name = Regular;
paths = (
{
closed = 1;
nodes = (
"288 660 LINE",
"288 0 LINE",
"368 0 LINE",
"368 660 LINE"
);
},
{
closed = 1;
nodes = (
"57 660 LINE",
"57 585 LINE",
"598 585 LINE",
"598 660 LINE"
);
}
);
width = 655;
}
);
unicode = 0054;
},
{
color = 0;
glyphname = Tcedilla;
lastChange = "2014-08-25 10:38:23 +0100";
layers = (
{
components = (
{
name = T;
transform = "{1, 0, 0, 1, 0, 0}";
}
);
layerId = "90FEB760-6DE5-46E5-A8E9-582C63BAB3AD";
name = Regular;
paths = (
{
closed = 1;
nodes = (
"351 -39 OFFCURVE",
"368 -59 OFFCURVE",
"368 -97 CURVE SMOOTH",
"368 -132 OFFCURVE",
"343 -152 OFFCURVE",
"311 -152 CURVE SMOOTH",
"283 -152 OFFCURVE",
"258 -140 OFFCURVE",
"242 -123 CURVE",
"212 -180 LINE",
"240 -205 OFFCURVE",
"275 -215 OFFCURVE",
"322 -215 CURVE SMOOTH",
"394 -215 OFFCURVE",
"439 -163 OFFCURVE",
"439 -108 CURVE SMOOTH",
"439 -68 OFFCURVE",
"418 -21 OFFCURVE",
"361 4 CURVE",
"288 0 LINE"
);
}
);
width = 655;
}
);
unicode = 0162;
},
{
glyphname = U;
lastChange = "2014-08-25 10:38:23 +0100";
layers = (
{
anchors = (
{
name = ogonek;
position = "{441, 0}";
},
{
name = top;
position = "{361, 660}";
}
);
layerId = "90FEB760-6DE5-46E5-A8E9-582C63BAB3AD";
name = Regular;
paths = (
{
closed = 1;
nodes = (
"540 660 LINE",
"540 266 LINE SMOOTH",
"540 128 OFFCURVE",
"484 65 OFFCURVE",
"361 65 CURVE SMOOTH",
"238 65 OFFCURVE",
"182 128 OFFCURVE",
"182 266 CURVE SMOOTH",
"182 660 LINE",
"102 660 LINE",
"102 246 LINE SMOOTH",
"102 76 OFFCURVE",
"195 -10 OFFCURVE",
"361 -10 CURVE SMOOTH",
"528 -10 OFFCURVE",
"620 76 OFFCURVE",
"620 246 CURVE SMOOTH",
"620 660 LINE"
);
}
);
width = 722;
}
);
unicode = 0055;
},
{
color = 0;
glyphname = Uogonek;
lastChange = "2014-08-25 10:38:23 +0100";
layers = (
{
components = (
{
name = U;
transform = "{1, 0, 0, 1, 0, 0}";
}
);
layerId = "90FEB760-6DE5-46E5-A8E9-582C63BAB3AD";
name = Regular;
paths = (
{
closed = 1;
nodes = (
"473 58 LINE",
"352 2 OFFCURVE",
"292 -48 OFFCURVE",
"292 -122 CURVE SMOOTH",
"292 -190 OFFCURVE",
"339 -230 OFFCURVE",
"420 -230 CURVE SMOOTH",
"465 -230 OFFCURVE",
"506 -215 OFFCURVE",
"526 -200 CURVE",
"506 -144 LINE",
"487 -156 OFFCURVE",
"465 -167 OFFCURVE",
"429 -167 CURVE SMOOTH",
"393 -167 OFFCURVE",
"363 -144 OFFCURVE",
"363 -111 CURVE SMOOTH",
"363 -76 OFFCURVE",
"404 -36 OFFCURVE",
"519 29 CURVE"
);
}
);
width = 722;
}
);
unicode = 0172;
},
{
glyphname = V;
lastChange = "2014-08-25 10:38:23 +0100";
layers = (
{
layerId = "90FEB760-6DE5-46E5-A8E9-582C63BAB3AD";
name = Regular;
paths = (
{
closed = 1;
nodes = (
"540 660 LINE",
"297 0 LINE",
"378 0 LINE",
"626 660 LINE"
);
},
{
closed = 1;
nodes = (
"34 660 LINE",
"283 0 LINE",
"363 0 LINE",
"120 660 LINE"
);
}
);
width = 660;
}
);
unicode = 0056;
},
{
glyphname = W;
lastChange = "2014-08-25 10:38:23 +0100";
layers = (
{
layerId = "90FEB760-6DE5-46E5-A8E9-582C63BAB3AD";
name = Regular;
paths = (
{
closed = 1;
nodes = (
"45 660 LINE",
"240 0 LINE",
"309 0 LINE",
"256 208 LINE",
"131 660 LINE"
);
},
{
closed = 1;
nodes = (
"446 660 LINE",
"313 167 LINE",
"273 0 LINE",
"339 0 LINE",
"518 660 LINE"
);
},
{
closed = 1;
nodes = (
"462 660 LINE",
"642 0 LINE",
"711 0 LINE",
"669 176 LINE",
"538 660 LINE"
);
},
{
closed = 1;
nodes = (
"854 660 LINE",
"730 213 LINE",
"676 0 LINE",
"741 0 LINE",
"935 660 LINE"
);
}
);
width = 980;
}
);
unicode = 0057;
},
{
glyphname = X;
lastChange = "2014-08-25 10:38:23 +0100";
layers = (
{
layerId = "90FEB760-6DE5-46E5-A8E9-582C63BAB3AD";
name = Regular;
paths = (
{
closed = 1;
nodes = (
"487 660 LINE",
"300 375 LINE",
"293 375 LINE",
"35 0 LINE",
"128 0 LINE",
"330 308 LINE",
"337 308 LINE",
"572 660 LINE"
);
},
{
closed = 1;
nodes = (
"55 660 LINE",
"486 0 LINE",
"579 0 LINE",
"150 660 LINE"
);
}
);
width = 614;
}
);
unicode = 0058;
},
{
glyphname = Y;
lastChange = "2014-08-25 10:38:23 +0100";
layers = (
{
anchors = (
{
name = top;
position = "{297, 660}";
}
);
layerId = "90FEB760-6DE5-46E5-A8E9-582C63BAB3AD";
name = Regular;
paths = (
{
closed = 1;
nodes = (
"478 660 LINE",
"271 294 LINE",
"337 258 LINE",
"573 660 LINE"
);
},
{
closed = 1;
nodes = (
"271 294 LINE",
"257 258 LINE",
"257 0 LINE",
"337 0 LINE",
"337 258 LINE",
"323 294 LINE"
);
},
{
closed = 1;
nodes = (
"21 660 LINE",
"257 258 LINE",
"323 294 LINE",
"116 660 LINE"
);
}
);
width = 594;
}
);
unicode = 0059;
},
{
glyphname = Z;
lastChange = "2014-08-25 10:38:23 +0100";
layers = (
{
anchors = (
{
name = top;
position = "{313, 660}";
}
);
layerId = "90FEB760-6DE5-46E5-A8E9-582C63BAB3AD";
name = Regular;
paths = (
{
closed = 1;
nodes = (
"63 75 LINE",
"123 29 LINE",
"569 585 LINE",
"510 632 LINE"
);
},
{
closed = 1;
nodes = (
"63 75 LINE",
"63 0 LINE",
"582 0 LINE",
"582 75 LINE"
);
},
{
closed = 1;
nodes = (
"73 660 LINE",
"73 585 LINE",
"569 585 LINE",
"569 660 LINE"
);
}
);
width = 625;
}
);
unicode = 005A;
},
{
glyphname = a;
lastChange = "2014-08-25 10:38:23 +0100";
layers = (
{
anchors = (
{
name = ogonek;
position = "{541, 0}";
},
{
name = top;
position = "{279, 500}";
}
);
layerId = "90FEB760-6DE5-46E5-A8E9-582C63BAB3AD";
name = Regular;
paths = (
{
closed = 1;
nodes = (
"174 510 OFFCURVE",
"95 462 OFFCURVE",
"69 388 CURVE",
"128 345 LINE",
"155 408 OFFCURVE",
"205 440 OFFCURVE",
"271 440 CURVE SMOOTH",
"346 440 OFFCURVE",
"388 396 OFFCURVE",
"388 330 CURVE SMOOTH",
"388 102 LINE SMOOTH",
"388 16 OFFCURVE",
"422 -10 OFFCURVE",
"481 -10 CURVE SMOOTH",
"506 -10 OFFCURVE",
"527 -5 OFFCURVE",
"541 0 CURVE",
"546 63 LINE",
"534 60 OFFCURVE",
"519 58 OFFCURVE",
"506 58 CURVE SMOOTH",
"478 58 OFFCURVE",
"468 70 OFFCURVE",
"468 94 CURVE SMOOTH",
"468 340 LINE SMOOTH",
"468 456 OFFCURVE",
"385 510 OFFCURVE",
"271 510 CURVE SMOOTH"
);
},
{
closed = 1;
nodes = (
"255 280 LINE SMOOTH",
"126 258 OFFCURVE",
"60 199 OFFCURVE",
"60 124 CURVE SMOOTH",
"60 34 OFFCURVE",
"136 -10 OFFCURVE",
"230 -10 CURVE SMOOTH",
"318 -10 OFFCURVE",
"409 42 OFFCURVE",
"409 125 CURVE",
"388 168 LINE",
"388 102 OFFCURVE",
"314 60 OFFCURVE",
"234 60 CURVE SMOOTH",
"177 60 OFFCURVE",
"143 82 OFFCURVE",
"143 124 CURVE SMOOTH",
"143 171 OFFCURVE",
"188 198 OFFCURVE",
"276 216 CURVE SMOOTH",
"434 245 LINE",
"423 308 LINE"
);
}
);
width = 563;
}
);
unicode = 0061;
},
{
glyphname = ae;
lastChange = "2014-08-25 10:38:23 +0100";
layers = (
{
anchors = (
{
name = ogonek;
position = "{1094, 10}";
}
);
layerId = "90FEB760-6DE5-46E5-A8E9-582C63BAB3AD";
name = Regular;
paths = (
{
closed = 1;
nodes = (
"467 510 OFFCURVE",
"399 374 OFFCURVE",
"399 247 CURVE SMOOTH",
"399 96 OFFCURVE",
"471 -10 OFFCURVE",
"614 -10 CURVE SMOOTH",
"722 -10 OFFCURVE",
"779 31 OFFCURVE",
"815 99 CURVE",
"748 134 LINE",
"731 86 OFFCURVE",
"694 60 OFFCURVE",
"619 60 CURVE SMOOTH",
"520 60 OFFCURVE",
"463 131 OFFCURVE",
"463 250 CURVE SMOOTH",
"463 369 OFFCURVE",
"523 440 OFFCURVE",
"612 440 CURVE SMOOTH",
"702 440 OFFCURVE",
"754 368 OFFCURVE",
"751 255 CURVE SMOOTH",
"750 220 LINE",
"827 220 LINE",
"827 255 LINE SMOOTH",
"827 412 OFFCURVE",
"754 510 OFFCURVE",
"613 510 CURVE SMOOTH"
);
},
{
closed = 1;
nodes = (
"175 510 OFFCURVE",
"98 465 OFFCURVE",
"69 388 CURVE",
"131 344 LINE",
"158 407 OFFCURVE",
"203 440 OFFCURVE",
"269 440 CURVE SMOOTH",
"348 440 OFFCURVE",
"392 396 OFFCURVE",
"392 330 CURVE SMOOTH",
"392 264 LINE",
"460 264 LINE",
"460 290 LINE SMOOTH",
"460 435 OFFCURVE",
"386 510 OFFCURVE",
"271 510 CURVE SMOOTH"
);
},
{
closed = 1;
nodes = (
"433 291 LINE",
"433 220 LINE",
"790 220 LINE",
"790 291 LINE"
);
},
{
closed = 1;
nodes = (
"243 273 LINE SMOOTH",
"120 257 OFFCURVE",
"60 199 OFFCURVE",
"60 124 CURVE SMOOTH",
"60 42 OFFCURVE",
"122 -10 OFFCURVE",
"220 -10 CURVE SMOOTH",
"343 -10 OFFCURVE",
"446 54 OFFCURVE",
"446 179 CURVE",
"407 198 LINE",
"407 112 OFFCURVE",
"324 60 OFFCURVE",
"234 60 CURVE SMOOTH",
"173 60 OFFCURVE",
"143 81 OFFCURVE",
"143 124 CURVE SMOOTH",
"143 171 OFFCURVE",
"176 195 OFFCURVE",
"264 209 CURVE SMOOTH",
"434 236 LINE",
"423 296 LINE"
);
}
);
width = 888;
}
);
leftMetricsKey = a;
rightMetricsKey = e;
unicode = 00E6;
},
{
glyphname = b;
lastChange = "2014-08-25 10:38:23 +0100";
layers = (
{
components = (
{
name = bowl;
transform = "{-1, 0, 0, 1, 648, 0}";
}
);
layerId = "90FEB760-6DE5-46E5-A8E9-582C63BAB3AD";
name = Regular;
paths = (
{
closed = 1;
nodes = (
"94 730 LINE",
"94 117 LINE",
"94 0 LINE",
"159 0 LINE",
"174 127 LINE",
"174 730 LINE"
);
}
);
width = 630;
}
);
leftMetricsKey = n;
rightMetricsKey = o;
unicode = 0062;
},
{
glyphname = c;
lastChange = "2014-08-25 10:38:23 +0100";
layers = (
{
anchors = (
{
name = bottom;
position = "{304, 0}";
},
{
name = top;
position = "{304, 500}";
}
);
layerId = "90FEB760-6DE5-46E5-A8E9-582C63BAB3AD";
name = Regular;
paths = (
{
closed = 1;
nodes = (
"153 510 OFFCURVE",
"62 412 OFFCURVE",
"62 250 CURVE SMOOTH",
"62 88 OFFCURVE",
"153 -10 OFFCURVE",
"304 -10 CURVE SMOOTH",
"410 -10 OFFCURVE",
"482 46 OFFCURVE",
"514 138 CURVE",
"442 163 LINE",
"422 97 OFFCURVE",
"375 60 OFFCURVE",
"302 60 CURVE SMOOTH",
"202 60 OFFCURVE",
"142 131 OFFCURVE",
"142 250 CURVE SMOOTH",
"142 369 OFFCURVE",
"202 440 OFFCURVE",
"302 440 CURVE SMOOTH",
"367 440 OFFCURVE",
"412 404 OFFCURVE",
"433 341 CURVE",
"509 377 LINE",
"474 459 OFFCURVE",
"407 510 OFFCURVE",
"304 510 CURVE SMOOTH"
);
}
);
width = 565;
}
);
leftMetricsKey = o;
unicode = 0063;
},
{
glyphname = d;
lastChange = "2014-08-25 10:38:23 +0100";
layers = (
{
anchors = (
{
name = center;
position = "{329, 250}";
},
{
name = topright;
position = "{635, 730}";
}
);
components = (
{
name = bowl;
transform = "{1, 0, 0, 1, -11, 0}";
}
);
layerId = "90FEB760-6DE5-46E5-A8E9-582C63BAB3AD";
name = Regular;
paths = (
{
closed = 1;
nodes = (
"463 730 LINE",
"463 127 LINE",
"478 0 LINE",
"543 0 LINE",
"543 117 LINE",
"543 730 LINE"
);
}
);
width = 637;
}
);
leftMetricsKey = q;
rightMetricsKey = "|n";
unicode = 0064;
},
{
color = 0;
glyphname = eth;
lastChange = "2014-08-25 10:38:23 +0100";
layers = (
{
layerId = "90FEB760-6DE5-46E5-A8E9-582C63BAB3AD";
name = Regular;
paths = (
{
closed = 1;
nodes = (
"112 735 LINE",
"92 672 LINE",
"133 672 LINE SMOOTH",
"323 672 OFFCURVE",
"470 566 OFFCURVE",
"470 238 CURVE SMOOTH",
"470 144 OFFCURVE",
"409 60 OFFCURVE",
"298 60 CURVE SMOOTH",
"202 60 OFFCURVE",
"141 126 OFFCURVE",
"141 238 CURVE SMOOTH",
"141 348 OFFCURVE",
"202 415 OFFCURVE",
"303 415 CURVE SMOOTH",
"409 415 OFFCURVE",
"470 348 OFFCURVE",
"470 238 CURVE",
"489 238 LINE",
"489 392 OFFCURVE",
"430 485 OFFCURVE",
"292 485 CURVE SMOOTH",
"159 485 OFFCURVE",
"58 392 OFFCURVE",
"58 238 CURVE SMOOTH",
"58 83 OFFCURVE",
"149 -10 OFFCURVE",
"294 -10 CURVE SMOOTH",
"466 -10 OFFCURVE",
"548 113 OFFCURVE",
"548 288 CURVE SMOOTH",
"548 523 OFFCURVE",
"417 735 OFFCURVE",
"159 735 CURVE SMOOTH"
);
},
{
closed = 1;
nodes = (
"203 580 LINE",
"241 530 LINE",
"489 710 LINE",
"450 758 LINE"
);
}
);
width = 606;
}
);
unicode = 00F0;
},
{
glyphname = e;
lastChange = "2014-08-25 10:38:23 +0100";
layers = (
{
anchors = (
{
name = bottom;
position = "{304, 0}";
},
{
name = ogonek;
position = "{448, 0}";
},
{
name = top;
position = "{295, 500}";
}
);
layerId = "90FEB760-6DE5-46E5-A8E9-582C63BAB3AD";
name = Regular;
paths = (
{
closed = 1;
nodes = (
"147 510 OFFCURVE",
"62 412 OFFCURVE",
"62 250 CURVE SMOOTH",
"62 88 OFFCURVE",
"153 -10 OFFCURVE",
"304 -10 CURVE SMOOTH",
"412 -10 OFFCURVE",
"474 31 OFFCURVE",
"512 99 CURVE",
"445 134 LINE",
"427 86 OFFCURVE",
"377 60 OFFCURVE",
"304 60 CURVE SMOOTH",
"203 60 OFFCURVE",
"140 131 OFFCURVE",
"140 250 CURVE SMOOTH",
"140 369 OFFCURVE",
"197 440 OFFCURVE",
"298 440 CURVE SMOOTH",
"393 440 OFFCURVE",
"451 368 OFFCURVE",
"447 255 CURVE SMOOTH",
"446 220 LINE",
"523 220 LINE",
"523 255 LINE SMOOTH",
"523 412 OFFCURVE",
"443 510 OFFCURVE",
"298 510 CURVE SMOOTH"
);
},
{
closed = 1;
nodes = (
"114 291 LINE",
"114 220 LINE",
"486 220 LINE",
"486 291 LINE"
);
}
);
width = 584;
}
);
leftMetricsKey = o;
unicode = 0065;
},
{
color = 0;
glyphname = eogonek;
lastChange = "2014-08-25 10:38:23 +0100";
layers = (
{
components = (
{
name = e;
transform = "{1, 0, 0, 1, 0, 0}";
}
);
layerId = "90FEB760-6DE5-46E5-A8E9-582C63BAB3AD";
name = Regular;
paths = (
{
closed = 1;
nodes = (
"391 50 LINE",
"293 3 OFFCURVE",
"241 -29 OFFCURVE",
"241 -105 CURVE SMOOTH",
"241 -167 OFFCURVE",
"290 -215 OFFCURVE",
"356 -215 CURVE SMOOTH",
"406 -215 OFFCURVE",
"438 -196 OFFCURVE",
"458 -178 CURVE",
"436 -122 LINE",
"426 -136 OFFCURVE",
"406 -152 OFFCURVE",
"370 -152 CURVE SMOOTH",
"339 -152 OFFCURVE",
"310 -139 OFFCURVE",
"310 -104 CURVE SMOOTH",
"310 -45 OFFCURVE",
"347 -21 OFFCURVE",
"437 21 CURVE"
);
}
);
width = 584;
}
);
unicode = 0119;
},
{
glyphname = f;
lastChange = "2014-08-25 10:38:23 +0100";
layers = (
{
guideLines = (
{
angle = 90;
position = "{394, 500}";
}
);
hints = (
{
place = "{257.299790, 0.000000}";
}
);
layerId = "90FEB760-6DE5-46E5-A8E9-582C63BAB3AD";
name = Regular;
paths = (
{
closed = 1;
nodes = (
"205 735 OFFCURVE",
"148 673 OFFCURVE",
"148 584 CURVE SMOOTH",
"148 0 LINE",
"228 0 LINE",
"228 576 LINE SMOOTH",
"228 637 OFFCURVE",
"264 662 OFFCURVE",
"305 662 CURVE SMOOTH",
"339 662 OFFCURVE",
"358 649 OFFCURVE",
"375 629 CURVE",
"394 702 LINE",
"374 722 OFFCURVE",
"352 735 OFFCURVE",
"298 735 CURVE SMOOTH"
);
},
{
closed = 1;
nodes = (
"48 500 LINE",
"48 431 LINE",
"388 431 LINE",
"388 500 LINE"
);
}
);
width = 410;
}
);
unicode = 0066;
},
{
glyphname = g;
lastChange = "2014-08-25 10:38:23 +0100";
layers = (
{
anchors = (
{
name = top;
position = "{277, 500}";
}
);
layerId = "90FEB760-6DE5-46E5-A8E9-582C63BAB3AD";
name = Regular;
paths = (
{
closed = 1;
nodes = (
"119 207 OFFCURVE",
"66 171 OFFCURVE",
"66 110 CURVE SMOOTH",
"66 35 OFFCURVE",
"155 -5 OFFCURVE",
"216 -5 CURVE SMOOTH",
"350 -5 LINE SMOOTH",
"425 -5 OFFCURVE",
"449 -28 OFFCURVE",
"449 -64 CURVE SMOOTH",
"449 -108 OFFCURVE",
"391 -148 OFFCURVE",
"285 -148 CURVE SMOOTH",
"175 -148 OFFCURVE",
"120 -116 OFFCURVE",
"120 -67 CURVE SMOOTH",
"120 -29 OFFCURVE",
"153 -5 OFFCURVE",
"216 -5 CURVE",
"192 29 LINE",
"104 29 OFFCURVE",
"43 -17 OFFCURVE",
"43 -83 CURVE SMOOTH",
"43 -158 OFFCURVE",
"118 -215 OFFCURVE",
"276 -215 CURVE SMOOTH",
"411 -215 OFFCURVE",
"527 -154 OFFCURVE",
"527 -55 CURVE SMOOTH",
"527 17 OFFCURVE",
"467 64 OFFCURVE",
"372 64 CURVE SMOOTH",
"242 64 LINE SMOOTH",
"177 64 OFFCURVE",
"141 87 OFFCURVE",
"141 124 CURVE SMOOTH",
"141 158 OFFCURVE",
"170 179 OFFCURVE",
"231 187 CURVE",
"188 214 LINE"
);
},
{
closed = 1;
nodes = (
"153 510 OFFCURVE",
"68 440 OFFCURVE",
"68 341 CURVE SMOOTH",
"68 242 OFFCURVE",
"141 172 OFFCURVE",
"273 172 CURVE SMOOTH",
"393 172 OFFCURVE",
"478 242 OFFCURVE",
"478 341 CURVE SMOOTH",
"478 440 OFFCURVE",
"393 510 OFFCURVE",
"273 510 CURVE SMOOTH"
);
},
{
closed = 1;
nodes = (
"342 445 OFFCURVE",
"395 403 OFFCURVE",
"395 341 CURVE SMOOTH",
"395 279 OFFCURVE",
"342 237 OFFCURVE",
"273 237 CURVE SMOOTH",
"204 237 OFFCURVE",
"151 279 OFFCURVE",
"151 341 CURVE SMOOTH",
"151 403 OFFCURVE",
"204 445 OFFCURVE",
"273 445 CURVE SMOOTH"
);
},
{
closed = 1;
nodes = (
"431 592 OFFCURVE",
"386 549 OFFCURVE",
"372 460 CURVE",
"412 443 LINE",
"417 494 OFFCURVE",
"453 520 OFFCURVE",
"534 520 CURVE",
"516 592 LINE"
);
}
);
width = 549;
}
);
unicode = 0067;
},
{
glyphname = gcommaaccent;
lastChange = "2014-08-25 10:38:23 +0100";
layers = (
{
components = (
{
name = g;
transform = "{1, 0, 0, 1, 0, 0}";
}
);
layerId = "90FEB760-6DE5-46E5-A8E9-582C63BAB3AD";
name = Regular;
paths = (
{
closed = 1;
nodes = (
"323 587 LINE",
"365 778 LINE",
"305 778 LINE",
"235 587 LINE"
);
}
);
width = 577;
}
);
unicode = 0123;
},
{
glyphname = h;
lastChange = "2014-08-25 10:38:23 +0100";
layers = (
{
layerId = "90FEB760-6DE5-46E5-A8E9-582C63BAB3AD";
name = Regular;
paths = (
{
closed = 1;
nodes = (
"94 730 LINE",
"94 0 LINE",
"174 0 LINE",
"174 730 LINE"
);
},
{
closed = 1;
nodes = (
"233 510 OFFCURVE",
"145 451 OFFCURVE",
"145 291 CURVE",
"174 271 LINE",
"174 399 OFFCURVE",
"256 440 OFFCURVE",
"329 440 CURVE SMOOTH",
"398 440 OFFCURVE",
"452 403 OFFCURVE",
"452 292 CURVE SMOOTH",
"452 0 LINE",
"532 0 LINE",
"532 320 LINE SMOOTH",
"532 449 OFFCURVE",
"444 510 OFFCURVE",
"337 510 CURVE SMOOTH"
);
}
);
width = 620;
}
);
leftMetricsKey = n;
rightMetricsKey = n;
unicode = 0068;
},
{
glyphname = i;
lastChange = "2014-08-25 10:38:23 +0100";
layers = (
{
components = (
{
name = dotaccent;
transform = "{1, 0, 0, 1, -116, 0}";
}
);
layerId = "90FEB760-6DE5-46E5-A8E9-582C63BAB3AD";
name = Regular;
paths = (
{
closed = 1;
nodes = (
"94 500 LINE",
"94 0 LINE",
"174 0 LINE",
"174 500 LINE"
);
}
);
width = 268;
}
);
leftMetricsKey = "n-20";
rightMetricsKey = "=|n-20";
unicode = 0069;
},
{
glyphname = dotlessi;
lastChange = "2014-08-25 10:38:23 +0100";
layers = (
{
anchors = (
{
name = ogonek;
position = "{174, 0}";
},
{
name = top;
position = "{134, 500}";
}
);
layerId = "90FEB760-6DE5-46E5-A8E9-582C63BAB3AD";
name = Regular;
paths = (
{
closed = 1;
nodes = (
"94 500 LINE",
"94 0 LINE",
"174 0 LINE",
"174 500 LINE"
);
}
);
width = 268;
}
);
leftMetricsKey = n;
rightMetricsKey = "=|n";
unicode = 0131;
},
{
glyphname = idieresis;
lastChange = "2014-08-25 10:38:23 +0100";
layers = (
{
components = (
{
name = dotlessi;
transform = "{1, 0, 0, 1, 0, 0}";
}
);
layerId = "90FEB760-6DE5-46E5-A8E9-582C63BAB3AD";
name = Regular;
paths = (
{
closed = 1;
nodes = (
"11 706 OFFCURVE",
"-15 680 OFFCURVE",
"-15 649 CURVE SMOOTH",
"-15 618 OFFCURVE",
"11 592 OFFCURVE",
"42 592 CURVE SMOOTH",
"73 592 OFFCURVE",
"99 618 OFFCURVE",
"99 649 CURVE SMOOTH",
"99 680 OFFCURVE",
"73 706 OFFCURVE",
"42 706 CURVE SMOOTH"
);
},
{
closed = 1;
nodes = (
"188 706 OFFCURVE",
"162 680 OFFCURVE",
"162 649 CURVE SMOOTH",
"162 618 OFFCURVE",
"188 592 OFFCURVE",
"219 592 CURVE SMOOTH",
"250 592 OFFCURVE",
"276 618 OFFCURVE",
"276 649 CURVE SMOOTH",
"276 680 OFFCURVE",
"250 706 OFFCURVE",
"219 706 CURVE SMOOTH"
);
}
);
width = 268;
}
);
unicode = 00EF;
},
{
color = 0;
glyphname = iogonek;
lastChange = "2014-08-25 10:38:23 +0100";
layers = (
{
components = (
{
name = dotlessi;
transform = "{1, 0, 0, 1, 0, 0}";
},
{
name = dotaccent;
transform = "{1, 0, 0, 1, -116, 0}";
}
);
layerId = "90FEB760-6DE5-46E5-A8E9-582C63BAB3AD";
name = Regular;
paths = (
{
closed = 1;
nodes = (
"128 19 LINE",
"47 -9 OFFCURVE",
"7 -53 OFFCURVE",
"7 -118 CURVE SMOOTH",
"7 -180 OFFCURVE",
"56 -215 OFFCURVE",
"122 -215 CURVE SMOOTH",
"172 -215 OFFCURVE",
"204 -196 OFFCURVE",
"224 -178 CURVE",
"202 -122 LINE",
"192 -136 OFFCURVE",
"172 -152 OFFCURVE",
"136 -152 CURVE SMOOTH",
"105 -152 OFFCURVE",
"76 -139 OFFCURVE",
"76 -104 CURVE SMOOTH",
"76 -67 OFFCURVE",
"101 -33 OFFCURVE",
"174 0 CURVE"
);
}
);
width = 268;
}
);
unicode = 012F;
},
{
glyphname = j;
lastChange = "2014-08-25 10:38:23 +0100";
layers = (
{
components = (
{
name = dotaccent;
transform = "{1, 0, 0, 1, -105, 0}";
}
);
layerId = "90FEB760-6DE5-46E5-A8E9-582C63BAB3AD";
name = Regular;
paths = (
{
closed = 1;
nodes = (
"105 500 LINE",
"105 -43 LINE SMOOTH",
"105 -113 OFFCURVE",
"75 -137 OFFCURVE",
"32 -137 CURVE SMOOTH",
"-3 -137 OFFCURVE",
"-31 -123 OFFCURVE",
"-50 -106 CURVE",
"-67 -182 LINE",
"-44 -201 OFFCURVE",
"-8 -215 OFFCURVE",
"33 -215 CURVE SMOOTH",
"101 -215 OFFCURVE",
"185 -176 OFFCURVE",
"185 -51 CURVE SMOOTH",
"185 500 LINE"
);
}
);
width = 279;
}
);
rightMetricsKey = "=|n-25";
unicode = 006A;
},
{
glyphname = k;
lastChange = "2014-08-25 10:38:23 +0100";
layers = (
{
anchors = (
{
name = bottom;
position = "{316, 0}";
}
);
layerId = "90FEB760-6DE5-46E5-A8E9-582C63BAB3AD";
name = Regular;
paths = (
{
closed = 1;
nodes = (
"433 500 LINE",
"134 201 LINE",
"134 101 LINE",
"533 500 LINE"
);
},
{
closed = 1;
nodes = (
"94 730 LINE",
"94 0 LINE",
"174 0 LINE",
"174 730 LINE"
);
},
{
closed = 1;
nodes = (
"257 280 LINE",
"448 0 LINE",
"545 0 LINE",
"324 325 LINE"
);
}
);
width = 559;
}
);
leftMetricsKey = n;
unicode = 006B;
},
{
glyphname = l;
lastChange = "2014-08-25 10:38:23 +0100";
layers = (
{
anchors = (
{
name = bottom;
position = "{229, 0}";
},
{
name = top;
position = "{134, 730}";
},
{
name = topright;
position = "{267, 730}";
}
);
layerId = "90FEB760-6DE5-46E5-A8E9-582C63BAB3AD";
name = Regular;
paths = (
{
closed = 1;
nodes = (
"94 730 LINE",
"94 124 LINE SMOOTH",
"94 33 OFFCURVE",
"133 -10 OFFCURVE",
"214 -10 CURVE SMOOTH",
"240 -10 OFFCURVE",
"267 -5 OFFCURVE",
"288 4 CURVE",
"301 81 LINE",
"276 72 OFFCURVE",
"259 67 OFFCURVE",
"228 67 CURVE SMOOTH",
"187 67 OFFCURVE",
"174 83 OFFCURVE",
"174 134 CURVE SMOOTH",
"174 730 LINE"
);
}
);
width = 314;
}
);
leftMetricsKey = n;
unicode = 006C;
},
{
color = 2;
glyphname = lacute;
lastChange = "2014-08-25 10:38:23 +0100";
layers = (
{
components = (
{
name = l;
transform = "{1, 0, 0, 1, 0, 0}";
}
);
layerId = "90FEB760-6DE5-46E5-A8E9-582C63BAB3AD";
name = Regular;
paths = (
{
closed = 1;
nodes = (
"94 813 LINE",
"154 813 LINE",
"254 980 LINE",
"166 980 LINE"
);
}
);
width = 338;
}
);
unicode = 013A;
},
{
glyphname = lslash;
lastChange = "2014-08-25 10:38:23 +0100";
layers = (
{
components = (
{
name = l;
transform = "{1, 0, 0, 1, 29, 0}";
}
);
layerId = "90FEB760-6DE5-46E5-A8E9-582C63BAB3AD";
name = Regular;
paths = (
{
closed = 1;
nodes = (
"27 312 LINE",
"27 229 LINE",
"323 427 LINE",
"323 510 LINE"
);
}
);
width = 349;
}
);
unicode = 0142;
},
{
glyphname = m;
lastChange = "2014-08-25 10:38:23 +0100";
layers = (
{
guideLines = (
{
position = "{194, 423}";
}
);
layerId = "90FEB760-6DE5-46E5-A8E9-582C63BAB3AD";
name = Regular;
paths = (
{
closed = 1;
nodes = (
"595 510 OFFCURVE",
"487 461 OFFCURVE",
"487 346 CURVE",
"520 282 LINE",
"520 389 OFFCURVE",
"590 440 OFFCURVE",
"668 440 CURVE SMOOTH",
"734 440 OFFCURVE",
"786 403 OFFCURVE",
"786 312 CURVE SMOOTH",
"786 0 LINE",
"866 0 LINE",
"866 320 LINE SMOOTH",
"866 452 OFFCURVE",
"771 510 OFFCURVE",
"675 510 CURVE SMOOTH"
);
},
{
closed = 1;
nodes = (
"94 500 LINE",
"94 383 LINE",
"94 0 LINE",
"174 0 LINE",
"174 383 LINE",
"159 500 LINE"
);
},
{
closed = 1;
nodes = (
"234 510 OFFCURVE",
"138 442 OFFCURVE",
"138 293 CURVE",
"174 282 LINE",
"174 398 OFFCURVE",
"256 440 OFFCURVE",
"322 440 CURVE SMOOTH",
"388 440 OFFCURVE",
"440 403 OFFCURVE",
"440 312 CURVE SMOOTH",
"440 0 LINE",
"520 0 LINE",
"520 320 LINE SMOOTH",
"520 452 OFFCURVE",
"425 510 OFFCURVE",
"329 510 CURVE SMOOTH"
);
}
);
width = 954;
}
);
leftMetricsKey = n;
rightMetricsKey = n;
unicode = 006D;
},
{
glyphname = n;
lastChange = "2014-08-25 10:38:23 +0100";
layers = (
{
anchors = (
{
name = bottom;
position = "{343, 0}";
},
{
name = top;
position = "{319, 500}";
}
);
layerId = "90FEB760-6DE5-46E5-A8E9-582C63BAB3AD";
name = Regular;
paths = (
{
closed = 1;
nodes = (
"233 510 OFFCURVE",
"145 451 OFFCURVE",
"145 291 CURVE",
"174 271 LINE",
"174 399 OFFCURVE",
"256 440 OFFCURVE",
"329 440 CURVE SMOOTH",
"398 440 OFFCURVE",
"452 403 OFFCURVE",
"452 292 CURVE SMOOTH",
"452 0 LINE",
"532 0 LINE",
"532 320 LINE SMOOTH",
"532 449 OFFCURVE",
"444 510 OFFCURVE",
"337 510 CURVE SMOOTH"
);
},
{
closed = 1;
nodes = (
"94 500 LINE",
"94 383 LINE",
"94 0 LINE",
"174 0 LINE",
"174 383 LINE",
"159 500 LINE"
);
}
);
width = 620;
}
);
unicode = 006E;
},
{
glyphname = o;
lastChange = "2014-08-25 10:38:23 +0100";
layers = (
{
anchors = (
{
name = top;
position = "{307, 500}";
}
);
layerId = "90FEB760-6DE5-46E5-A8E9-582C63BAB3AD";
name = Regular;
paths = (
{
closed = 1;
nodes = (
"153 510 OFFCURVE",
"62 412 OFFCURVE",
"62 250 CURVE SMOOTH",
"62 88 OFFCURVE",
"153 -10 OFFCURVE",
"307 -10 CURVE SMOOTH",
"461 -10 OFFCURVE",
"552 88 OFFCURVE",
"552 250 CURVE SMOOTH",
"552 412 OFFCURVE",
"461 510 OFFCURVE",
"307 510 CURVE SMOOTH"
);
},
{
closed = 1;
nodes = (
"408 440 OFFCURVE",
"469 369 OFFCURVE",
"469 250 CURVE SMOOTH",
"469 131 OFFCURVE",
"408 60 OFFCURVE",
"307 60 CURVE SMOOTH",
"206 60 OFFCURVE",
"145 131 OFFCURVE",
"145 250 CURVE SMOOTH",
"145 369 OFFCURVE",
"206 440 OFFCURVE",
"307 440 CURVE SMOOTH"
);
}
);
width = 614;
}
);
unicode = 006F;
},
{
glyphname = oslash;
lastChange = "2014-08-25 10:38:23 +0100";
layers = (
{
components = (
{
name = o;
transform = "{1, 0, 0, 1, 0, 0}";
}
);
guideLines = (
{
angle = 90;
position = "{558, 257}";
},
{
angle = 90;
position = "{68, 257}";
}
);
layerId = "90FEB760-6DE5-46E5-A8E9-582C63BAB3AD";
name = Regular;
paths = (
{
closed = 1;
nodes = (
"491 540 LINE",
"68 -41 LINE",
"135 -41 LINE",
"558 540 LINE"
);
}
);
width = 626;
}
);
unicode = 00F8;
},
{
glyphname = oe;
lastChange = "2014-08-25 10:38:23 +0100";
layers = (
{
layerId = "90FEB760-6DE5-46E5-A8E9-582C63BAB3AD";
name = Regular;
paths = (
{
closed = 1;
nodes = (
"153 510 OFFCURVE",
"62 412 OFFCURVE",
"62 250 CURVE SMOOTH",
"62 88 OFFCURVE",
"153 -10 OFFCURVE",
"307 -10 CURVE SMOOTH",
"455 -10 OFFCURVE",
"542 88 OFFCURVE",
"542 250 CURVE SMOOTH",
"542 412 OFFCURVE",
"455 510 OFFCURVE",
"307 510 CURVE SMOOTH"
);
},
{
closed = 1;
nodes = (
"408 440 OFFCURVE",
"469 369 OFFCURVE",
"469 250 CURVE SMOOTH",
"469 131 OFFCURVE",
"408 60 OFFCURVE",
"307 60 CURVE SMOOTH",
"206 60 OFFCURVE",
"145 131 OFFCURVE",
"145 250 CURVE SMOOTH",
"145 369 OFFCURVE",
"206 440 OFFCURVE",
"307 440 CURVE SMOOTH"
);
},
{
closed = 1;
nodes = (
"560 510 OFFCURVE",
"479 412 OFFCURVE",
"479 250 CURVE SMOOTH",
"479 88 OFFCURVE",
"566 -10 OFFCURVE",
"711 -10 CURVE SMOOTH",
"819 -10 OFFCURVE",
"881 31 OFFCURVE",
"919 99 CURVE",
"852 134 LINE",
"834 86 OFFCURVE",
"784 60 OFFCURVE",
"711 60 CURVE SMOOTH",
"610 60 OFFCURVE",
"547 131 OFFCURVE",
"547 250 CURVE SMOOTH",
"547 369 OFFCURVE",
"604 440 OFFCURVE",
"705 440 CURVE SMOOTH",
"800 440 OFFCURVE",
"858 368 OFFCURVE",
"854 255 CURVE SMOOTH",
"853 220 LINE",
"930 220 LINE",
"930 255 LINE SMOOTH",
"930 412 OFFCURVE",
"850 510 OFFCURVE",
"705 510 CURVE SMOOTH"
);
},
{
closed = 1;
nodes = (
"521 291 LINE",
"521 220 LINE",
"893 220 LINE",
"893 291 LINE"
);
}
);
width = 991;
}
);
leftMetricsKey = o;
rightMetricsKey = e;
unicode = 0153;
},
{
glyphname = p;
lastChange = "2014-08-25 10:38:23 +0100";
layers = (
{
components = (
{
name = bowl;
transform = "{-1, 0, 0, 1, 648, 0}";
}
);
layerId = "90FEB760-6DE5-46E5-A8E9-582C63BAB3AD";
name = Regular;
paths = (
{
closed = 1;
nodes = (
"94 500 LINE",
"94 383 LINE",
"94 -210 LINE",
"174 -210 LINE",
"174 383 LINE",
"159 500 LINE"
);
}
);
width = 630;
}
);
leftMetricsKey = n;
rightMetricsKey = o;
unicode = 0070;
},
{
glyphname = thorn;
lastChange = "2014-08-25 10:38:23 +0100";
layers = (
{
components = (
{
name = bowl;
transform = "{-1, -0, 0, -1, 648, 500}";
}
);
layerId = "90FEB760-6DE5-46E5-A8E9-582C63BAB3AD";
name = Regular;
paths = (
{
closed = 1;
nodes = (
"94 730 LINE",
"94 -210 LINE",
"174 -210 LINE",
"174 730 LINE"
);
}
);
width = 630;
}
);
leftMetricsKey = n;
rightMetricsKey = o;
unicode = 00FE;
},
{
glyphname = q;
lastChange = "2014-08-25 10:38:23 +0100";
layers = (
{
components = (
{
name = bowl;
transform = "{1, 0, 0, 1, -11, 0}";
}
);
layerId = "90FEB760-6DE5-46E5-A8E9-582C63BAB3AD";
name = Regular;
paths = (
{
closed = 1;
nodes = (
"478 500 LINE",
"463 383 LINE",
"463 -210 LINE",
"543 -210 LINE",
"543 383 LINE",
"543 500 LINE"
);
}
);
width = 637;
}
);
leftMetricsKey = o;
rightMetricsKey = "=|n";
unicode = 0071;
},
{
glyphname = r;
lastChange = "2014-08-25 10:38:23 +0100";
layers = (
{
anchors = (
{
name = bottom;
position = "{155, 0}";
},
{
name = top;
position = "{221, 500}";
}
);
layerId = "90FEB760-6DE5-46E5-A8E9-582C63BAB3AD";
name = Regular;
paths = (
{
closed = 1;
nodes = (
"215 510 OFFCURVE",
"151 438 OFFCURVE",
"151 295 CURVE",
"174 275 LINE",
"174 387 OFFCURVE",
"246 435 OFFCURVE",
"306 435 CURVE SMOOTH",
"332 435 OFFCURVE",
"354 430 OFFCURVE",
"369 422 CURVE",
"385 500 LINE",
"370 508 OFFCURVE",
"347 510 OFFCURVE",
"330 510 CURVE SMOOTH"
);
},
{
closed = 1;
nodes = (
"94 500 LINE",
"94 383 LINE",
"94 0 LINE",
"174 0 LINE",
"174 383 LINE",
"159 500 LINE"
);
}
);
width = 409;
}
);
leftMetricsKey = n;
unicode = 0072;
},
{
glyphname = s;
lastChange = "2014-08-25 10:38:23 +0100";
layers = (
{
anchors = (
{
name = bottom;
position = "{285, 0}";
},
{
name = top;
position = "{282, 500}";
}
);
layerId = "90FEB760-6DE5-46E5-A8E9-582C63BAB3AD";
name = Regular;
paths = (
{
closed = 1;
nodes = (
"160 510 OFFCURVE",
"85 441 OFFCURVE",
"85 360 CURVE SMOOTH",
"85 279 OFFCURVE",
"140 237 OFFCURVE",
"264 214 CURVE SMOOTH",
"390 191 OFFCURVE",
"410 171 OFFCURVE",
"410 134 CURVE SMOOTH",
"410 93 OFFCURVE",
"371 60 OFFCURVE",
"289 60 CURVE SMOOTH",
"217 60 OFFCURVE",
"157 91 OFFCURVE",
"133 150 CURVE",
"64 117 LINE",
"96 24 OFFCURVE",
"179 -10 OFFCURVE",
"281 -10 CURVE SMOOTH",
"409 -10 OFFCURVE",
"490 51 OFFCURVE",
"490 138 CURVE SMOOTH",
"490 220 OFFCURVE",
"438 259 OFFCURVE",
"324 279 CURVE SMOOTH",
"192 302 OFFCURVE",
"165 327 OFFCURVE",
"165 366 CURVE SMOOTH",
"165 404 OFFCURVE",
"215 440 OFFCURVE",
"282 440 CURVE SMOOTH",
"345 440 OFFCURVE",
"390 416 OFFCURVE",
"412 350 CURVE",
"480 390 LINE",
"452 472 OFFCURVE",
"389 510 OFFCURVE",
"282 510 CURVE SMOOTH"
);
}
);
width = 548;
}
);
unicode = 0073;
},
{
glyphname = germandbls;
lastChange = "2014-08-25 10:38:23 +0100";
layers = (
{
hints = (
{
place = "{257.299790, 0.000000}";
},
{
place = "{257.299790, 0.000000}";
}
);
layerId = "90FEB760-6DE5-46E5-A8E9-582C63BAB3AD";
name = Regular;
paths = (
{
closed = 1;
nodes = (
"271 392 LINE",
"271 347 LINE",
"310 347 LINE SMOOTH",
"422 347 OFFCURVE",
"484 299 OFFCURVE",
"484 206 CURVE SMOOTH",
"484 123 OFFCURVE",
"435 63 OFFCURVE",
"344 63 CURVE SMOOTH",
"306 63 OFFCURVE",
"278 72 OFFCURVE",
"258 88 CURVE",
"235 23 LINE",
"253 6 OFFCURVE",
"295 -10 OFFCURVE",
"340 -10 CURVE SMOOTH",
"488 -10 OFFCURVE",
"561 91 OFFCURVE",
"561 197 CURVE SMOOTH",
"561 286 OFFCURVE",
"510 392 OFFCURVE",
"374 392 CURVE SMOOTH"
);
},
{
closed = 1;
nodes = (
"406 660 OFFCURVE",
"453 623 OFFCURVE",
"453 544 CURVE SMOOTH",
"453 474 OFFCURVE",
"400 422 OFFCURVE",
"310 422 CURVE SMOOTH",
"271 422 LINE",
"271 392 LINE",
"374 392 LINE SMOOTH",
"476 392 OFFCURVE",
"535 469 OFFCURVE",
"535 549 CURVE SMOOTH",
"535 631 OFFCURVE",
"481 735 OFFCURVE",
"327 735 CURVE SMOOTH",
"149 735 OFFCURVE",
"94 634 OFFCURVE",
"94 497 CURVE SMOOTH",
"94 0 LINE",
"174 0 LINE",
"174 473 LINE SMOOTH",
"174 596 OFFCURVE",
"207 660 OFFCURVE",
"319 660 CURVE SMOOTH"
);
}
);
width = 610;
}
);
leftMetricsKey = n;
unicode = 00DF;
},
{
glyphname = t;
lastChange = "2014-08-25 10:38:23 +0100";
layers = (
{
anchors = (
{
name = bottom;
position = "{243, 0}";
},
{
name = center;
position = "{160, 250}";
},
{
name = topright;
position = "{288, 767}";
}
);
layerId = "90FEB760-6DE5-46E5-A8E9-582C63BAB3AD";
name = Regular;
paths = (
{
closed = 1;
nodes = (
"120 620 LINE",
"120 124 LINE SMOOTH",
"121 27 OFFCURVE",
"185 -10 OFFCURVE",
"259 -10 CURVE SMOOTH",
"314 -10 OFFCURVE",
"357 7 OFFCURVE",
"388 35 CURVE",
"360 102 LINE",
"337 79 OFFCURVE",
"311 65 OFFCURVE",
"275 65 CURVE SMOOTH",
"231 65 OFFCURVE",
"200 89 OFFCURVE",
"200 138 CURVE SMOOTH",
"200 642 LINE"
);
},
{
closed = 1;
nodes = (
"20 500 LINE",
"20 431 LINE",
"375 431 LINE",
"375 500 LINE"
);
}
);
width = 423;
}
);
unicode = 0074;
},
{
glyphname = u;
lastChange = "2014-08-25 10:38:23 +0100";
layers = (
{
anchors = (
{
name = ogonek;
position = "{526, 0}";
},
{
name = top;
position = "{308, 500}";
}
);
layerId = "90FEB760-6DE5-46E5-A8E9-582C63BAB3AD";
name = Regular;
paths = (
{
closed = 1;
nodes = (
"88 500 LINE",
"88 173 LINE SMOOTH",
"88 41 OFFCURVE",
"173 -10 OFFCURVE",
"272 -10 CURVE SMOOTH",
"396 -10 OFFCURVE",
"476 53 OFFCURVE",
"476 208 CURVE",
"446 225 LINE",
"446 107 OFFCURVE",
"371 60 OFFCURVE",
"286 60 CURVE SMOOTH",
"214 60 OFFCURVE",
"168 91 OFFCURVE",
"168 194 CURVE SMOOTH",
"168 500 LINE"
);
},
{
closed = 1;
nodes = (
"446 500 LINE",
"446 117 LINE",
"461 0 LINE",
"526 0 LINE",
"526 117 LINE",
"526 500 LINE"
);
}
);
width = 620;
}
);
leftMetricsKey = "=|n";
rightMetricsKey = "=|n";
unicode = 0075;
},
{
glyphname = v;
lastChange = "2014-08-25 10:38:23 +0100";
layers = (
{
layerId = "90FEB760-6DE5-46E5-A8E9-582C63BAB3AD";
name = Regular;
paths = (
{
closed = 1;
nodes = (
"428 500 LINE",
"224 0 LINE",
"304 0 LINE",
"517 500 LINE"
);
},
{
closed = 1;
nodes = (
"11 500 LINE",
"224 0 LINE",
"304 0 LINE",
"100 500 LINE"
);
}
);
width = 528;
}
);
unicode = 0076;
},
{
glyphname = w;
lastChange = "2014-08-25 10:38:23 +0100";
layers = (
{
layerId = "90FEB760-6DE5-46E5-A8E9-582C63BAB3AD";
name = Regular;
paths = (
{
closed = 1;
nodes = (
"370 500 LINE",
"547 0 LINE",
"627 0 LINE",
"450 500 LINE"
);
},
{
closed = 1;
nodes = (
"19 500 LINE",
"193 0 LINE",
"273 0 LINE",
"108 500 LINE"
);
},
{
closed = 1;
nodes = (
"370 500 LINE",
"203 0 LINE",
"273 0 LINE",
"440 500 LINE"
);
},
{
closed = 1;
nodes = (
"712 500 LINE",
"557 0 LINE",
"627 0 LINE",
"801 500 LINE"
);
}
);
width = 820;
}
);
unicode = 0077;
},
{
glyphname = x;
lastChange = "2014-08-25 10:38:23 +0100";
layers = (
{
layerId = "90FEB760-6DE5-46E5-A8E9-582C63BAB3AD";
name = Regular;
paths = (
{
closed = 1;
nodes = (
"378 500 LINE",
"235 288 LINE",
"229 288 LINE",
"21 0 LINE",
"115 0 LINE",
"275 237 LINE",
"279 237 LINE",
"462 500 LINE"
);
},
{
closed = 1;
nodes = (
"38 500 LINE",
"378 0 LINE",
"474 0 LINE",
"134 500 LINE"
);
},
{
closed = 1;
nodes = (
"38 500 LINE",
"378 0 LINE",
"474 0 LINE",
"134 500 LINE"
);
}
);
width = 494;
}
);
unicode = 0078;
},
{
glyphname = y;
lastChange = "2014-08-25 10:38:23 +0100";
layers = (
{
anchors = (
{
name = top;
position = "{266, 500}";
}
);
layerId = "90FEB760-6DE5-46E5-A8E9-582C63BAB3AD";
name = Regular;
paths = (
{
closed = 1;
nodes = (
"435 500 LINE",
"208 -64 LINE SMOOTH",
"183 -127 OFFCURVE",
"151 -142 OFFCURVE",
"111 -142 CURVE SMOOTH",
"81 -142 OFFCURVE",
"53 -139 OFFCURVE",
"17 -112 CURVE",
"31 -196 LINE",
"50 -206 OFFCURVE",
"76 -215 OFFCURVE",
"118 -215 CURVE SMOOTH",
"195 -215 OFFCURVE",
"235 -182 OFFCURVE",
"268 -103 CURVE SMOOTH",
"521 500 LINE"
);
},
{
closed = 1;
nodes = (
"15 500 LINE",
"235 0 LINE",
"312 0 LINE",
"106 500 LINE"
);
}
);
width = 532;
}
);
rightMetricsKey = v;
unicode = 0079;
},
{
glyphname = z;
lastChange = "2014-08-25 10:38:23 +0100";
layers = (
{
anchors = (
{
name = top;
position = "{279, 500}";
}
);
layerId = "90FEB760-6DE5-46E5-A8E9-582C63BAB3AD";
name = Regular;
paths = (
{
closed = 1;
nodes = (
"65 63 LINE",
"114 17 LINE",
"503 438 LINE",
"453 484 LINE"
);
},
{
closed = 1;
nodes = (
"248 68 LINE",
"65 63 LINE",
"65 0 LINE",
"248 0 LINE",
"503 0 LINE",
"503 68 LINE"
);
},
{
closed = 1;
nodes = (
"329 500 LINE",
"65 500 LINE",
"65 433 LINE",
"329 433 LINE",
"503 438 LINE",
"503 500 LINE"
);
}
);
width = 557;
}
);
unicode = 007A;
},
{
glyphname = ordfeminine;
lastChange = "2014-08-25 10:38:23 +0100";
layers = (
{
layerId = "90FEB760-6DE5-46E5-A8E9-582C63BAB3AD";
name = Regular;
paths = (
{
closed = 1;
nodes = (
"147 670 OFFCURVE",
"81 636 OFFCURVE",
"63 585 CURVE",
"117 554 LINE",
"136 598 OFFCURVE",
"168 613 OFFCURVE",
"215 613 CURVE SMOOTH",
"270 613 OFFCURVE",
"295 590 OFFCURVE",
"295 544 CURVE SMOOTH",
"295 384 LINE SMOOTH",
"295 339 OFFCURVE",
"326 306 OFFCURVE",
"369 306 CURVE SMOOTH",
"387 306 OFFCURVE",
"402 310 OFFCURVE",
"412 313 CURVE",
"415 366 LINE",
"407 364 OFFCURVE",
"396 363 OFFCURVE",
"387 363 CURVE SMOOTH",
"367 363 OFFCURVE",
"360 371 OFFCURVE",
"360 388 CURVE SMOOTH",
"360 551 LINE SMOOTH",
"360 632 OFFCURVE",
"295 670 OFFCURVE",
"213 670 CURVE SMOOTH"
);
},
{
closed = 1;
nodes = (
"208 514 LINE SMOOTH",
"111 497 OFFCURVE",
"57 468 OFFCURVE",
"57 403 CURVE SMOOTH",
"57 333 OFFCURVE",
"109 306 OFFCURVE",
"177 306 CURVE SMOOTH",
"245 306 OFFCURVE",
"311 342 OFFCURVE",
"311 400 CURVE",
"296 427 LINE",
"296 394 OFFCURVE",
"243 363 OFFCURVE",
"186 363 CURVE SMOOTH",
"148 363 OFFCURVE",
"122 376 OFFCURVE",
"122 402 CURVE SMOOTH",
"122 439 OFFCURVE",
"159 455 OFFCURVE",
"224 467 CURVE SMOOTH",
"329 486 LINE",
"321 534 LINE"
);
},
{
closed = 1;
nodes = (
"62 222 LINE",
"62 169 LINE",
"399 169 LINE",
"399 222 LINE"
);
}
);
width = 457;
}
);
unicode = 00AA;
},
{
color = 0;
glyphname = ordmasculine;
lastChange = "2014-08-25 10:38:23 +0100";
layers = (
{
layerId = "90FEB760-6DE5-46E5-A8E9-582C63BAB3AD";
name = Regular;
paths = (
{
closed = 1;
nodes = (
"113 670 OFFCURVE",
"43 601 OFFCURVE",
"43 488 CURVE SMOOTH",
"43 375 OFFCURVE",
"113 306 OFFCURVE",
"216 306 CURVE SMOOTH",
"319 306 OFFCURVE",
"389 375 OFFCURVE",
"389 488 CURVE SMOOTH",
"389 601 OFFCURVE",
"319 670 OFFCURVE",
"216 670 CURVE SMOOTH"
);
},
{
closed = 1;
nodes = (
"282 613 OFFCURVE",
"324 571 OFFCURVE",
"324 488 CURVE SMOOTH",
"324 405 OFFCURVE",
"282 363 OFFCURVE",
"216 363 CURVE SMOOTH",
"150 363 OFFCURVE",
"108 405 OFFCURVE",
"108 488 CURVE SMOOTH",
"108 571 OFFCURVE",
"150 613 OFFCURVE",
"216 613 CURVE SMOOTH"
);
},
{
closed = 1;
nodes = (
"53 222 LINE",
"53 169 LINE",
"380 169 LINE",
"380 222 LINE"
);
}
);
width = 432;
}
);
unicode = 00BA;
},
{
glyphname = pi;
lastChange = "2014-08-25 10:38:23 +0100";
layers = (
{
layerId = "90FEB760-6DE5-46E5-A8E9-582C63BAB3AD";
name = Regular;
paths = (
{
closed = 1;
nodes = (
"688 500 LINE",
"24 500 LINE",
"24 433 LINE",
"688 433 LINE"
);
},
{
closed = 1;
nodes = (
"160 500 LINE",
"160 0 LINE",
"240 0 LINE",
"240 500 LINE"
);
},
{
closed = 1;
nodes = (
"456 500 LINE",
"456 125 LINE SMOOTH",
"456 30 OFFCURVE",
"503 0 OFFCURVE",
"629 0 CURVE",
"645 67 LINE",
"569 67 OFFCURVE",
"536 83 OFFCURVE",
"536 136 CURVE SMOOTH",
"536 500 LINE"
);
}
);
width = 714;
}
);
unicode = 03C0;
},
{
glyphname = kadeva;
lastChange = "2014-08-25 10:38:23 +0100";
layers = (
{
anchors = (
{
name = DVAnchor0;
position = "{449, 0}";
},
{
name = DVAnchor3;
position = "{449, 660}";
}
);
layerId = "90FEB760-6DE5-46E5-A8E9-582C63BAB3AD";
name = Regular;
paths = (
{
closed = 1;
nodes = (
"414 627 LINE",
"414 0 LINE",
"484 0 LINE",
"484 627 LINE"
);
},
{
closed = 1;
nodes = (
"137.09 495 OFFCURVE",
"61 417.947 OFFCURVE",
"61 299 CURVE SMOOTH",
"61 198.286 OFFCURVE",
"146.863 124 OFFCURVE",
"240 124 CURVE SMOOTH",
"354.813 124 OFFCURVE",
"407.508 168.856 OFFCURVE",
"446 275 CURVE",
"414 298 LINE",
"383.489 235.158 OFFCURVE",
"337.012 184 OFFCURVE",
"262 184 CURVE SMOOTH",
"192.455 184 OFFCURVE",
"129 227.361 OFFCURVE",
"129 311 CURVE SMOOTH",
"129 396.662 OFFCURVE",
"187.475 436 OFFCURVE",
"246 436 CURVE SMOOTH",
"279.488 436 OFFCURVE",
"297.298 427.075 OFFCURVE",
"311.051 413.341 CURVE",
"338.729 461.148 LINE",
"314.325 484.623 OFFCURVE",
"290.214 495 OFFCURVE",
"245 495 CURVE SMOOTH"
);
},
{
closed = 1;
nodes = (
"748.02 123 OFFCURVE",
"827 197.164 OFFCURVE",
"827 320 CURVE SMOOTH",
"827 427.706 OFFCURVE",
"744.145 499 OFFCURVE",
"648 499 CURVE SMOOTH",
"548.865 499 OFFCURVE",
"488 451 OFFCURVE",
"451 347 CURVE",
"484 324 LINE",
"512 385 OFFCURVE",
"559.956 439 OFFCURVE",
"635 439 CURVE SMOOTH",
"707.945 439 OFFCURVE",
"759 392.2 OFFCURVE",
"759 307 CURVE SMOOTH",
"759 227.705 OFFCURVE",
"705.854 182 OFFCURVE",
"654 182 CURVE SMOOTH",
"623.792 182 OFFCURVE",
"606.468 191.84 OFFCURVE",
"591.401 205.715 CURVE",
"563.282 150.328 LINE",
"585.749 132.412 OFFCURVE",
"609.062 123 OFFCURVE",
"653 123 CURVE SMOOTH"
);
},
{
closed = 1;
nodes = (
"-15 660 LINE",
"-15 604 LINE",
"901 604 LINE",
"901 660 LINE"
);
}
);
width = 886;
}
);
unicode = 0915;
},
{
glyphname = khadeva;
lastChange = "2014-08-25 10:38:23 +0100";
layers = (
{
anchors = (
{
name = DVAnchor0;
position = "{767, 0}";
},
{
name = DVAnchor3;
position = "{767, 660}";
}
);
layerId = "90FEB760-6DE5-46E5-A8E9-582C63BAB3AD";
name = Regular;
paths = (
{
closed = 1;
nodes = (
"732 627 LINE",
"732 5 LINE",
"802 5 LINE",
"802 627 LINE"
);
},
{
closed = 1;
nodes = (
"-15 660 LINE",
"-15 604 LINE",
"931 604 LINE",
"931 660 LINE"
);
},
{
closed = 1;
nodes = (
"474.985 516 OFFCURVE",
"408 452.842 OFFCURVE",
"408 356 CURVE SMOOTH",
"408 259.093 OFFCURVE",
"473.049 195 OFFCURVE",
"571 195 CURVE SMOOTH",
"676 195 OFFCURVE",
"731 263 OFFCURVE",
"768 344 CURVE",
"732 364 LINE",
"699.561 301.538 OFFCURVE",
"651.227 255 OFFCURVE",
"582 255 CURVE SMOOTH",
"515.969 255 OFFCURVE",
"476 293.889 OFFCURVE",
"476 359 CURVE SMOOTH",
"476 417.027 OFFCURVE",
"511.77 453.882 OFFCURVE",
"566.717 456.992 CURVE SMOOTH",
"597.194 458.897 OFFCURVE",
"619.226 448.904 OFFCURVE",
"634.761 431.225 CURVE",
"664.956 473.163 LINE",
"649.054 496.979 OFFCURVE",
"619.829 516 OFFCURVE",
"578 516 CURVE SMOOTH"
);
},
{
closed = 1;
nodes = (
"107.41 303.849 OFFCURVE",
"172.812 271.017 OFFCURVE",
"242.74 306.46 CURVE SMOOTH",
"292.073 331.61 OFFCURVE",
"311 377.981 OFFCURVE",
"311 456 CURVE SMOOTH",
"311 632 LINE",
"241 632 LINE",
"241 456 LINE SMOOTH",
"241 394.323 OFFCURVE",
"232.151 362.245 OFFCURVE",
"198.805 349.337 CURVE SMOOTH",
"159.339 333.145 OFFCURVE",
"115.519 363.499 OFFCURVE",
"92.79 408.812 CURVE",
"72.793 385.112 LINE"
);
},
{
closed = 1;
nodes = (
"663.43 91.667 OFFCURVE",
"564.604 65 OFFCURVE",
"502 65 CURVE SMOOTH",
"306.257 65 OFFCURVE",
"174.75 213.987 OFFCURVE",
"91.332 411.437 CURVE",
"34.519 387.334 LINE",
"128.281 162.605 OFFCURVE",
"276.652 5 OFFCURVE",
"495 5 CURVE SMOOTH",
"619.209 5 OFFCURVE",
"694.671 40.976 OFFCURVE",
"766 140 CURVE",
"732 169 LINE"
);
}
);
width = 917;
}
);
unicode = 0916;
},
{
glyphname = ddadeva;
lastChange = "2014-08-25 10:38:23 +0100";
layers = (
{
anchors = (
{
name = DVAnchor0;
position = "{355, 45}";
},
{
name = DVAnchor3;
position = "{490, 660}";
}
);
layerId = "90FEB760-6DE5-46E5-A8E9-582C63BAB3AD";
name = Regular;
paths = (
{
closed = 1;
nodes = (
"-15 660 LINE",
"-15 604 LINE",
"663 604 LINE",
"663 660 LINE"
);
},
{
closed = 1;
nodes = (
"455 627 LINE",
"455 441 LINE",
"525 441 LINE",
"525 627 LINE"
);
},
{
closed = 1;
nodes = (
"266 497 LINE SMOOTH",
"181.573 497 OFFCURVE",
"144 443 OFFCURVE",
"144 376 CURVE SMOOTH",
"144 289 OFFCURVE",
"228 235 OFFCURVE",
"315 235 CURVE SMOOTH",
"384 235 OFFCURVE",
"430 262 OFFCURVE",
"465 262 CURVE SMOOTH",
"498 262 OFFCURVE",
"520 239 OFFCURVE",
"520 200 CURVE SMOOTH",
"520 120 OFFCURVE",
"450 73 OFFCURVE",
"324 73 CURVE SMOOTH",
"224 73 OFFCURVE",
"129 122 OFFCURVE",
"87 224 CURVE",
"38 193 LINE",
"90 71 OFFCURVE",
"197 15 OFFCURVE",
"326 15 CURVE SMOOTH",
"454 15 OFFCURVE",
"584 57 OFFCURVE",
"584 199 CURVE SMOOTH",
"584 280 OFFCURVE",
"525 328 OFFCURVE",
"484 328 CURVE SMOOTH",
"429 328 OFFCURVE",
"383 298 OFFCURVE",
"325 298 CURVE SMOOTH",
"273 298 OFFCURVE",
"210 321 OFFCURVE",
"210 379 CURVE SMOOTH",
"210 423 OFFCURVE",
"235.458 441 OFFCURVE",
"271 441 CURVE SMOOTH",
"488 441 LINE",
"488 497 LINE"
);
}
);
width = 648;
}
);
unicode = 0921;
},
{
glyphname = tadeva;
lastChange = "2014-08-25 10:38:23 +0100";
layers = (
{
anchors = (
{
name = DVAnchor3;
position = "{509, 660}";
}
);
layerId = "90FEB760-6DE5-46E5-A8E9-582C63BAB3AD";
name = Regular;
paths = (
{
closed = 1;
nodes = (
"170 111 OFFCURVE",
"122 189 OFFCURVE",
"122 267 CURVE SMOOTH",
"122 343.746 OFFCURVE",
"159.588 391 OFFCURVE",
"258 391 CURVE SMOOTH",
"502 391 LINE",
"502 447 LINE",
"234 447 LINE SMOOTH",
"113.094 447 OFFCURVE",
"53 385.952 OFFCURVE",
"53 280 CURVE SMOOTH",
"53 137 OFFCURVE",
"137 54 OFFCURVE",
"283 0 CURVE",
"318 53 LINE"
);
},
{
closed = 1;
nodes = (
"474 627 LINE",
"474 0 LINE",
"544 0 LINE",
"544 627 LINE"
);
},
{
closed = 1;
nodes = (
"-15 660 LINE",
"-15 604 LINE",
"674 604 LINE",
"674 660 LINE"
);
}
);
width = 659;
}
);
unicode = 0924;
},
{
glyphname = thadeva;
lastChange = "2014-08-25 10:38:23 +0100";
layers = (
{
anchors = (
{
name = DVAnchor3;
position = "{566, 660}";
}
);
layerId = "90FEB760-6DE5-46E5-A8E9-582C63BAB3AD";
name = Regular;
paths = (
{
closed = 1;
nodes = (
"125 665 OFFCURVE",
"68 611 OFFCURVE",
"68 532 CURVE SMOOTH",
"68 493 OFFCURVE",
"87 457 OFFCURVE",
"120 433 CURVE",
"169 453 LINE",
"148 474 OFFCURVE",
"136 500 OFFCURVE",
"136 534 CURVE SMOOTH",
"136 567 OFFCURVE",
"166 605 OFFCURVE",
"220 605 CURVE SMOOTH",
"276 605 OFFCURVE",
"305 570 OFFCURVE",
"305 514 CURVE SMOOTH",
"305 428 OFFCURVE",
"236 374 OFFCURVE",
"36 334 CURVE",
"59 169 OFFCURVE",
"159.679 110 OFFCURVE",
"303 110 CURVE SMOOTH",
"460.014 110 OFFCURVE",
"543 192 OFFCURVE",
"573 307 CURVE",
"531 324 LINE",
"504 235 OFFCURVE",
"414.488 170 OFFCURVE",
"307 170 CURVE SMOOTH",
"189.228 170 OFFCURVE",
"112 233 OFFCURVE",
"106 293 CURVE",
"304 339 OFFCURVE",
"372 425 OFFCURVE",
"372 515 CURVE SMOOTH",
"372 598 OFFCURVE",
"328 665 OFFCURVE",
"224 665 CURVE SMOOTH"
);
},
{
closed = 1;
nodes = (
"531 627 LINE",
"531 0 LINE",
"601 0 LINE",
"601 627 LINE"
);
},
{
closed = 1;
nodes = (
"446 660 LINE",
"446 604 LINE",
"730 604 LINE",
"730 660 LINE"
);
}
);
width = 715;
}
);
unicode = 0925;
},
{
glyphname = dadeva;
lastChange = "2014-08-25 10:38:23 +0100";
layers = (
{
anchors = (
{
name = DVAnchor0;
position = "{540, 7}";
},
{
name = DVAnchor3;
position = "{436, 660}";
}
);
layerId = "90FEB760-6DE5-46E5-A8E9-582C63BAB3AD";
name = Regular;
paths = (
{
closed = 1;
nodes = (
"133.507 477 OFFCURVE",
"48 417 OFFCURVE",
"48 291 CURVE SMOOTH",
"48 174 OFFCURVE",
"140 102 OFFCURVE",
"260 102 CURVE SMOOTH",
"391 102 OFFCURVE",
"443 139 OFFCURVE",
"483 181 CURVE SMOOTH",
"519 218 OFFCURVE",
"518 285 OFFCURVE",
"462 300 CURVE SMOOTH",
"413 314 OFFCURVE",
"371 261 OFFCURVE",
"391 190 CURVE",
"346 168 OFFCURVE",
"321 162 OFFCURVE",
"267 162 CURVE SMOOTH",
"192 162 OFFCURVE",
"118 200 OFFCURVE",
"118 296 CURVE SMOOTH",
"118 371 OFFCURVE",
"168.126 418 OFFCURVE",
"264 418 CURVE SMOOTH",
"471 418 LINE",
"471 477 LINE",
"242 477 LINE SMOOTH"
);
},
{
closed = 1;
nodes = (
"401 627 LINE",
"401 449 LINE",
"471 449 LINE",
"471 627 LINE"
);
},
{
closed = 1;
nodes = (
"-15 660 LINE",
"-15 604 LINE",
"608 604 LINE",
"608 660 LINE"
);
},
{
closed = 1;
nodes = (
"403 141 LINE",
"425 81 OFFCURVE",
"446 32 OFFCURVE",
"489 -42 CURVE",
"563 -26 LINE",
"512 42 OFFCURVE",
"465 100 OFFCURVE",
"438 185 CURVE"
);
}
);
width = 593;
}
);
unicode = 0926;
},
{
glyphname = dhadeva;
lastChange = "2014-08-25 10:38:23 +0100";
layers = (
{
anchors = (
{
name = DVAnchor3;
position = "{554, 660}";
}
);
layerId = "90FEB760-6DE5-46E5-A8E9-582C63BAB3AD";
name = Regular;
paths = (
{
closed = 1;
nodes = (
"210 426 OFFCURVE",
"85 391 OFFCURVE",
"85 262 CURVE SMOOTH",
"85 158 OFFCURVE",
"168 108 OFFCURVE",
"283 108 CURVE SMOOTH",
"408 108 OFFCURVE",
"517 168 OFFCURVE",
"579 239 CURVE",
"539 267 LINE",
"472 201 OFFCURVE",
"398 168 OFFCURVE",
"293 168 CURVE SMOOTH",
"195 168 OFFCURVE",
"151 205 OFFCURVE",
"151 266 CURVE SMOOTH",
"151 348 OFFCURVE",
"228 373 OFFCURVE",
"328 374 CURVE",
"311 427 LINE"
);
},
{
closed = 1;
nodes = (
"539 627 LINE",
"539 0 LINE",
"609 0 LINE",
"609 627 LINE"
);
},
{
closed = 1;
nodes = (
"408 660 LINE",
"408 604 LINE",
"738 604 LINE",
"738 660 LINE"
);
},
{
closed = 1;
nodes = (
"134 665 OFFCURVE",
"77 604 OFFCURVE",
"77 526 CURVE SMOOTH",
"77 426 OFFCURVE",
"193 376 OFFCURVE",
"328 374 CURVE",
"311 427 LINE",
"204 428 OFFCURVE",
"144 473 OFFCURVE",
"144 531 CURVE SMOOTH",
"144 571 OFFCURVE",
"174 605 OFFCURVE",
"218 605 CURVE SMOOTH",
"263 605 OFFCURVE",
"286 568 OFFCURVE",
"284 531 CURVE",
"335 554 LINE",
"344 631 OFFCURVE",
"298 665 OFFCURVE",
"224 665 CURVE SMOOTH"
);
}
);
width = 723;
}
);
unicode = 0927;
},
{
glyphname = padeva;
lastChange = "2014-08-25 10:38:23 +0100";
layers = (
{
anchors = (
{
name = DVAnchor3;
position = "{488, 660}";
}
);
layerId = "90FEB760-6DE5-46E5-A8E9-582C63BAB3AD";
name = Regular;
paths = (
{
closed = 1;
nodes = (
"98 627 LINE",
"98 339 LINE SMOOTH",
"98 225.694 OFFCURVE",
"176.498 174 OFFCURVE",
"270 174 CURVE SMOOTH",
"385 174 OFFCURVE",
"457.013 228.702 OFFCURVE",
"493 347 CURVE",
"453 368 LINE",
"424.354 288.496 OFFCURVE",
"363.222 234 OFFCURVE",
"293 234 CURVE SMOOTH",
"214.303 234 OFFCURVE",
"168 269.534 OFFCURVE",
"168 366 CURVE SMOOTH",
"168 627 LINE"
);
},
{
closed = 1;
nodes = (
"453 627 LINE",
"453 0 LINE",
"523 0 LINE",
"523 627 LINE"
);
},
{
closed = 1;
nodes = (
"-15 660 LINE",
"-15 604 LINE",
"652 604 LINE",
"652 660 LINE"
);
}
);
width = 637;
}
);
unicode = 092A;
},
{
glyphname = bhadeva;
lastChange = "2014-08-25 10:38:23 +0100";
layers = (
{
anchors = (
{
name = DVAnchor3;
position = "{580, 660}";
}
);
layerId = "90FEB760-6DE5-46E5-A8E9-582C63BAB3AD";
name = Regular;
paths = (
{
closed = 1;
nodes = (
"545 627 LINE",
"545 0 LINE",
"615 0 LINE",
"615 627 LINE"
);
},
{
closed = 1;
nodes = (
"404 660 LINE",
"404 604 LINE",
"746 604 LINE",
"746 660 LINE"
);
},
{
closed = 1;
nodes = (
"545 627 LINE",
"545 0 LINE",
"615 0 LINE",
"615 627 LINE"
);
},
{
closed = 1;
nodes = (
"404 660 LINE",
"404 604 LINE",
"746 604 LINE",
"746 660 LINE"
);
},
{
closed = 1;
nodes = (
"291 617 OFFCURVE",
"244 660 OFFCURVE",
"167 660 CURVE SMOOTH",
"95 660 OFFCURVE",
"39 621 OFFCURVE",
"39 548 CURVE SMOOTH",
"39 488 OFFCURVE",
"78 439 OFFCURVE",
"148 438 CURVE",
"169 488 LINE",
"122 490 OFFCURVE",
"100 512 OFFCURVE",
"100 542 CURVE SMOOTH",
"100 570 OFFCURVE",
"123 596 OFFCURVE",
"160 596 CURVE SMOOTH",
"206 596 OFFCURVE",
"221 571 OFFCURVE",
"221 509 CURVE SMOOTH",
"221 310 LINE SMOOTH",
"221 295.807 OFFCURVE",
"265.167 292.863 OFFCURVE",
"259.877 297.096 CURVE SMOOTH",
"254.66 301.269 OFFCURVE",
"249.304 306.625 OFFCURVE",
"244.159 312.799 CURVE SMOOTH",
"241.704 315.744 OFFCURVE",
"246.488 279 OFFCURVE",
"254 279 CURVE SMOOTH",
"572 279 LINE",
"572 335 LINE",
"197 335 LINE SMOOTH",
"164.703 335 OFFCURVE",
"136.203 294.874 OFFCURVE",
"153.089 270.877 CURVE SMOOTH",
"166.826 251.253 OFFCURVE",
"204.35 214.717 OFFCURVE",
"222.201 199.841 CURVE SMOOTH",
"247.686 178.907 OFFCURVE",
"291 198.375 OFFCURVE",
"291 227 CURVE SMOOTH",
"291 508 LINE SMOOTH"
);
}
);
width = 731;
}
);
unicode = 092D;
},
{
glyphname = vadeva;
lastChange = "2014-08-25 10:38:23 +0100";
layers = (
{
anchors = (
{
name = DVAnchor3;
position = "{477, 660}";
}
);
layerId = "90FEB760-6DE5-46E5-A8E9-582C63BAB3AD";
name = Regular;
paths = (
{
closed = 1;
nodes = (
"144.881 500 OFFCURVE",
"59 424.734 OFFCURVE",
"59 310 CURVE SMOOTH",
"59 192.266 OFFCURVE",
"144.881 117 OFFCURVE",
"257 117 CURVE SMOOTH",
"382.861 117 OFFCURVE",
"439.993 189.41 OFFCURVE",
"480 309 CURVE",
"442 322 LINE",
"404.414 230.387 OFFCURVE",
"348.63 177 OFFCURVE",
"264 177 CURVE SMOOTH",
"194.436 177 OFFCURVE",
"129 222.383 OFFCURVE",
"129 312 CURVE SMOOTH",
"129 395.573 OFFCURVE",
"188.398 438 OFFCURVE",
"250 438 CURVE SMOOTH",
"285.57 438 OFFCURVE",
"307.801 422.38 OFFCURVE",
"322.352 403.911 CURVE",
"364.483 451.201 LINE",
"342.075 479.003 OFFCURVE",
"310.171 500 OFFCURVE",
"252 500 CURVE SMOOTH"
);
},
{
closed = 1;
nodes = (
"442 627 LINE",
"442 0 LINE",
"512 0 LINE",
"512 627 LINE"
);
},
{
closed = 1;
nodes = (
"-15 660 LINE",
"-15 604 LINE",
"641 604 LINE",
"641 660 LINE"
);
}
);
width = 626;
}
);
unicode = 0935;
},
{
glyphname = ddadeva_viramadeva_ddadeva;
lastChange = "2014-08-25 10:38:23 +0100";
layers = (
{
anchors = (
{
name = DVAnchor0;
position = "{360, -113}";
}
);
layerId = "90FEB760-6DE5-46E5-A8E9-582C63BAB3AD";
name = Regular;
paths = (
{
closed = 1;
nodes = (
"-20 660 LINE",
"-20 594 LINE",
"690 594 LINE",
"690 660 LINE"
);
},
{
closed = 1;
nodes = (
"487 627 LINE",
"487 456 LINE",
"567 456 LINE",
"567 627 LINE"
);
},
{
closed = 1;
nodes = (
"215 197 LINE",
"166 195 OFFCURVE",
"122 165 OFFCURVE",
"122 113 CURVE SMOOTH",
"122 32 OFFCURVE",
"217 -3 OFFCURVE",
"295 -3 CURVE SMOOTH",
"375 -3 OFFCURVE",
"458 26 OFFCURVE",
"492 26 CURVE SMOOTH",
"523 26 OFFCURVE",
"536 19 OFFCURVE",
"535 -13 CURVE SMOOTH",
"534 -52 OFFCURVE",
"468 -90 OFFCURVE",
"356 -90 CURVE SMOOTH",
"215 -90 OFFCURVE",
"133 -53 OFFCURVE",
"80 41 CURVE",
"29 1 LINE",
"88 -88 OFFCURVE",
"174 -153 OFFCURVE",
"358 -153 CURVE SMOOTH",
"494 -153 OFFCURVE",
"606 -102 OFFCURVE",
"606 4 CURVE SMOOTH",
"606 87 OFFCURVE",
"554 99 OFFCURVE",
"511 99 CURVE SMOOTH",
"455 99 OFFCURVE",
"372 67 OFFCURVE",
"315 67 CURVE SMOOTH",
"236 67 OFFCURVE",
"196 92 OFFCURVE",
"196 121 CURVE SMOOTH",
"196 141 OFFCURVE",
"212 160 OFFCURVE",
"264 164 CURVE"
);
},
{
closed = 1;
nodes = (
"253 522 LINE SMOOTH",
"166 522 OFFCURVE",
"126 473 OFFCURVE",
"126 418 CURVE SMOOTH",
"126 326 OFFCURVE",
"217 291 OFFCURVE",
"295 291 CURVE SMOOTH",
"375 291 OFFCURVE",
"458 320 OFFCURVE",
"492 320 CURVE SMOOTH",
"523 320 OFFCURVE",
"536 313 OFFCURVE",
"535 281 CURVE SMOOTH",
"534 242 OFFCURVE",
"468 204 OFFCURVE",
"356 204 CURVE SMOOTH",
"215 204 OFFCURVE",
"133 241 OFFCURVE",
"80 335 CURVE",
"29 295 LINE",
"88 206 OFFCURVE",
"174 141 OFFCURVE",
"358 141 CURVE SMOOTH",
"494 141 OFFCURVE",
"606 192 OFFCURVE",
"606 298 CURVE SMOOTH",
"606 381 OFFCURVE",
"554 393 OFFCURVE",
"511 393 CURVE SMOOTH",
"455 393 OFFCURVE",
"372 361 OFFCURVE",
"315 361 CURVE SMOOTH",
"259 361 OFFCURVE",
"206 378 OFFCURVE",
"206 414 CURVE SMOOTH",
"206 443 OFFCURVE",
"224 456 OFFCURVE",
"258 456 CURVE SMOOTH",
"530 456 LINE",
"530 522 LINE"
);
}
);
width = 670;
}
);
},
{
glyphname = adeva;
lastChange = "2014-08-25 10:38:23 +0100";
layers = (
{
anchors = (
{
name = DVAnchor3;
position = "{638, 660}";
}
);
layerId = "90FEB760-6DE5-46E5-A8E9-582C63BAB3AD";
name = Regular;
paths = (
{
closed = 1;
nodes = (
"203 325.975 LINE",
"332.44 324.658 OFFCURVE",
"377 267 OFFCURVE",
"377 200 CURVE SMOOTH",
"377 141 OFFCURVE",
"345 93 OFFCURVE",
"258 93 CURVE SMOOTH",
"192 93 OFFCURVE",
"114 120 OFFCURVE",
"102 217 CURVE",
"43 192 LINE",
"72 74 OFFCURVE",
"169 33 OFFCURVE",
"242 33 CURVE SMOOTH",
"370 33 OFFCURVE",
"446 91 OFFCURVE",
"446 201 CURVE SMOOTH",
"446 300 OFFCURVE",
"350.759 363.688 OFFCURVE",
"203 364.978 CURVE"
);
},
{
closed = 1;
nodes = (
"184 660 OFFCURVE",
"116 617 OFFCURVE",
"107 556 CURVE",
"166 533 LINE",
"177 575 OFFCURVE",
"195 600 OFFCURVE",
"256 600 CURVE SMOOTH",
"327 600 OFFCURVE",
"352 560 OFFCURVE",
"352 508 CURVE SMOOTH",
"352 445 OFFCURVE",
"321.859 381.61 OFFCURVE",
"203 380.033 CURVE",
"203 344.023 LINE",
"346.118 345.323 OFFCURVE",
"422 408 OFFCURVE",
"422 506 CURVE SMOOTH",
"422 610 OFFCURVE",
"353 660 OFFCURVE",
"258 660 CURVE SMOOTH"
);
},
{
closed = 1;
nodes = (
"203 330.971 LINE",
"325.946 329.542 OFFCURVE",
"424.188 276 OFFCURVE",
"491 276 CURVE SMOOTH",
"547.801 276 OFFCURVE",
"593.762 285.235 OFFCURVE",
"638.07 303.9 CURVE",
"624.613 355.204 LINE",
"583.07 338.475 OFFCURVE",
"542.517 330 OFFCURVE",
"495 330 CURVE SMOOTH",
"434.717 330 OFFCURVE",
"348.984 364.218 OFFCURVE",
"203 364.987 CURVE"
);
},
{
closed = 1;
nodes = (
"603 627 LINE",
"603 0 LINE",
"673 0 LINE",
"673 627 LINE"
);
},
{
closed = 1;
nodes = (
"472 660 LINE",
"472 604 LINE",
"804 604 LINE",
"804 660 LINE"
);
}
);
width = 789;
}
);
unicode = 0905;
},
{
color = 0;
glyphname = ideva;
lastChange = "2014-08-25 10:38:23 +0100";
layers = (
{
anchors = (
{
name = DVAnchor3;
position = "{413, 660}";
}
);
layerId = "90FEB760-6DE5-46E5-A8E9-582C63BAB3AD";
name = Regular;
paths = (
{
closed = 1;
nodes = (
"-15 660 LINE",
"-15 604 LINE",
"585 604 LINE",
"585 660 LINE"
);
},
{
closed = 1;
nodes = (
"378 627 LINE",
"378 441 LINE",
"448 441 LINE",
"448 627 LINE"
);
},
{
closed = 1;
nodes = (
"189 497 LINE SMOOTH",
"104.573 497 OFFCURVE",
"67 444.398 OFFCURVE",
"67 377 CURVE SMOOTH",
"67 289.752 OFFCURVE",
"153.45 235 OFFCURVE",
"240 235 CURVE SMOOTH",
"308.588 235 OFFCURVE",
"352.588 262 OFFCURVE",
"388 262 CURVE SMOOTH",
"420.992 262 OFFCURVE",
"443 241.151 OFFCURVE",
"443 202 CURVE SMOOTH",
"443 122.447 OFFCURVE",
"382 73 OFFCURVE",
"265 73 CURVE SMOOTH",
"213 73 OFFCURVE",
"178 81 OFFCURVE",
"145 102 CURVE SMOOTH",
"93 134 OFFCURVE",
"70 109 OFFCURVE",
"115 69 CURVE SMOOTH",
"181 5 OFFCURVE",
"285 -145 OFFCURVE",
"401 -121 CURVE",
"425 -70 LINE",
"288 -89 OFFCURVE",
"157 123 OFFCURVE",
"130 154 CURVE SMOOTH",
"67 215 OFFCURVE",
"-1 129 OFFCURVE",
"59 76 CURVE SMOOTH",
"109 31 OFFCURVE",
"148 15 OFFCURVE",
"265 15 CURVE SMOOTH",
"359 15 OFFCURVE",
"507 58.854 OFFCURVE",
"507 201 CURVE SMOOTH",
"507 281.579 OFFCURVE",
"448.263 328 OFFCURVE",
"407 328 CURVE SMOOTH",
"352.486 328 OFFCURVE",
"306 298 OFFCURVE",
"248 298 CURVE SMOOTH",
"196.098 298 OFFCURVE",
"133 321.528 OFFCURVE",
"133 380 CURVE SMOOTH",
"133 423.643 OFFCURVE",
"158.458 441 OFFCURVE",
"194 441 CURVE SMOOTH",
"411 441 LINE",
"411 497 LINE"
);
}
);
width = 570;
}
);
unicode = 0907;
userData = {
com.typemytype.robofont.layerData = {
};
};
},
{
glyphname = edeva;
lastChange = "2014-08-25 10:38:23 +0100";
layers = (
{
anchors = (
{
name = DVAnchor3;
position = "{310, 660}";
}
);
guideLines = (
{
angle = 90;
position = "{498, 209}";
}
);
layerId = "90FEB760-6DE5-46E5-A8E9-582C63BAB3AD";
name = Regular;
paths = (
{
closed = 1;
nodes = (
"98 632 LINE",
"98 264 LINE SMOOTH",
"98 209.935 OFFCURVE",
"115.993 163.532 OFFCURVE",
"196.364 120.406 CURVE SMOOTH",
"379.319 22.43 OFFCURVE",
"425 -5 OFFCURVE",
"425 -45 CURVE SMOOTH",
"425 -74 OFFCURVE",
"404 -96 OFFCURVE",
"384 -114 CURVE",
"435 -143 LINE",
"471 -117 OFFCURVE",
"493 -83 OFFCURVE",
"493 -40 CURVE SMOOTH",
"493 10 OFFCURVE",
"467.431 59.147 OFFCURVE",
"264.889 153.467 CURVE SMOOTH",
"175.512 195.588 OFFCURVE",
"169 233.575 OFFCURVE",
"169 289 CURVE",
"168 632 LINE"
);
},
{
closed = 1;
nodes = (
"-15 660 LINE",
"-15 604 LINE",
"616 604 LINE",
"616 660 LINE"
);
},
{
closed = 1;
nodes = (
"330.618 243.576 LINE",
"398.671 235.794 OFFCURVE",
"493 291.917 OFFCURVE",
"493 431 CURVE SMOOTH",
"493 517.016 OFFCURVE",
"452 594 OFFCURVE",
"385 623 CURVE",
"300 613 LINE",
"385 585 OFFCURVE",
"433 525.894 OFFCURVE",
"433 438 CURVE SMOOTH",
"433 338.315 OFFCURVE",
"381.478 292.172 OFFCURVE",
"311.396 294.557 CURVE"
);
}
);
width = 601;
}
);
unicode = 090F;
},
{
glyphname = aasigndeva;
lastChange = "2014-08-25 10:38:23 +0100";
layers = (
{
layerId = "90FEB760-6DE5-46E5-A8E9-582C63BAB3AD";
name = Regular;
paths = (
{
closed = 1;
nodes = (
"116 627 LINE",
"116 0 LINE",
"186 0 LINE",
"186 627 LINE"
);
},
{
closed = 1;
nodes = (
"-15 660 LINE",
"-15 604 LINE",
"317 604 LINE",
"317 660 LINE"
);
}
);
width = 302;
}
);
unicode = 093E;
},
{
glyphname = zero;
lastChange = "2014-08-25 10:38:23 +0100";
layers = (
{
layerId = "90FEB760-6DE5-46E5-A8E9-582C63BAB3AD";
name = Regular;
paths = (
{
closed = 1;
nodes = (
"142 670 OFFCURVE",
"56 551 OFFCURVE",
"56 330 CURVE SMOOTH",
"56 109 OFFCURVE",
"142 -10 OFFCURVE",
"302 -10 CURVE SMOOTH",
"462 -10 OFFCURVE",
"548 109 OFFCURVE",
"548 330 CURVE SMOOTH",
"548 551 OFFCURVE",
"462 670 OFFCURVE",
"302 670 CURVE SMOOTH"
);
},
{
closed = 1;
nodes = (
"407 595 OFFCURVE",
"464 502 OFFCURVE",
"464 330 CURVE SMOOTH",
"464 158 OFFCURVE",
"407 65 OFFCURVE",
"302 65 CURVE SMOOTH",
"197 65 OFFCURVE",
"140 158 OFFCURVE",
"140 330 CURVE SMOOTH",
"140 502 OFFCURVE",
"197 595 OFFCURVE",
"302 595 CURVE SMOOTH"
);
}
);
width = 604;
}
);
unicode = 0030;
},
{
glyphname = one;
lastChange = "2014-08-25 10:38:23 +0100";
layers = (
{
layerId = "90FEB760-6DE5-46E5-A8E9-582C63BAB3AD";
name = Regular;
paths = (
{
closed = 1;
nodes = (
"241 660 LINE",
"231 506 LINE",
"231 0 LINE",
"311 0 LINE",
"311 506 LINE",
"311 660 LINE"
);
},
{
closed = 1;
nodes = (
"204 609 OFFCURVE",
"98 550 OFFCURVE",
"51 544 CURVE",
"51 463 LINE",
"145 472 OFFCURVE",
"251 555 OFFCURVE",
"286 634 CURVE",
"241 660 LINE"
);
}
);
width = 421;
}
);
unicode = 0031;
},
{
glyphname = two;
lastChange = "2014-08-25 10:38:23 +0100";
layers = (
{
layerId = "90FEB760-6DE5-46E5-A8E9-582C63BAB3AD";
name = Regular;
paths = (
{
closed = 1;
nodes = (
"155 670 OFFCURVE",
"76 589 OFFCURVE",
"59 474 CURVE",
"129 432 LINE",
"138 531 OFFCURVE",
"195 595 OFFCURVE",
"286 595 CURVE SMOOTH",
"372 595 OFFCURVE",
"426 541 OFFCURVE",
"426 463 CURVE SMOOTH",
"426 346 OFFCURVE",
"294 259 OFFCURVE",
"65 65 CURVE",
"111 23 LINE",
"353 212 OFFCURVE",
"510 306 OFFCURVE",
"510 463 CURVE SMOOTH",
"510 585 OFFCURVE",
"424 670 OFFCURVE",
"289 670 CURVE SMOOTH"
);
},
{
closed = 1;
nodes = (
"248 75 LINE",
"65 65 LINE",
"65 0 LINE",
"248 0 LINE",
"524 0 LINE",
"524 75 LINE"
);
}
);
width = 567;
}
);
unicode = 0032;
},
{
glyphname = three;
lastChange = "2014-08-25 10:38:23 +0100";
layers = (
{
layerId = "90FEB760-6DE5-46E5-A8E9-582C63BAB3AD";
name = Regular;
paths = (
{
closed = 1;
nodes = (
"222 334 LINE",
"222 295 LINE",
"248 295 LINE SMOOTH",
"349 295 OFFCURVE",
"399 268 OFFCURVE",
"400 187 CURVE SMOOTH",
"401 117 OFFCURVE",
"350 65 OFFCURVE",
"257 65 CURVE SMOOTH",
"159 65 OFFCURVE",
"122 113 OFFCURVE",
"101 189 CURVE",
"23 148 LINE",
"64 45 OFFCURVE",
"139 -10 OFFCURVE",
"251 -10 CURVE SMOOTH",
"392 -10 OFFCURVE",
"483 70 OFFCURVE",
"483 177 CURVE SMOOTH",
"483 253 OFFCURVE",
"441 334 OFFCURVE",
"336 334 CURVE SMOOTH"
);
},
{
closed = 1;
nodes = (
"161 670 OFFCURVE",
"80 615 OFFCURVE",
"48 529 CURVE",
"123 494 LINE",
"139 555 OFFCURVE",
"183 595 OFFCURVE",
"263 595 CURVE SMOOTH",
"342 595 OFFCURVE",
"386 556 OFFCURVE",
"385 479 CURVE SMOOTH",
"384 405 OFFCURVE",
"337 370 OFFCURVE",
"248 370 CURVE SMOOTH",
"222 370 LINE",
"222 334 LINE",
"336 334 LINE SMOOTH",
"419 334 OFFCURVE",
"468 413 OFFCURVE",
"468 498 CURVE SMOOTH",
"468 589 OFFCURVE",
"397 670 OFFCURVE",
"262 670 CURVE SMOOTH"
);
}
);
width = 546;
}
);
unicode = 0033;
},
{
glyphname = four;
lastChange = "2014-08-25 10:38:23 +0100";
layers = (
{
layerId = "90FEB760-6DE5-46E5-A8E9-582C63BAB3AD";
name = Regular;
paths = (
{
closed = 1;
nodes = (
"342 660 LINE",
"253 532 LINE",
"106 320 LINE",
"44 232 LINE",
"96 201 LINE",
"157 281 LINE",
"310 496 LINE",
"405 660 LINE"
);
},
{
closed = 1;
nodes = (
"563 173 LINE",
"563 242 LINE",
"196 242 LINE",
"44 232 LINE",
"44 173 LINE",
"196 173 LINE"
);
},
{
closed = 1;
nodes = (
"44 232 LINE",
"44 173 LINE",
"563 173 LINE",
"563 242 LINE"
);
},
{
closed = 1;
nodes = (
"373 660 LINE",
"366 509 LINE",
"366 0 LINE",
"446 0 LINE",
"446 509 LINE",
"446 660 LINE"
);
}
);
width = 600;
}
);
unicode = 0034;
},
{
glyphname = five;
lastChange = "2014-08-25 10:38:23 +0100";
layers = (
{
layerId = "90FEB760-6DE5-46E5-A8E9-582C63BAB3AD";
name = Regular;
paths = (
{
closed = 1;
nodes = (
"185 423 OFFCURVE",
"128 360 OFFCURVE",
"101 284 CURVE",
"142 284 LINE",
"173 329 OFFCURVE",
"225 348 OFFCURVE",
"289 348 CURVE SMOOTH",
"378 348 OFFCURVE",
"428 299 OFFCURVE",
"429 206 CURVE SMOOTH",
"430 118 OFFCURVE",
"374 65 OFFCURVE",
"283 65 CURVE SMOOTH",
"191 65 OFFCURVE",
"155 112 OFFCURVE",
"134 182 CURVE",
"56 141 LINE",
"94 46 OFFCURVE",
"163 -10 OFFCURVE",
"286 -10 CURVE SMOOTH",
"427 -10 OFFCURVE",
"512 73 OFFCURVE",
"512 210 CURVE SMOOTH",
"512 338 OFFCURVE",
"430 423 OFFCURVE",
"304 423 CURVE SMOOTH"
);
},
{
closed = 1;
nodes = (
"111 660 LINE",
"71 284 LINE",
"142 284 LINE",
"188 660 LINE"
);
},
{
closed = 1;
nodes = (
"150 660 LINE",
"141 585 LINE",
"482 585 LINE",
"482 660 LINE"
);
}
);
width = 575;
}
);
unicode = 0035;
},
{
glyphname = six;
lastChange = "2014-08-25 10:38:23 +0100";
layers = (
{
layerId = "90FEB760-6DE5-46E5-A8E9-582C63BAB3AD";
name = Regular;
paths = (
{
closed = 1;
nodes = (
"451 -10 OFFCURVE",
"539 73 OFFCURVE",
"539 204 CURVE SMOOTH",
"539 335 OFFCURVE",
"451 418 OFFCURVE",
"317 418 CURVE SMOOTH",
"245 418 OFFCURVE",
"162 377 OFFCURVE",
"141 293 CURVE",
"133 293 LINE",
"133 473 OFFCURVE",
"202 595 OFFCURVE",
"310 595 CURVE SMOOTH",
"389 595 OFFCURVE",
"431 557 OFFCURVE",
"451 496 CURVE",
"525 531 LINE",
"484 629 OFFCURVE",
"420 670 OFFCURVE",
"315 670 CURVE SMOOTH",
"169 670 OFFCURVE",
"56 551 OFFCURVE",
"56 330 CURVE SMOOTH",
"56 119 OFFCURVE",
"146 -10 OFFCURVE",
"312 -10 CURVE SMOOTH"
);
},
{
closed = 1;
nodes = (
"225 67 OFFCURVE",
"167 122 OFFCURVE",
"167 205 CURVE SMOOTH",
"167 288 OFFCURVE",
"225 344 OFFCURVE",
"311 344 CURVE SMOOTH",
"402 344 OFFCURVE",
"455 292 OFFCURVE",
"455 205 CURVE SMOOTH",
"455 118 OFFCURVE",
"402 67 OFFCURVE",
"311 67 CURVE SMOOTH"
);
}
);
width = 606;
}
);
leftMetricsKey = zero;
unicode = 0036;
},
{
glyphname = seven;
lastChange = "2014-08-25 10:38:23 +0100";
layers = (
{
layerId = "90FEB760-6DE5-46E5-A8E9-582C63BAB3AD";
name = Regular;
paths = (
{
closed = 1;
nodes = (
"276 428 OFFCURVE",
"190 188 OFFCURVE",
"190 0 CURVE",
"279 0 LINE",
"279 188 OFFCURVE",
"357 401 OFFCURVE",
"512 585 CURVE",
"459 626 LINE"
);
},
{
closed = 1;
nodes = (
"26 660 LINE",
"26 585 LINE",
"512 585 LINE",
"512 660 LINE"
);
}
);
width = 552;
}
);
unicode = 0037;
},
{
glyphname = eight;
lastChange = "2014-08-25 10:38:23 +0100";
layers = (
{
layerId = "90FEB760-6DE5-46E5-A8E9-582C63BAB3AD";
name = Regular;
paths = (
{
closed = 1;
nodes = (
"153 367 OFFCURVE",
"58 294 OFFCURVE",
"58 178 CURVE SMOOTH",
"58 63 OFFCURVE",
"153 -10 OFFCURVE",
"297 -10 CURVE SMOOTH",
"442 -10 OFFCURVE",
"537 63 OFFCURVE",
"537 178 CURVE SMOOTH",
"537 294 OFFCURVE",
"442 367 OFFCURVE",
"297 366 CURVE SMOOTH"
);
},
{
closed = 1;
nodes = (
"392 308 OFFCURVE",
"453 262 OFFCURVE",
"454 186 CURVE SMOOTH",
"455 111 OFFCURVE",
"394 65 OFFCURVE",
"297 65 CURVE SMOOTH",
"201 65 OFFCURVE",
"140 111 OFFCURVE",
"141 186 CURVE SMOOTH",
"142 262 OFFCURVE",
"203 308 OFFCURVE",
"297 308 CURVE SMOOTH"
);
},
{
closed = 1;
nodes = (
"375 595 OFFCURVE",
"425 555 OFFCURVE",
"424 488 CURVE SMOOTH",
"423 423 OFFCURVE",
"373 383 OFFCURVE",
"297 383 CURVE SMOOTH",
"221 383 OFFCURVE",
"171 423 OFFCURVE",
"170 488 CURVE SMOOTH",
"169 555 OFFCURVE",
"219 595 OFFCURVE",
"297 594 CURVE SMOOTH"
);
},
{
closed = 1;
nodes = (
"170 670 OFFCURVE",
"87 603 OFFCURVE",
"87 496 CURVE SMOOTH",
"87 390 OFFCURVE",
"170 323 OFFCURVE",
"297 323 CURVE SMOOTH",
"424 323 OFFCURVE",
"507 390 OFFCURVE",
"507 496 CURVE SMOOTH",
"507 603 OFFCURVE",
"424 670 OFFCURVE",
"297 669 CURVE SMOOTH"
);
}
);
width = 595;
}
);
unicode = 0038;
},
{
glyphname = nine;
lastChange = "2014-08-25 10:38:23 +0100";
layers = (
{
layerId = "90FEB760-6DE5-46E5-A8E9-582C63BAB3AD";
name = Regular;
paths = (
{
closed = 1;
nodes = (
"155 670 OFFCURVE",
"67 587 OFFCURVE",
"67 456 CURVE SMOOTH",
"67 325 OFFCURVE",
"155 242 OFFCURVE",
"288 242 CURVE SMOOTH",
"362 242 OFFCURVE",
"449 273 OFFCURVE",
"469 367 CURVE",
"476 367 LINE",
"476 185 OFFCURVE",
"434 65 OFFCURVE",
"294 65 CURVE SMOOTH",
"196 65 OFFCURVE",
"166 112 OFFCURVE",
"145 181 CURVE",
"66 139 LINE",
"104 42 OFFCURVE",
"173 -10 OFFCURVE",
"295 -10 CURVE SMOOTH",
"461 -10 OFFCURVE",
"550 109 OFFCURVE",
"550 330 CURVE SMOOTH",
"550 541 OFFCURVE",
"460 670 OFFCURVE",
"294 670 CURVE SMOOTH"
);
},
{
closed = 1;
nodes = (
"381 593 OFFCURVE",
"439 538 OFFCURVE",
"439 455 CURVE SMOOTH",
"439 372 OFFCURVE",
"381 316 OFFCURVE",
"295 316 CURVE SMOOTH",
"204 316 OFFCURVE",
"151 368 OFFCURVE",
"151 455 CURVE SMOOTH",
"151 542 OFFCURVE",
"204 593 OFFCURVE",
"295 593 CURVE SMOOTH"
);
}
);
width = 606;
}
);
rightMetricsKey = zero;
unicode = 0039;
},
{
glyphname = fraction;
lastChange = "2014-08-25 10:38:23 +0100";
layers = (
{
layerId = "90FEB760-6DE5-46E5-A8E9-582C63BAB3AD";
name = Regular;
paths = (
{
closed = 1;
nodes = (
"420 660 LINE",
"0 0 LINE",
"75 0 LINE",
"496 660 LINE"
);
}
);
width = 496;
}
);
unicode = 2044;
},
{
glyphname = onequarter;
lastChange = "2014-08-25 10:38:23 +0100";
layers = (
{
components = (
{
disableAlignment = 1;
name = fraction;
transform = "{1, 0, 0, 1, 131, 0}";
},
{
name = onesuperior;
transform = "{1, 0, 0, 1, 52, 0}";
}
);
layerId = "90FEB760-6DE5-46E5-A8E9-582C63BAB3AD";
name = Regular;
paths = (
{
closed = 1;
nodes = (
"544 354 LINE",
"400 124 LINE",
"435 107 LINE",
"484 172 LINE",
"542 262 LINE",
"589 354 LINE"
);
},
{
closed = 1;
nodes = (
"566 354 LINE",
"553 109 LINE",
"553 0 LINE",
"613 0 LINE",
"613 109 LINE",
"613 354 LINE"
);
},
{
closed = 1;
nodes = (
"492 131 LINE",
"400 124 LINE",
"400 79 LINE",
"686 79 LINE",
"686 131 LINE"
);
}
);
width = 708;
}
);
unicode = 00BC;
},
{
glyphname = threequarters;
lastChange = "2014-08-25 10:38:23 +0100";
layers = (
{
components = (
{
disableAlignment = 1;
name = fraction;
transform = "{1, 0, 0, 1, 160, 0}";
},
{
name = threesuperior;
transform = "{1, 0, 0, 1, 23, 0}";
}
);
layerId = "90FEB760-6DE5-46E5-A8E9-582C63BAB3AD";
name = Regular;
paths = (
{
closed = 1;
nodes = (
"570 354 LINE",
"426 124 LINE",
"461 107 LINE",
"510 172 LINE",
"568 262 LINE",
"615 354 LINE"
);
},
{
closed = 1;
nodes = (
"592 354 LINE",
"579 109 LINE",
"579 0 LINE",
"639 0 LINE",
"639 109 LINE",
"639 354 LINE"
);
},
{
closed = 1;
nodes = (
"518 131 LINE",
"426 124 LINE",
"426 79 LINE",
"712 79 LINE",
"712 131 LINE"
);
}
);
width = 708;
}
);
unicode = 00BE;
},
{
glyphname = zerosuperior;
lastChange = "2014-08-25 10:38:23 +0100";
layers = (
{
layerId = "90FEB760-6DE5-46E5-A8E9-582C63BAB3AD";
name = Regular;
paths = (
{
closed = 1;
nodes = (
"88 306 OFFCURVE",
"35 371 OFFCURVE",
"35 488 CURVE SMOOTH",
"35 605 OFFCURVE",
"88 670 OFFCURVE",
"180 670 CURVE SMOOTH",
"272 670 OFFCURVE",
"325 605 OFFCURVE",
"325 488 CURVE SMOOTH",
"325 371 OFFCURVE",
"272 306 OFFCURVE",
"180 306 CURVE SMOOTH"
);
},
{
closed = 1;
nodes = (
"260 572 OFFCURVE",
"233 613 OFFCURVE",
"180 613 CURVE SMOOTH",
"127 613 OFFCURVE",
"100 572 OFFCURVE",
"100 488 CURVE SMOOTH",
"100 404 OFFCURVE",
"127 363 OFFCURVE",
"180 363 CURVE SMOOTH",
"233 363 OFFCURVE",
"260 404 OFFCURVE",
"260 488 CURVE SMOOTH"
);
}
);
width = 360;
}
);
unicode = 2070;
},
{
glyphname = onesuperior;
lastChange = "2014-08-25 10:38:23 +0100";
layers = (
{
layerId = "90FEB760-6DE5-46E5-A8E9-582C63BAB3AD";
name = Regular;
paths = (
{
closed = 1;
nodes = (
"120 660 LINE",
"112 557 LINE",
"112 306 LINE",
"177 306 LINE",
"177 577 LINE",
"177 660 LINE"
);
},
{
closed = 1;
nodes = (
"98 633 OFFCURVE",
"38 604 OFFCURVE",
"10 601 CURVE",
"10 537 LINE",
"65 553 OFFCURVE",
"118 597 OFFCURVE",
"145 642 CURVE",
"120 660 LINE"
);
}
);
width = 234;
}
);
unicode = 00B9;
},
{
glyphname = twosuperior;
lastChange = "2014-08-25 10:38:23 +0100";
layers = (
{
layerId = "90FEB760-6DE5-46E5-A8E9-582C63BAB3AD";
name = Regular;
paths = (
{
closed = 1;
nodes = (
"74 670 OFFCURVE",
"32 627 OFFCURVE",
"23 558 CURVE",
"74 538 LINE",
"77 588 OFFCURVE",
"103 613 OFFCURVE",
"143 613 CURVE SMOOTH",
"180 613 OFFCURVE",
"200 588 OFFCURVE",
"200 559 CURVE SMOOTH",
"200 496 OFFCURVE",
"140 461 OFFCURVE",
"26 357 CURVE",
"71 331 LINE",
"193 442 OFFCURVE",
"265 475 OFFCURVE",
"265 559 CURVE SMOOTH",
"265 624 OFFCURVE",
"218 670 OFFCURVE",
"146 670 CURVE SMOOTH"
);
},
{
closed = 1;
nodes = (
"154 368 LINE",
"26 357 LINE",
"26 311 LINE",
"124 311 LINE",
"272 311 LINE",
"272 368 LINE"
);
}
);
width = 310;
}
);
unicode = 00B2;
},
{
glyphname = threesuperior;
lastChange = "2014-08-25 10:38:23 +0100";
layers = (
{
layerId = "90FEB760-6DE5-46E5-A8E9-582C63BAB3AD";
name = Regular;
paths = (
{
closed = 1;
nodes = (
"126 490 LINE",
"126 461 LINE",
"140 461 LINE SMOOTH",
"186 461 OFFCURVE",
"221 449 OFFCURVE",
"222 411 CURVE SMOOTH",
"223 381 OFFCURVE",
"204 360 OFFCURVE",
"159 360 CURVE SMOOTH",
"116 360 OFFCURVE",
"93 376 OFFCURVE",
"76 423 CURVE",
"23 394 LINE",
"43 334 OFFCURVE",
"79 306 OFFCURVE",
"161 306 CURVE SMOOTH",
"230 306 OFFCURVE",
"287 343 OFFCURVE",
"287 409 CURVE SMOOTH",
"287 452 OFFCURVE",
"257 490 OFFCURVE",
"194 490 CURVE SMOOTH"
);
},
{
closed = 1;
nodes = (
"81 670 OFFCURVE",
"51 638 OFFCURVE",
"35 589 CURVE",
"85 566 LINE",
"92 593 OFFCURVE",
"113 613 OFFCURVE",
"154 613 CURVE SMOOTH",
"191 613 OFFCURVE",
"214 598 OFFCURVE",
"214 568 CURVE SMOOTH",
"213 533 OFFCURVE",
"188 515 OFFCURVE",
"140 515 CURVE SMOOTH",
"126 515 LINE",
"126 490 LINE",
"194 490 LINE SMOOTH",
"243 490 OFFCURVE",
"279 524 OFFCURVE",
"279 573 CURVE SMOOTH",
"279 632 OFFCURVE",
"230 670 OFFCURVE",
"162 670 CURVE SMOOTH"
);
}
);
width = 350;
}
);
leftMetricsKey = three;
rightMetricsKey = three;
unicode = 00B3;
},
{
glyphname = foursuperior;
lastChange = "2014-08-25 10:38:23 +0100";
layers = (
{
layerId = "90FEB760-6DE5-46E5-A8E9-582C63BAB3AD";
name = Regular;
paths = (
{
closed = 1;
nodes = (
"188 660 LINE",
"44 449 LINE",
"79 432 LINE",
"128 487 LINE",
"186 571 LINE",
"233 660 LINE"
);
},
{
closed = 1;
nodes = (
"210 660 LINE",
"197 434 LINE",
"197 306 LINE",
"257 306 LINE",
"257 434 LINE",
"257 660 LINE"
);
},
{
closed = 1;
nodes = (
"136 456 LINE",
"44 449 LINE",
"44 404 LINE",
"320 404 LINE",
"320 456 LINE"
);
}
);
width = 357;
}
);
leftMetricsKey = four;
rightMetricsKey = four;
unicode = 2074;
},
{
glyphname = bullet;
lastChange = "2014-08-25 10:38:23 +0100";
layers = (
{
layerId = "90FEB760-6DE5-46E5-A8E9-582C63BAB3AD";
name = Regular;
paths = (
{
closed = 1;
nodes = (
"163 475 OFFCURVE",
"100 414 OFFCURVE",
"100 330 CURVE SMOOTH",
"100 246 OFFCURVE",
"163 185 OFFCURVE",
"250 185 CURVE SMOOTH",
"337 185 OFFCURVE",
"400 246 OFFCURVE",
"400 330 CURVE SMOOTH",
"400 414 OFFCURVE",
"337 475 OFFCURVE",
"250 475 CURVE SMOOTH"
);
}
);
width = 500;
}
);
unicode = 2022;
},
{
color = 0;
glyphname = comma;
lastChange = "2014-08-25 10:38:23 +0100";
layers = (
{
layerId = "90FEB760-6DE5-46E5-A8E9-582C63BAB3AD";
name = Regular;
paths = (
{
closed = 1;
nodes = (
"90 120 OFFCURVE",
"61 89 OFFCURVE",
"61 53 CURVE SMOOTH",
"61 10 OFFCURVE",
"92 -10 OFFCURVE",
"116 -10 CURVE SMOOTH",
"132 -10 OFFCURVE",
"139 -7 OFFCURVE",
"144 -3 CURVE",
"148 -5 LINE",
"139 -47 OFFCURVE",
"104 -89 OFFCURVE",
"50 -107 CURVE",
"92 -146 LINE",
"168 -110 OFFCURVE",
"201 -44 OFFCURVE",
"201 23 CURVE SMOOTH",
"201 80 OFFCURVE",
"173 120 OFFCURVE",
"126 120 CURVE SMOOTH"
);
}
);
width = 276;
}
);
unicode = 002C;
},
{
glyphname = exclam;
lastChange = "2014-08-25 10:38:23 +0100";
layers = (
{
layerId = "90FEB760-6DE5-46E5-A8E9-582C63BAB3AD";
name = Regular;
paths = (
{
closed = 1;
nodes = (
"98 660 LINE",
"98 208 LINE",
"178 208 LINE",
"178 660 LINE"
);
},
{
closed = 1;
nodes = (
"102 120 OFFCURVE",
"73 91 OFFCURVE",
"73 55 CURVE SMOOTH",
"73 19 OFFCURVE",
"102 -10 OFFCURVE",
"138 -10 CURVE SMOOTH",
"174 -10 OFFCURVE",
"203 19 OFFCURVE",
"203 55 CURVE SMOOTH",
"203 91 OFFCURVE",
"174 120 OFFCURVE",
"138 120 CURVE SMOOTH"
);
}
);
width = 276;
}
);
leftMetricsKey = period;
rightMetricsKey = period;
unicode = 0021;
},
{
glyphname = numbersign;
lastChange = "2014-08-25 10:38:23 +0100";
layers = (
{
layerId = "90FEB760-6DE5-46E5-A8E9-582C63BAB3AD";
name = Regular;
paths = (
{
closed = 1;
nodes = (
"456 660 LINE",
"316 0 LINE",
"373 0 LINE",
"513 660 LINE"
);
},
{
closed = 1;
nodes = (
"22 248 LINE",
"22 191 LINE",
"538 191 LINE",
"538 248 LINE"
);
},
{
closed = 1;
nodes = (
"243 660 LINE",
"103 0 LINE",
"160 0 LINE",
"300 660 LINE"
);
},
{
closed = 1;
nodes = (
"82 478 LINE",
"82 421 LINE",
"598 421 LINE",
"598 478 LINE"
);
}
);
width = 620;
}
);
unicode = 0023;
},
{
glyphname = period;
lastChange = "2014-08-25 10:38:23 +0100";
layers = (
{
layerId = "90FEB760-6DE5-46E5-A8E9-582C63BAB3AD";
name = Regular;
paths = (
{
closed = 1;
nodes = (
"102 120 OFFCURVE",
"73 91 OFFCURVE",
"73 55 CURVE SMOOTH",
"73 19 OFFCURVE",
"102 -10 OFFCURVE",
"138 -10 CURVE SMOOTH",
"174 -10 OFFCURVE",
"203 19 OFFCURVE",
"203 55 CURVE SMOOTH",
"203 91 OFFCURVE",
"174 120 OFFCURVE",
"138 120 CURVE SMOOTH"
);
}
);
width = 276;
}
);
unicode = 002E;
},
{
glyphname = question;
lastChange = "2014-08-25 10:38:23 +0100";
layers = (
{
annotations = (
{
position = "{395, 315}";
text = "uneven?";
type = Text;
width = 50;
}
);
components = (
{
name = period;
transform = "{1, 0, 0, 1, 113, 0}";
}
);
layerId = "90FEB760-6DE5-46E5-A8E9-582C63BAB3AD";
name = Regular;
paths = (
{
closed = 1;
nodes = (
"141 670 OFFCURVE",
"55 602 OFFCURVE",
"33 500 CURVE",
"104 459 LINE",
"114 543 OFFCURVE",
"173 595 OFFCURVE",
"261 595 CURVE SMOOTH",
"356 595 OFFCURVE",
"402 553 OFFCURVE",
"402 490 CURVE SMOOTH",
"402 377 OFFCURVE",
"215 366 OFFCURVE",
"215 208 CURVE",
"298 208 LINE",
"298 326 OFFCURVE",
"486 328 OFFCURVE",
"486 500 CURVE SMOOTH",
"486 605 OFFCURVE",
"400 670 OFFCURVE",
"267 670 CURVE SMOOTH"
);
}
);
width = 545;
}
);
unicode = 003F;
},
{
color = 0;
glyphname = quotesingle;
lastChange = "2014-08-25 10:38:23 +0100";
layers = (
{
layerId = "90FEB760-6DE5-46E5-A8E9-582C63BAB3AD";
name = Regular;
paths = (
{
closed = 1;
nodes = (
"77 690 LINE",
"77 443 LINE",
"139 443 LINE",
"165 690 LINE"
);
}
);
width = 229;
}
);
unicode = 0027;
},
{
glyphname = slash;
lastChange = "2014-08-25 10:38:23 +0100";
layers = (
{
layerId = "90FEB760-6DE5-46E5-A8E9-582C63BAB3AD";
name = Regular;
paths = (
{
closed = 1;
nodes = (
"324 730 LINE",
"18 -70 LINE",
"93 -70 LINE",
"399 730 LINE"
);
}
);
width = 417;
}
);
unicode = 002F;
},
{
glyphname = underscore;
lastChange = "2014-08-25 10:38:23 +0100";
layers = (
{
layerId = "90FEB760-6DE5-46E5-A8E9-582C63BAB3AD";
name = Regular;
paths = (
{
closed = 1;
nodes = (
"0 -97 LINE",
"0 -172 LINE",
"539 -172 LINE",
"539 -97 LINE"
);
}
);
width = 539;
}
);
unicode = 005F;
},
{
glyphname = braceleft;
lastChange = "2014-08-25 10:38:23 +0100";
layers = (
{
layerId = "90FEB760-6DE5-46E5-A8E9-582C63BAB3AD";
name = Regular;
paths = (
{
closed = 1;
nodes = (
"199 751 OFFCURVE",
"157 706 OFFCURVE",
"157 627 CURVE SMOOTH",
"157 420 LINE SMOOTH",
"157 345 OFFCURVE",
"126 316 OFFCURVE",
"45 316 CURVE",
"45 274 LINE",
"165 274 OFFCURVE",
"232 320 OFFCURVE",
"232 413 CURVE SMOOTH",
"232 633 LINE SMOOTH",
"232 669 OFFCURVE",
"259 686 OFFCURVE",
"314 686 CURVE",
"314 751 LINE"
);
},
{
closed = 1;
nodes = (
"45 246 LINE",
"126 246 OFFCURVE",
"157 217 OFFCURVE",
"157 142 CURVE SMOOTH",
"157 -65 LINE SMOOTH",
"157 -144 OFFCURVE",
"199 -189 OFFCURVE",
"314 -189 CURVE",
"314 -124 LINE",
"259 -124 OFFCURVE",
"232 -107 OFFCURVE",
"232 -71 CURVE SMOOTH",
"232 149 LINE SMOOTH",
"232 242 OFFCURVE",
"165 288 OFFCURVE",
"45 288 CURVE"
);
}
);
width = 411;
}
);
unicode = 007B;
},
{
color = 0;
glyphname = bracketleft;
lastChange = "2014-08-25 10:38:23 +0100";
layers = (
{
layerId = "90FEB760-6DE5-46E5-A8E9-582C63BAB3AD";
name = Regular;
paths = (
{
closed = 1;
nodes = (
"118 730 LINE",
"118 -168 LINE",
"193 -168 LINE",
"193 730 LINE"
);
},
{
closed = 1;
nodes = (
"160 -98 LINE",
"160 -168 LINE",
"346 -168 LINE",
"346 -98 LINE"
);
},
{
closed = 1;
nodes = (
"160 730 LINE",
"160 660 LINE",
"346 660 LINE",
"346 730 LINE"
);
}
);
width = 391;
}
);
unicode = 005B;
},
{
color = 0;
glyphname = parenleft;
lastChange = "2014-08-25 10:38:23 +0100";
layers = (
{
layerId = "90FEB760-6DE5-46E5-A8E9-582C63BAB3AD";
name = Regular;
paths = (
{
closed = 1;
nodes = (
"170 629 OFFCURVE",
"97 469 OFFCURVE",
"97 281 CURVE SMOOTH",
"97 93 OFFCURVE",
"170 -67 OFFCURVE",
"311 -189 CURVE",
"361 -140 LINE",
"230 -26 OFFCURVE",
"182 98 OFFCURVE",
"182 281 CURVE SMOOTH",
"182 464 OFFCURVE",
"230 588 OFFCURVE",
"361 702 CURVE",
"311 751 LINE"
);
}
);
width = 391;
}
);
unicode = 0028;
},
{
glyphname = emdash;
lastChange = "2014-08-25 10:38:23 +0100";
layers = (
{
layerId = "90FEB760-6DE5-46E5-A8E9-582C63BAB3AD";
name = Regular;
paths = (
{
closed = 1;
nodes = (
"75 299 LINE",
"75 224 LINE",
"925 224 LINE",
"925 299 LINE"
);
}
);
width = 1000;
}
);
unicode = 2014;
},
{
glyphname = endash;
lastChange = "2014-08-25 10:38:23 +0100";
layers = (
{
layerId = "90FEB760-6DE5-46E5-A8E9-582C63BAB3AD";
name = Regular;
paths = (
{
closed = 1;
nodes = (
"25 299 LINE",
"25 224 LINE",
"525 224 LINE",
"525 299 LINE"
);
}
);
width = 550;
}
);
unicode = 2013;
},
{
glyphname = hyphen;
lastChange = "2014-08-25 10:38:23 +0100";
layers = (
{
layerId = "90FEB760-6DE5-46E5-A8E9-582C63BAB3AD";
name = Regular;
paths = (
{
closed = 1;
nodes = (
"75 303 LINE",
"75 220 LINE",
"405 220 LINE",
"405 303 LINE"
);
}
);
width = 480;
}
);
leftMetricsKey = emdash;
rightMetricsKey = emdash;
unicode = 002D;
},
{
color = 0;
glyphname = guilsinglleft;
lastChange = "2014-08-25 10:38:23 +0100";
layers = (
{
layerId = "90FEB760-6DE5-46E5-A8E9-582C63BAB3AD";
name = Regular;
paths = (
{
closed = 1;
nodes = (
"302 34 LINE",
"353 92 LINE",
"155 250 LINE",
"353 408 LINE",
"302 466 LINE",
"61 250 LINE"
);
}
);
width = 389;
}
);
unicode = 2039;
},
{
glyphname = cent;
lastChange = "2014-08-25 10:38:23 +0100";
layers = (
{
components = (
{
name = c;
transform = "{1, 0, 0, 1, 0, 0}";
}
);
layerId = "90FEB760-6DE5-46E5-A8E9-582C63BAB3AD";
name = Regular;
paths = (
{
closed = 1;
nodes = (
"262 580 LINE",
"262 -80 LINE",
"321 -80 LINE",
"321 580 LINE"
);
}
);
width = 543;
}
);
unicode = 00A2;
},
{
glyphname = currency;
lastChange = "2014-08-25 10:38:23 +0100";
layers = (
{
layerId = "90FEB760-6DE5-46E5-A8E9-582C63BAB3AD";
name = Regular;
paths = (
{
closed = 1;
nodes = (
"186 539 OFFCURVE",
"97 451 OFFCURVE",
"97 329 CURVE SMOOTH",
"97 207 OFFCURVE",
"186 118 OFFCURVE",
"308 118 CURVE SMOOTH",
"430 118 OFFCURVE",
"518 207 OFFCURVE",
"518 329 CURVE SMOOTH",
"518 451 OFFCURVE",
"430 539 OFFCURVE",
"308 539 CURVE SMOOTH"
);
},
{
closed = 1;
nodes = (
"45 117 LINE",
"96 66 LINE",
"212 185 LINE",
"162 236 LINE"
);
},
{
closed = 1;
nodes = (
"400 182 LINE",
"519 66 LINE",
"570 117 LINE",
"451 233 LINE"
);
},
{
closed = 1;
nodes = (
"380 464 OFFCURVE",
"433 407 OFFCURVE",
"433 329 CURVE SMOOTH",
"433 250 OFFCURVE",
"380 193 OFFCURVE",
"308 193 CURVE SMOOTH",
"235 193 OFFCURVE",
"182 250 OFFCURVE",
"182 329 CURVE SMOOTH",
"182 407 OFFCURVE",
"235 464 OFFCURVE",
"308 464 CURVE SMOOTH"
);
},
{
closed = 1;
nodes = (
"45 540 LINE",
"164 424 LINE",
"215 474 LINE",
"96 591 LINE"
);
},
{
closed = 1;
nodes = (
"403 472 LINE",
"454 421 LINE",
"570 540 LINE",
"519 591 LINE"
);
}
);
width = 615;
}
);
unicode = 00A4;
},
{
glyphname = dollar;
lastChange = "2014-08-25 10:38:23 +0100";
layers = (
{
layerId = "90FEB760-6DE5-46E5-A8E9-582C63BAB3AD";
name = Regular;
paths = (
{
closed = 1;
nodes = (
"166 660 OFFCURVE",
"77 575 OFFCURVE",
"77 469 CURVE SMOOTH",
"77 365 OFFCURVE",
"143 321 OFFCURVE",
"289 293 CURVE SMOOTH",
"448 260 OFFCURVE",
"476 235 OFFCURVE",
"476 176 CURVE SMOOTH",
"476 108 OFFCURVE",
"412 75 OFFCURVE",
"321 75 CURVE SMOOTH",
"231 75 OFFCURVE",
"144 133 OFFCURVE",
"132 213 CURVE",
"51 171 LINE",
"89 60 OFFCURVE",
"184 0 OFFCURVE",
"319 0 CURVE SMOOTH",
"462 0 OFFCURVE",
"559 70 OFFCURVE",
"559 183 CURVE SMOOTH",
"559 287 OFFCURVE",
"498 333 OFFCURVE",
"345 363 CURVE SMOOTH",
"196 392 OFFCURVE",
"161 418 OFFCURVE",
"161 478 CURVE SMOOTH",
"161 541 OFFCURVE",
"215 585 OFFCURVE",
"314 585 CURVE SMOOTH",
"406 585 OFFCURVE",
"450 550 OFFCURVE",
"488 463 CURVE",
"558 520 LINE",
"506 615 OFFCURVE",
"439 660 OFFCURVE",
"313 660 CURVE SMOOTH"
);
},
{
closed = 1;
nodes = (
"283 740 LINE",
"283 -80 LINE",
"352 -80 LINE",
"352 740 LINE"
);
}
);
width = 615;
}
);
unicode = 0024;
},
{
glyphname = euro;
lastChange = "2014-08-25 10:38:23 +0100";
layers = (
{
layerId = "90FEB760-6DE5-46E5-A8E9-582C63BAB3AD";
name = Regular;
paths = (
{
closed = 1;
nodes = (
"178 670 OFFCURVE",
"76 539 OFFCURVE",
"76 330 CURVE SMOOTH",
"76 121 OFFCURVE",
"176 -10 OFFCURVE",
"352 -10 CURVE SMOOTH",
"462 -10 OFFCURVE",
"561 56 OFFCURVE",
"598 169 CURVE",
"518 199 LINE",
"494 110 OFFCURVE",
"426 65 OFFCURVE",
"352 65 CURVE SMOOTH",
"227 65 OFFCURVE",
"160 164 OFFCURVE",
"160 330 CURVE SMOOTH",
"160 497 OFFCURVE",
"233 595 OFFCURVE",
"356 595 CURVE SMOOTH",
"429 595 OFFCURVE",
"484 555 OFFCURVE",
"507 479 CURVE",
"586 516 LINE",
"550 616 OFFCURVE",
"463 670 OFFCURVE",
"350 670 CURVE SMOOTH"
);
},
{
closed = 1;
nodes = (
"0 285 LINE",
"0 220 LINE",
"365 220 LINE",
"365 285 LINE"
);
},
{
closed = 1;
nodes = (
"0 442 LINE",
"0 377 LINE",
"365 377 LINE",
"365 442 LINE"
);
}
);
width = 622;
}
);
unicode = 20AC;
},
{
glyphname = florin;
lastChange = "2014-08-25 10:38:23 +0100";
layers = (
{
hints = (
{
place = "{257.299790, 0.000000}";
}
);
layerId = "90FEB760-6DE5-46E5-A8E9-582C63BAB3AD";
name = Regular;
paths = (
{
closed = 1;
nodes = (
"329 828 OFFCURVE",
"286 766 OFFCURVE",
"272 677 CURVE SMOOTH",
"162 -9 LINE SMOOTH",
"152 -70 OFFCURVE",
"126 -95 OFFCURVE",
"85 -95 CURVE SMOOTH",
"51 -95 OFFCURVE",
"30 -85 OFFCURVE",
"12 -72 CURVE",
"0 -144 LINE",
"22 -157 OFFCURVE",
"40 -168 OFFCURVE",
"92 -168 CURVE SMOOTH",
"185 -168 OFFCURVE",
"228 -106 OFFCURVE",
"242 -17 CURVE SMOOTH",
"352 669 LINE SMOOTH",
"362 730 OFFCURVE",
"388 755 OFFCURVE",
"429 755 CURVE SMOOTH",
"463 755 OFFCURVE",
"484 745 OFFCURVE",
"502 732 CURVE",
"514 804 LINE",
"492 817 OFFCURVE",
"474 828 OFFCURVE",
"422 828 CURVE SMOOTH"
);
},
{
closed = 1;
nodes = (
"98 500 LINE",
"98 431 LINE",
"478 431 LINE",
"478 500 LINE"
);
}
);
width = 514;
}
);
unicode = 0192;
},
{
glyphname = liraTurkish;
lastChange = "2014-08-25 10:38:23 +0100";
layers = (
{
layerId = "90FEB760-6DE5-46E5-A8E9-582C63BAB3AD";
name = Regular;
paths = (
{
closed = 1;
nodes = (
"189 660 LINE",
"189 0 LINE",
"269 0 LINE",
"269 660 LINE"
);
},
{
closed = 1;
nodes = (
"60 433 LINE",
"60 375 LINE",
"475 495 LINE",
"475 553 LINE"
);
},
{
closed = 1;
nodes = (
"60 283 LINE",
"60 225 LINE",
"475 345 LINE",
"475 403 LINE"
);
},
{
closed = 1;
nodes = (
"519 131 OFFCURVE",
"461 75 OFFCURVE",
"337 75 CURVE SMOOTH",
"231 75 LINE",
"231 0 LINE",
"345 0 LINE SMOOTH",
"506 0 OFFCURVE",
"592 85 OFFCURVE",
"599 268 CURVE",
"519 268 LINE"
);
}
);
width = 647;
}
);
unicode = 20BA;
},
{
glyphname = ruble;
lastChange = "2014-08-25 10:38:23 +0100";
layers = (
{
layerId = "90FEB760-6DE5-46E5-A8E9-582C63BAB3AD";
name = Regular;
paths = (
{
closed = 1;
nodes = (
"150 660 LINE",
"150 585 LINE",
"331 585 LINE SMOOTH",
"435 585 OFFCURVE",
"481 541 OFFCURVE",
"481 459 CURVE SMOOTH",
"481 377 OFFCURVE",
"435 333 OFFCURVE",
"331 333 CURVE SMOOTH",
"20 333 LINE",
"20 258 LINE",
"343 258 LINE SMOOTH",
"476 258 OFFCURVE",
"565 335 OFFCURVE",
"565 459 CURVE SMOOTH",
"565 583 OFFCURVE",
"476 660 OFFCURVE",
"343 660 CURVE SMOOTH"
);
},
{
closed = 1;
nodes = (
"110 660 LINE",
"110 0 LINE",
"190 0 LINE",
"190 660 LINE"
);
},
{
closed = 1;
nodes = (
"363 193 LINE SMOOTH",
"20 193 LINE",
"20 128 LINE",
"363 128 LINE"
);
}
);
width = 594;
}
);
unicode = 20BD;
},
{
color = 0;
glyphname = sterling;
lastChange = "2014-08-25 10:38:23 +0100";
layers = (
{
layerId = "90FEB760-6DE5-46E5-A8E9-582C63BAB3AD";
name = Regular;
paths = (
{
closed = 1;
nodes = (
"241 670 OFFCURVE",
"153 585 OFFCURVE",
"153 467 CURVE SMOOTH",
"153 338 OFFCURVE",
"289 289 OFFCURVE",
"289 166 CURVE SMOOTH",
"289 105 OFFCURVE",
"251 44 OFFCURVE",
"175 44 CURVE SMOOTH",
"148 44 OFFCURVE",
"128 55 OFFCURVE",
"128 76 CURVE SMOOTH",
"128 96 OFFCURVE",
"142 111 OFFCURVE",
"174 111 CURVE SMOOTH",
"268 111 OFFCURVE",
"336 -10 OFFCURVE",
"458 -10 CURVE SMOOTH",
"520 -10 OFFCURVE",
"567 17 OFFCURVE",
"597 65 CURVE",
"544 116 LINE",
"520 76 OFFCURVE",
"491 61 OFFCURVE",
"452 61 CURVE SMOOTH",
"340 61 OFFCURVE",
"309 165 OFFCURVE",
"173 165 CURVE SMOOTH",
"98 165 OFFCURVE",
"55 123 OFFCURVE",
"55 76 CURVE SMOOTH",
"55 26 OFFCURVE",
"97 -10 OFFCURVE",
"165 -10 CURVE SMOOTH",
"297 -10 OFFCURVE",
"363 85 OFFCURVE",
"363 168 CURVE SMOOTH",
"363 330 OFFCURVE",
"236 367 OFFCURVE",
"236 480 CURVE SMOOTH",
"236 547 OFFCURVE",
"287 595 OFFCURVE",
"357 595 CURVE SMOOTH",
"437 595 OFFCURVE",
"471 550 OFFCURVE",
"490 474 CURVE",
"563 514 LINE",
"534 619 OFFCURVE",
"469 670 OFFCURVE",
"364 670 CURVE SMOOTH"
);
},
{
closed = 1;
nodes = (
"91 343 LINE",
"91 278 LINE",
"478 278 LINE",
"478 343 LINE"
);
}
);
width = 622;
}
);
unicode = 00A3;
},
{
glyphname = yen;
lastChange = "2014-08-25 10:38:23 +0100";
layers = (
{
components = (
{
name = Y;
transform = "{1, 0, 0, 1, 0, 0}";
}
);
layerId = "90FEB760-6DE5-46E5-A8E9-582C63BAB3AD";
name = Regular;
paths = (
{
closed = 1;
nodes = (
"60 297 LINE",
"60 237 LINE",
"515 237 LINE",
"515 297 LINE"
);
},
{
closed = 1;
nodes = (
"60 156 LINE",
"60 96 LINE",
"515 96 LINE",
"515 156 LINE"
);
}
);
width = 594;
}
);
unicode = 00A5;
},
{
glyphname = Ohm;
lastChange = "2014-08-25 10:38:23 +0100";
layers = (
{
layerId = "90FEB760-6DE5-46E5-A8E9-582C63BAB3AD";
name = Regular;
paths = (
{
closed = 1;
nodes = (
"198 670 OFFCURVE",
"80 539 OFFCURVE",
"80 330 CURVE SMOOTH",
"80 178 OFFCURVE",
"164 69 OFFCURVE",
"305 29 CURVE",
"329 74 LINE",
"226 102 OFFCURVE",
"164 193 OFFCURVE",
"164 330 CURVE SMOOTH",
"164 496 OFFCURVE",
"249 595 OFFCURVE",
"386 595 CURVE SMOOTH",
"523 595 OFFCURVE",
"608 496 OFFCURVE",
"608 330 CURVE SMOOTH",
"608 193 OFFCURVE",
"546 102 OFFCURVE",
"443 74 CURVE",
"467 29 LINE",
"608 69 OFFCURVE",
"692 178 OFFCURVE",
"692 330 CURVE SMOOTH",
"692 539 OFFCURVE",
"574 670 OFFCURVE",
"386 670 CURVE SMOOTH"
);
},
{
closed = 1;
nodes = (
"70 0 LINE",
"329 -1 LINE",
"329 74 LINE",
"70 75 LINE"
);
},
{
closed = 1;
nodes = (
"443 74 LINE",
"443 -1 LINE",
"702 0 LINE",
"702 75 LINE"
);
}
);
width = 772;
}
);
unicode = 2126;
},
{
glyphname = approxequal;
lastChange = "2014-08-25 10:38:23 +0100";
layers = (
{
layerId = "90FEB760-6DE5-46E5-A8E9-582C63BAB3AD";
name = Regular;
paths = (
{
closed = 1;
nodes = (
"118 460 OFFCURVE",
"86 444 OFFCURVE",
"43 405 CURVE",
"43 315 LINE",
"83 353 OFFCURVE",
"116 370 OFFCURVE",
"175 370 CURVE SMOOTH",
"251 370 OFFCURVE",
"320 300 OFFCURVE",
"400 300 CURVE SMOOTH",
"449 300 OFFCURVE",
"489 317 OFFCURVE",
"529 355 CURVE",
"529 445 LINE",
"483 401 OFFCURVE",
"445 390 OFFCURVE",
"401 390 CURVE SMOOTH",
"328 390 OFFCURVE",
"260 460 OFFCURVE",
"175 460 CURVE SMOOTH"
);
},
{
closed = 1;
nodes = (
"118 260 OFFCURVE",
"86 244 OFFCURVE",
"43 205 CURVE",
"43 115 LINE",
"83 153 OFFCURVE",
"116 170 OFFCURVE",
"175 170 CURVE SMOOTH",
"251 170 OFFCURVE",
"320 100 OFFCURVE",
"400 100 CURVE SMOOTH",
"449 100 OFFCURVE",
"489 117 OFFCURVE",
"529 155 CURVE",
"529 245 LINE",
"483 201 OFFCURVE",
"445 190 OFFCURVE",
"401 190 CURVE SMOOTH",
"328 190 OFFCURVE",
"260 260 OFFCURVE",
"175 260 CURVE SMOOTH"
);
}
);
width = 572;
}
);
leftMetricsKey = asciitilde;
rightMetricsKey = asciitilde;
unicode = 2248;
},
{
glyphname = asciitilde;
lastChange = "2014-08-25 10:38:23 +0100";
layers = (
{
layerId = "90FEB760-6DE5-46E5-A8E9-582C63BAB3AD";
name = Regular;
paths = (
{
closed = 1;
nodes = (
"493 384 LINE",
"483 329 OFFCURVE",
"459 293 OFFCURVE",
"418 293 CURVE SMOOTH",
"345 293 OFFCURVE",
"302 383 OFFCURVE",
"197 383 CURVE SMOOTH",
"101 383 OFFCURVE",
"53 325 OFFCURVE",
"43 212 CURVE",
"127 212 LINE",
"137 267 OFFCURVE",
"161 303 OFFCURVE",
"202 303 CURVE SMOOTH",
"278 303 OFFCURVE",
"318 213 OFFCURVE",
"424 213 CURVE SMOOTH",
"517 213 OFFCURVE",
"567 271 OFFCURVE",
"577 384 CURVE"
);
}
);
width = 620;
}
);
unicode = 007E;
},
{
glyphname = equal;
lastChange = "2014-08-25 10:38:23 +0100";
layers = (
{
layerId = "90FEB760-6DE5-46E5-A8E9-582C63BAB3AD";
name = Regular;
paths = (
{
closed = 1;
nodes = (
"72 428 LINE",
"72 353 LINE",
"548 353 LINE",
"548 428 LINE"
);
},
{
closed = 1;
nodes = (
"72 228 LINE",
"72 153 LINE",
"548 153 LINE",
"548 228 LINE"
);
}
);
width = 620;
}
);
unicode = 003D;
},
{
glyphname = increment;
lastChange = "2014-08-25 10:38:23 +0100";
layers = (
{
layerId = "90FEB760-6DE5-46E5-A8E9-582C63BAB3AD";
name = Regular;
paths = (
{
closed = 1;
nodes = (
"10 75 LINE",
"87 49 LINE",
"350 660 LINE",
"265 660 LINE"
);
},
{
closed = 1;
nodes = (
"10 75 LINE",
"10 0 LINE",
"629 0 LINE",
"629 75 LINE"
);
},
{
closed = 1;
nodes = (
"288 660 LINE",
"552 49 LINE",
"629 75 LINE",
"374 660 LINE"
);
}
);
width = 639;
}
);
unicode = 2206;
},
{
glyphname = infinity;
lastChange = "2014-08-25 10:38:23 +0100";
layers = (
{
layerId = "90FEB760-6DE5-46E5-A8E9-582C63BAB3AD";
name = Regular;
paths = (
{
closed = 1;
nodes = (
"372 245 CURVE SMOOTH",
"509 82 OFFCURVE",
"541 70 OFFCURVE",
"602 70 CURVE SMOOTH",
"692 70 OFFCURVE",
"767 144 OFFCURVE",
"767 270 CURVE SMOOTH",
"767 396 OFFCURVE",
"692 470 OFFCURVE",
"602 470 CURVE SMOOTH",
"539 470 OFFCURVE",
"509 459 OFFCURVE",
"368 291 CURVE SMOOTH",
"251 151 OFFCURVE",
"241 140 OFFCURVE",
"191 140 CURVE SMOOTH",
"147 140 OFFCURVE",
"106 187 OFFCURVE",
"106 270 CURVE SMOOTH",
"106 353 OFFCURVE",
"147 400 OFFCURVE",
"191 400 CURVE SMOOTH",
"240 400 OFFCURVE",
"245 396 OFFCURVE"
);
},
{
closed = 1;
nodes = (
"98 470 OFFCURVE",
"23 396 OFFCURVE",
"23 270 CURVE SMOOTH",
"23 144 OFFCURVE",
"98 70 OFFCURVE",
"188 70 CURVE SMOOTH",
"267 70 OFFCURVE",
"278 78 OFFCURVE",
"417 246 CURVE SMOOTH",
"539 393 OFFCURVE",
"550 400 OFFCURVE",
"599 400 CURVE SMOOTH",
"643 400 OFFCURVE",
"684 353 OFFCURVE",
"684 270 CURVE SMOOTH",
"684 187 OFFCURVE",
"643 139 OFFCURVE",
"599 140 CURVE SMOOTH",
"553 141 OFFCURVE",
"535 149 OFFCURVE",
"415 298 CURVE SMOOTH",
"296 446 OFFCURVE",
"268 470 OFFCURVE",
"188 470 CURVE SMOOTH"
);
}
);
width = 790;
}
);
unicode = 221E;
},
{
glyphname = integral;
lastChange = "2014-08-25 10:38:23 +0100";
layers = (
{
hints = (
{
place = "{257.299790, 0.000000}";
}
);
layerId = "90FEB760-6DE5-46E5-A8E9-582C63BAB3AD";
name = Regular;
paths = (
{
closed = 1;
nodes = (
"162 -70 OFFCURVE",
"126 -95 OFFCURVE",
"85 -95 CURVE SMOOTH",
"51 -95 OFFCURVE",
"30 -85 OFFCURVE",
"12 -72 CURVE",
"0 -144 LINE",
"22 -157 OFFCURVE",
"40 -168 OFFCURVE",
"92 -168 CURVE SMOOTH",
"185 -168 OFFCURVE",
"242 -106 OFFCURVE",
"242 -17 CURVE SMOOTH",
"242 669 LINE SMOOTH",
"242 730 OFFCURVE",
"278 755 OFFCURVE",
"319 755 CURVE SMOOTH",
"353 755 OFFCURVE",
"374 745 OFFCURVE",
"392 732 CURVE",
"404 804 LINE",
"382 817 OFFCURVE",
"364 828 OFFCURVE",
"312 828 CURVE SMOOTH",
"219 828 OFFCURVE",
"162 766 OFFCURVE",
"162 677 CURVE SMOOTH",
"162 -9 LINE SMOOTH"
);
}
);
width = 404;
}
);
unicode = 222B;
},
{
glyphname = less;
lastChange = "2014-08-25 10:38:23 +0100";
layers = (
{
layerId = "90FEB760-6DE5-46E5-A8E9-582C63BAB3AD";
name = Regular;
paths = (
{
closed = 1;
nodes = (
"79 340 LINE",
"79 265 LINE",
"555 466 LINE",
"555 549 LINE"
);
},
{
closed = 1;
nodes = (
"79 241 LINE",
"555 32 LINE",
"555 115 LINE",
"79 316 LINE"
);
}
);
width = 620;
}
);
unicode = 003C;
},
{
glyphname = logicalnot;
lastChange = "2014-08-25 10:38:23 +0100";
layers = (
{
layerId = "90FEB760-6DE5-46E5-A8E9-582C63BAB3AD";
name = Regular;
paths = (
{
closed = 1;
nodes = (
"67 328 LINE",
"67 253 LINE",
"553 253 LINE",
"553 328 LINE"
);
},
{
closed = 1;
nodes = (
"473 328 LINE",
"473 102 LINE",
"553 102 LINE",
"553 328 LINE"
);
}
);
width = 620;
}
);
leftMetricsKey = minus;
rightMetricsKey = minus;
unicode = 00AC;
},
{
glyphname = micro;
lastChange = "2014-08-25 10:38:23 +0100";
layers = (
{
anchors = (
{
name = ogonek;
position = "{564, 10}";
},
{
name = top;
position = "{314, 500}";
}
);
layerId = "90FEB760-6DE5-46E5-A8E9-582C63BAB3AD";
name = Regular;
paths = (
{
closed = 1;
nodes = (
"134 173 LINE",
"134 41 OFFCURVE",
"199 -10 OFFCURVE",
"278 -10 CURVE SMOOTH",
"402 -10 OFFCURVE",
"474 53 OFFCURVE",
"488 173 CURVE",
"452 184 LINE",
"439 106 OFFCURVE",
"379 60 OFFCURVE",
"292 60 CURVE SMOOTH",
"220 60 OFFCURVE",
"174 91 OFFCURVE",
"174 194 CURVE"
);
},
{
closed = 1;
nodes = (
"452 500 LINE",
"452 117 LINE",
"467 0 LINE",
"532 0 LINE",
"532 117 LINE",
"532 500 LINE"
);
},
{
closed = 1;
nodes = (
"94 500 LINE",
"94 -210 LINE",
"174 -210 LINE",
"174 500 LINE"
);
}
);
width = 626;
}
);
leftMetricsKey = u;
rightMetricsKey = u;
unicode = 00B5;
},
{
glyphname = minus;
lastChange = "2014-08-25 10:38:23 +0100";
layers = (
{
layerId = "90FEB760-6DE5-46E5-A8E9-582C63BAB3AD";
name = Regular;
paths = (
{
closed = 1;
nodes = (
"67 328 LINE",
"67 253 LINE",
"553 253 LINE",
"553 328 LINE"
);
}
);
width = 620;
}
);
unicode = 2212;
},
{
glyphname = multiply;
lastChange = "2014-08-25 10:38:23 +0100";
layers = (
{
layerId = "90FEB760-6DE5-46E5-A8E9-582C63BAB3AD";
name = Regular;
paths = (
{
closed = 1;
nodes = (
"105 138 LINE",
"158 85 LINE",
"515 443 LINE",
"462 496 LINE"
);
},
{
closed = 1;
nodes = (
"462 85 LINE",
"515 138 LINE",
"157 496 LINE",
"104 443 LINE"
);
}
);
width = 620;
}
);
unicode = 00D7;
},
{
glyphname = notequal;
lastChange = "2014-08-25 10:38:23 +0100";
layers = (
{
components = (
{
name = equal;
transform = "{1, 0, 0, 1, 0, 0}";
}
);
layerId = "90FEB760-6DE5-46E5-A8E9-582C63BAB3AD";
name = Regular;
paths = (
{
closed = 1;
nodes = (
"470 530 LINE",
"391 530 LINE",
"151 51 LINE",
"230 51 LINE"
);
}
);
width = 620;
}
);
leftMetricsKey = equal;
rightMetricsKey = equal;
unicode = 2260;
},
{
glyphname = partialdiff;
lastChange = "2014-08-25 10:38:23 +0100";
layers = (
{
layerId = "90FEB760-6DE5-46E5-A8E9-582C63BAB3AD";
name = Regular;
paths = (
{
closed = 1;
nodes = (
"460 -10 OFFCURVE",
"550 109 OFFCURVE",
"550 330 CURVE SMOOTH",
"550 541 OFFCURVE",
"474 670 OFFCURVE",
"284 670 CURVE SMOOTH",
"212 670 OFFCURVE",
"153 644 OFFCURVE",
"103 600 CURVE",
"150 533 LINE",
"192 574 OFFCURVE",
"221 595 OFFCURVE",
"282 595 CURVE SMOOTH",
"403 595 OFFCURVE",
"470 517 OFFCURVE",
"470 330 CURVE SMOOTH",
"470 160 OFFCURVE",
"409 66 OFFCURVE",
"294 67 CURVE SMOOTH",
"202 66 OFFCURVE",
"151 125 OFFCURVE",
"151 215 CURVE SMOOTH",
"151 304 OFFCURVE",
"202 363 OFFCURVE",
"289 363 CURVE SMOOTH",
"386 363 OFFCURVE",
"445 308 OFFCURVE",
"467 229 CURVE",
"515 236 LINE",
"502 360 OFFCURVE",
"408 438 OFFCURVE",
"290 438 CURVE SMOOTH",
"161 438 OFFCURVE",
"67 345 OFFCURVE",
"67 214 CURVE SMOOTH",
"67 83 OFFCURVE",
"155 -10 OFFCURVE",
"294 -10 CURVE SMOOTH"
);
}
);
width = 606;
}
);
unicode = 2202;
},
{
glyphname = percent;
lastChange = "2014-08-25 10:38:23 +0100";
layers = (
{
components = (
{
disableAlignment = 1;
name = fraction;
transform = "{1, 0, 0, 1, 155, 0}";
}
);
layerId = "90FEB760-6DE5-46E5-A8E9-582C63BAB3AD";
name = Regular;
paths = (
{
closed = 1;
nodes = (
"77 305 OFFCURVE",
"15 377 OFFCURVE",
"15 487 CURVE SMOOTH",
"15 597 OFFCURVE",
"77 669 OFFCURVE",
"174 669 CURVE SMOOTH",
"271 669 OFFCURVE",
"333 597 OFFCURVE",
"333 487 CURVE SMOOTH",
"333 377 OFFCURVE",
"271 305 OFFCURVE",
"174 305 CURVE SMOOTH"
);
},
{
closed = 1;
nodes = (
"262 562 OFFCURVE",
"231 606 OFFCURVE",
"174 606 CURVE SMOOTH",
"117 606 OFFCURVE",
"86 562 OFFCURVE",
"86 487 CURVE SMOOTH",
"86 412 OFFCURVE",
"117 368 OFFCURVE",
"174 368 CURVE SMOOTH",
"231 368 OFFCURVE",
"262 412 OFFCURVE",
"262 487 CURVE SMOOTH"
);
},
{
closed = 1;
nodes = (
"535 -11 OFFCURVE",
"473 61 OFFCURVE",
"473 171 CURVE SMOOTH",
"473 281 OFFCURVE",
"535 353 OFFCURVE",
"632 353 CURVE SMOOTH",
"729 353 OFFCURVE",
"791 281 OFFCURVE",
"791 171 CURVE SMOOTH",
"791 61 OFFCURVE",
"729 -11 OFFCURVE",
"632 -11 CURVE SMOOTH"
);
},
{
closed = 1;
nodes = (
"720 246 OFFCURVE",
"689 290 OFFCURVE",
"632 290 CURVE SMOOTH",
"575 290 OFFCURVE",
"544 246 OFFCURVE",
"544 171 CURVE SMOOTH",
"544 96 OFFCURVE",
"575 52 OFFCURVE",
"632 52 CURVE SMOOTH",
"689 52 OFFCURVE",
"720 96 OFFCURVE",
"720 171 CURVE SMOOTH"
);
}
);
width = 806;
}
);
unicode = 0025;
},
{
glyphname = perthousand;
lastChange = "2014-08-25 10:38:23 +0100";
layers = (
{
components = (
{
name = percent;
transform = "{1, 0, 0, 1, 0, 0}";
}
);
layerId = "90FEB760-6DE5-46E5-A8E9-582C63BAB3AD";
name = Regular;
paths = (
{
closed = 1;
nodes = (
"913 354 OFFCURVE",
"851 282 OFFCURVE",
"851 172 CURVE SMOOTH",
"851 62 OFFCURVE",
"913 -10 OFFCURVE",
"1010 -10 CURVE SMOOTH",
"1107 -10 OFFCURVE",
"1169 62 OFFCURVE",
"1169 172 CURVE SMOOTH",
"1169 282 OFFCURVE",
"1107 354 OFFCURVE",
"1010 354 CURVE SMOOTH"
);
},
{
closed = 1;
nodes = (
"1067 291 OFFCURVE",
"1098 247 OFFCURVE",
"1098 172 CURVE SMOOTH",
"1098 97 OFFCURVE",
"1067 53 OFFCURVE",
"1010 53 CURVE SMOOTH",
"953 53 OFFCURVE",
"922 97 OFFCURVE",
"922 172 CURVE SMOOTH",
"922 247 OFFCURVE",
"953 291 OFFCURVE",
"1010 291 CURVE SMOOTH"
);
}
);
width = 1184;
}
);
leftMetricsKey = percent;
rightMetricsKey = percent;
unicode = 2030;
},
{
glyphname = plus;
lastChange = "2014-08-25 10:38:23 +0100";
layers = (
{
layerId = "90FEB760-6DE5-46E5-A8E9-582C63BAB3AD";
name = Regular;
paths = (
{
closed = 1;
nodes = (
"273 534 LINE",
"273 48 LINE",
"348 48 LINE",
"348 534 LINE"
);
},
{
closed = 1;
nodes = (
"67 328 LINE",
"67 253 LINE",
"553 253 LINE",
"553 328 LINE"
);
}
);
width = 620;
}
);
unicode = 002B;
},
{
glyphname = plusminus;
lastChange = "2014-08-25 10:38:23 +0100";
layers = (
{
components = (
{
name = minus;
transform = "{1, 0, 0, 1, 0, -253}";
}
);
layerId = "90FEB760-6DE5-46E5-A8E9-582C63BAB3AD";
name = Regular;
paths = (
{
closed = 1;
nodes = (
"67 434 LINE",
"67 359 LINE",
"553 359 LINE",
"553 434 LINE"
);
},
{
closed = 1;
nodes = (
"273 610 LINE",
"273 184 LINE",
"348 184 LINE",
"348 610 LINE"
);
}
);
width = 620;
}
);
unicode = 00B1;
},
{
glyphname = product;
lastChange = "2014-08-25 10:38:23 +0100";
layers = (
{
layerId = "90FEB760-6DE5-46E5-A8E9-582C63BAB3AD";
name = Regular;
paths = (
{
closed = 1;
nodes = (
"488 730 LINE",
"488 -168 LINE",
"568 -168 LINE",
"568 730 LINE"
);
},
{
closed = 1;
nodes = (
"50 730 LINE",
"50 -168 LINE",
"130 -168 LINE",
"130 730 LINE"
);
},
{
closed = 1;
nodes = (
"92 730 LINE",
"92 655 LINE",
"525 655 LINE",
"525 730 LINE"
);
}
);
width = 618;
}
);
unicode = 220F;
},
{
glyphname = radical;
lastChange = "2014-08-25 10:38:23 +0100";
layers = (
{
layerId = "90FEB760-6DE5-46E5-A8E9-582C63BAB3AD";
name = Regular;
paths = (
{
closed = 1;
nodes = (
"331 0 LINE",
"181 360 LINE",
"26 360 LINE",
"26 285 LINE",
"130 285 LINE",
"246 0 LINE"
);
},
{
closed = 1;
nodes = (
"344 0 LINE",
"668 818 LINE",
"582 818 LINE",
"264 0 LINE"
);
}
);
width = 620;
}
);
unicode = 221A;
},
{
glyphname = summation;
lastChange = "2014-08-25 10:38:23 +0100";
layers = (
{
layerId = "90FEB760-6DE5-46E5-A8E9-582C63BAB3AD";
name = Regular;
paths = (
{
closed = 1;
nodes = (
"59 655 LINE",
"386 281 LINE",
"493 281 LINE",
"115 706 LINE"
);
},
{
closed = 1;
nodes = (
"59 655 LINE",
"575 655 LINE",
"575 730 LINE",
"59 730 LINE"
);
},
{
closed = 1;
nodes = (
"493 281 LINE",
"386 281 LINE",
"59 -93 LINE",
"115 -144 LINE"
);
},
{
closed = 1;
nodes = (
"575 -168 LINE",
"575 -93 LINE",
"59 -93 LINE",
"59 -168 LINE"
);
}
);
width = 618;
}
);
unicode = 2211;
},
{
glyphname = lozenge;
lastChange = "2014-08-25 10:38:23 +0100";
layers = (
{
layerId = "90FEB760-6DE5-46E5-A8E9-582C63BAB3AD";
name = Regular;
paths = (
{
closed = 1;
nodes = (
"262 0 LINE",
"343 0 LINE",
"155 330 LINE",
"64 330 LINE"
);
},
{
closed = 1;
nodes = (
"277 0 LINE",
"357 0 LINE",
"556 330 LINE",
"465 330 LINE"
);
},
{
closed = 1;
nodes = (
"155 330 LINE",
"343 660 LINE",
"262 660 LINE",
"64 330 LINE"
);
},
{
closed = 1;
nodes = (
"556 330 LINE",
"357 660 LINE",
"277 660 LINE",
"465 330 LINE"
);
}
);
width = 620;
}
);
unicode = 25CA;
},
{
glyphname = bar;
lastChange = "2014-08-25 10:38:23 +0100";
layers = (
{
layerId = "90FEB760-6DE5-46E5-A8E9-582C63BAB3AD";
name = Regular;
paths = (
{
closed = 1;
nodes = (
"98 730 LINE",
"98 -168 LINE",
"167 -168 LINE",
"167 730 LINE"
);
}
);
width = 265;
}
);
unicode = 007C;
},
{
glyphname = brokenbar;
lastChange = "2014-08-25 10:38:23 +0100";
layers = (
{
layerId = "90FEB760-6DE5-46E5-A8E9-582C63BAB3AD";
name = Regular;
paths = (
{
closed = 1;
nodes = (
"98 730 LINE",
"98 367 LINE",
"167 367 LINE",
"167 730 LINE"
);
},
{
closed = 1;
nodes = (
"98 195 LINE",
"98 -168 LINE",
"167 -168 LINE",
"167 195 LINE"
);
}
);
width = 265;
}
);
leftMetricsKey = bar;
rightMetricsKey = bar;
unicode = 00A6;
},
{
glyphname = at;
lastChange = "2014-08-25 10:38:23 +0100";
layers = (
{
layerId = "90FEB760-6DE5-46E5-A8E9-582C63BAB3AD";
name = Regular;
paths = (
{
closed = 1;
nodes = (
"233 670 OFFCURVE",
"59 486 OFFCURVE",
"59 230 CURVE SMOOTH",
"59 -26 OFFCURVE",
"232 -210 OFFCURVE",
"503 -210 CURVE SMOOTH",
"603 -210 OFFCURVE",
"693 -180 OFFCURVE",
"760 -132 CURVE",
"725 -78 LINE",
"671 -117 OFFCURVE",
"589 -145 OFFCURVE",
"503 -145 CURVE SMOOTH",
"270 -145 OFFCURVE",
"133 6 OFFCURVE",
"133 230 CURVE SMOOTH",
"133 454 OFFCURVE",
"271 605 OFFCURVE",
"499 605 CURVE SMOOTH",
"753 605 OFFCURVE",
"848 431 OFFCURVE",
"848 243 CURVE SMOOTH",
"848 119 OFFCURVE",
"823 60 OFFCURVE",
"767 60 CURVE SMOOTH",
"734 60 OFFCURVE",
"720 89 OFFCURVE",
"720 139 CURVE SMOOTH",
"720 470 LINE",
"655 470 LINE",
"640 343 LINE",
"640 128 LINE SMOOTH",
"640 68 OFFCURVE",
"679 -5 OFFCURVE",
"755 -5 CURVE SMOOTH",
"856 -5 OFFCURVE",
"919 92 OFFCURVE",
"919 245 CURVE SMOOTH",
"919 454 OFFCURVE",
"814 670 OFFCURVE",
"499 670 CURVE SMOOTH"
);
},
{
closed = 1;
nodes = (
"364 475 OFFCURVE",
"259 389 OFFCURVE",
"259 235 CURVE SMOOTH",
"259 81 OFFCURVE",
"364 -10 OFFCURVE",
"476 -10 CURVE SMOOTH",
"602 -10 OFFCURVE",
"663 68 OFFCURVE",
"670 158 CURVE",
"640 182 LINE",
"614 110 OFFCURVE",
"572 55 OFFCURVE",
"483 55 CURVE SMOOTH",
"398 55 OFFCURVE",
"337 123 OFFCURVE",
"337 235 CURVE SMOOTH",
"337 347 OFFCURVE",
"398 410 OFFCURVE",
"483 410 CURVE SMOOTH",
"572 410 OFFCURVE",
"614 355 OFFCURVE",
"640 283 CURVE",
"670 307 LINE",
"663 397 OFFCURVE",
"602 475 OFFCURVE",
"476 475 CURVE SMOOTH"
);
}
);
width = 1000;
}
);
unicode = 0040;
},
{
glyphname = ampersand;
lastChange = "2014-08-25 10:38:23 +0100";
layers = (
{
layerId = "90FEB760-6DE5-46E5-A8E9-582C63BAB3AD";
name = Regular;
paths = (
{
closed = 1;
nodes = (
"647 53 LINE",
"575 53 OFFCURVE",
"549 82 OFFCURVE",
"396 272 CURVE SMOOTH",
"250 453 OFFCURVE",
"230 476 OFFCURVE",
"230 525 CURVE SMOOTH",
"230 565 OFFCURVE",
"263 595 OFFCURVE",
"310 595 CURVE SMOOTH",
"357 595 OFFCURVE",
"388 574 OFFCURVE",
"388 529 CURVE SMOOTH",
"388 482 OFFCURVE",
"379 439 OFFCURVE",
"269 387 CURVE SMOOTH",
"120 316 OFFCURVE",
"70 250 OFFCURVE",
"70 162 CURVE SMOOTH",
"70 64 OFFCURVE",
"156 -5 OFFCURVE",
"279 -5 CURVE SMOOTH",
"486 -5 OFFCURVE",
"594 167 OFFCURVE",
"582 328 CURVE",
"510 336 LINE",
"523 176 OFFCURVE",
"420 62 OFFCURVE",
"276 62 CURVE SMOOTH",
"209 62 OFFCURVE",
"149 103 OFFCURVE",
"149 169 CURVE SMOOTH",
"149 220 OFFCURVE",
"173 262 OFFCURVE",
"310 335 CURVE SMOOTH",
"440 404 OFFCURVE",
"461 460 OFFCURVE",
"461 534 CURVE SMOOTH",
"461 634 OFFCURVE",
"384 665 OFFCURVE",
"307 665 CURVE SMOOTH",
"205 665 OFFCURVE",
"152 596 OFFCURVE",
"152 524 CURVE SMOOTH",
"152 449 OFFCURVE",
"198 401 OFFCURVE",
"334 232 CURVE SMOOTH",
"507 17 OFFCURVE",
"549 -10 OFFCURVE",
"627 -10 CURVE"
);
}
);
width = 655;
}
);
unicode = 0026;
},
{
glyphname = paragraph;
lastChange = "2014-08-25 10:38:23 +0100";
layers = (
{
layerId = "90FEB760-6DE5-46E5-A8E9-582C63BAB3AD";
name = Regular;
paths = (
{
closed = 1;
nodes = (
"320 660 LINE SMOOTH",
"149 660 OFFCURVE",
"56 579 OFFCURVE",
"56 450 CURVE SMOOTH",
"56 324 OFFCURVE",
"149 243 OFFCURVE",
"296 241 CURVE",
"302 -210 LINE",
"372 -210 LINE",
"372 660 LINE"
);
},
{
closed = 1;
nodes = (
"471 660 LINE",
"471 -210 LINE",
"541 -210 LINE",
"541 660 LINE"
);
},
{
closed = 1;
nodes = (
"345 660 LINE",
"345 593 LINE",
"621 593 LINE",
"621 660 LINE"
);
}
);
width = 731;
}
);
rightMetricsKey = I;
unicode = 00B6;
},
{
glyphname = copyright;
lastChange = "2014-08-25 10:38:23 +0100";
layers = (
{
layerId = "90FEB760-6DE5-46E5-A8E9-582C63BAB3AD";
name = Regular;
paths = (
{
closed = 1;
nodes = (
"236 670 OFFCURVE",
"70 500 OFFCURVE",
"70 230 CURVE SMOOTH",
"70 -40 OFFCURVE",
"236 -210 OFFCURVE",
"500 -210 CURVE SMOOTH",
"764 -210 OFFCURVE",
"930 -40 OFFCURVE",
"930 230 CURVE SMOOTH",
"930 500 OFFCURVE",
"764 670 OFFCURVE",
"500 670 CURVE SMOOTH"
);
},
{
closed = 1;
nodes = (
"718 605 OFFCURVE",
"856 460 OFFCURVE",
"856 230 CURVE SMOOTH",
"856 0 OFFCURVE",
"718 -145 OFFCURVE",
"500 -145 CURVE SMOOTH",
"282 -145 OFFCURVE",
"144 0 OFFCURVE",
"144 230 CURVE SMOOTH",
"144 460 OFFCURVE",
"282 605 OFFCURVE",
"500 605 CURVE SMOOTH"
);
},
{
closed = 1;
nodes = (
"370 475 OFFCURVE",
"283 380 OFFCURVE",
"283 237 CURVE SMOOTH",
"283 89 OFFCURVE",
"371 -10 OFFCURVE",
"518 -10 CURVE SMOOTH",
"620 -10 OFFCURVE",
"692 49 OFFCURVE",
"712 135 CURVE",
"649 161 LINE",
"641 94 OFFCURVE",
"589 55 OFFCURVE",
"516 55 CURVE SMOOTH",
"418 55 OFFCURVE",
"361 127 OFFCURVE",
"361 237 CURVE SMOOTH",
"361 343 OFFCURVE",
"417 415 OFFCURVE",
"515 415 CURVE SMOOTH",
"585 415 OFFCURVE",
"625 368 OFFCURVE",
"639 321 CURVE",
"706 358 LINE",
"680 418 OFFCURVE",
"620 475 OFFCURVE",
"517 475 CURVE SMOOTH"
);
}
);
width = 1000;
}
);
unicode = 00A9;
},
{
glyphname = registered;
lastChange = "2014-08-25 10:38:23 +0100";
layers = (
{
layerId = "90FEB760-6DE5-46E5-A8E9-582C63BAB3AD";
name = Regular;
paths = (
{
closed = 1;
nodes = (
"236 670 OFFCURVE",
"70 500 OFFCURVE",
"70 230 CURVE SMOOTH",
"70 -40 OFFCURVE",
"236 -210 OFFCURVE",
"500 -210 CURVE SMOOTH",
"764 -210 OFFCURVE",
"930 -40 OFFCURVE",
"930 230 CURVE SMOOTH",
"930 500 OFFCURVE",
"764 670 OFFCURVE",
"500 670 CURVE SMOOTH"
);
},
{
closed = 1;
nodes = (
"340 470 LINE",
"339 0 LINE",
"416 0 LINE",
"416 470 LINE"
);
},
{
closed = 1;
nodes = (
"500 191 LINE",
"626 0 LINE",
"717 0 LINE",
"563 220 LINE"
);
},
{
closed = 1;
nodes = (
"718 605 OFFCURVE",
"856 460 OFFCURVE",
"856 230 CURVE SMOOTH",
"856 0 OFFCURVE",
"718 -145 OFFCURVE",
"500 -145 CURVE SMOOTH",
"282 -145 OFFCURVE",
"144 0 OFFCURVE",
"144 230 CURVE SMOOTH",
"144 460 OFFCURVE",
"282 605 OFFCURVE",
"500 605 CURVE SMOOTH"
);
},
{
closed = 1;
nodes = (
"387 470 LINE",
"387 405 LINE",
"527 405 LINE SMOOTH",
"595 405 OFFCURVE",
"628 377 OFFCURVE",
"628 320 CURVE SMOOTH",
"628 263 OFFCURVE",
"595 235 OFFCURVE",
"527 235 CURVE SMOOTH",
"387 235 LINE",
"387 170 LINE",
"528 170 LINE SMOOTH",
"634 170 OFFCURVE",
"706 227 OFFCURVE",
"706 320 CURVE SMOOTH",
"706 413 OFFCURVE",
"634 470 OFFCURVE",
"528 470 CURVE SMOOTH"
);
}
);
width = 1000;
}
);
unicode = 00AE;
},
{
glyphname = section;
lastChange = "2014-08-25 10:38:23 +0100";
layers = (
{
layerId = "90FEB760-6DE5-46E5-A8E9-582C63BAB3AD";
name = Regular;
paths = (
{
closed = 1;
nodes = (
"148 371 OFFCURVE",
"83 313 OFFCURVE",
"83 231 CURVE SMOOTH",
"83 131 OFFCURVE",
"149 84 OFFCURVE",
"295 57 CURVE SMOOTH",
"462 25 OFFCURVE",
"490 -4 OFFCURVE",
"490 -60 CURVE SMOOTH",
"490 -118 OFFCURVE",
"426 -145 OFFCURVE",
"327 -145 CURVE SMOOTH",
"217 -145 OFFCURVE",
"166 -118 OFFCURVE",
"135 -33 CURVE",
"57 -70 LINE",
"95 -170 OFFCURVE",
"190 -215 OFFCURVE",
"325 -215 CURVE SMOOTH",
"473 -215 OFFCURVE",
"570 -152 OFFCURVE",
"570 -54 CURVE SMOOTH",
"570 46 OFFCURVE",
"509 95 OFFCURVE",
"351 124 CURVE SMOOTH",
"199 152 OFFCURVE",
"164 182 OFFCURVE",
"164 239 CURVE SMOOTH",
"164 305 OFFCURVE",
"214 335 OFFCURVE",
"302 356 CURVE",
"258 388 LINE"
);
},
{
closed = 1;
nodes = (
"172 670 OFFCURVE",
"83 593 OFFCURVE",
"83 501 CURVE SMOOTH",
"83 401 OFFCURVE",
"149 354 OFFCURVE",
"295 327 CURVE SMOOTH",
"462 295 OFFCURVE",
"490 266 OFFCURVE",
"490 210 CURVE SMOOTH",
"490 137 OFFCURVE",
"431 118 OFFCURVE",
"344 100 CURVE",
"369 57 LINE",
"477 74 OFFCURVE",
"570 119 OFFCURVE",
"570 216 CURVE SMOOTH",
"570 316 OFFCURVE",
"509 365 OFFCURVE",
"351 394 CURVE SMOOTH",
"199 422 OFFCURVE",
"164 452 OFFCURVE",
"164 509 CURVE SMOOTH",
"164 562 OFFCURVE",
"218 600 OFFCURVE",
"320 600 CURVE SMOOTH",
"415 600 OFFCURVE",
"459 578 OFFCURVE",
"497 503 CURVE",
"564 555 LINE",
"512 639 OFFCURVE",
"445 670 OFFCURVE",
"319 670 CURVE SMOOTH"
);
}
);
width = 600;
}
);
unicode = 00A7;
},
{
glyphname = trademark;
lastChange = "2014-08-25 10:38:23 +0100";
layers = (
{
layerId = "90FEB760-6DE5-46E5-A8E9-582C63BAB3AD";
name = Regular;
paths = (
{
closed = 1;
nodes = (
"628 660 LINE",
"512 330 LINE",
"573 330 LINE",
"703 660 LINE"
);
},
{
closed = 1;
nodes = (
"130 660 LINE",
"130 330 LINE",
"200 330 LINE",
"200 660 LINE"
);
},
{
closed = 1;
nodes = (
"29 660 LINE",
"29 606 LINE",
"300 606 LINE",
"300 660 LINE"
);
},
{
closed = 1;
nodes = (
"363 660 LINE",
"363 538 LINE",
"363 330 LINE",
"433 330 LINE",
"433 538 LINE",
"423 660 LINE"
);
},
{
closed = 1;
nodes = (
"383 660 LINE",
"512 330 LINE",
"573 330 LINE",
"457 660 LINE"
);
},
{
closed = 1;
nodes = (
"663 660 LINE",
"652 538 LINE",
"652 330 LINE",
"722 330 LINE",
"722 538 LINE",
"722 660 LINE"
);
}
);
width = 797;
}
);
unicode = 2122;
},
{
glyphname = degree;
lastChange = "2014-08-25 10:38:23 +0100";
layers = (
{
layerId = "90FEB760-6DE5-46E5-A8E9-582C63BAB3AD";
name = Regular;
paths = (
{
closed = 1;
nodes = (
"117 670 OFFCURVE",
"46 601 OFFCURVE",
"46 505 CURVE SMOOTH",
"46 409 OFFCURVE",
"117 340 OFFCURVE",
"216 340 CURVE SMOOTH",
"315 340 OFFCURVE",
"386 409 OFFCURVE",
"386 505 CURVE SMOOTH",
"386 601 OFFCURVE",
"315 670 OFFCURVE",
"216 670 CURVE SMOOTH"
);
},
{
closed = 1;
nodes = (
"274 605 OFFCURVE",
"316 563 OFFCURVE",
"316 505 CURVE SMOOTH",
"316 447 OFFCURVE",
"274 405 OFFCURVE",
"216 405 CURVE SMOOTH",
"158 405 OFFCURVE",
"116 447 OFFCURVE",
"116 505 CURVE SMOOTH",
"116 563 OFFCURVE",
"158 605 OFFCURVE",
"216 605 CURVE SMOOTH"
);
}
);
width = 432;
}
);
unicode = 00B0;
},
{
glyphname = estimated;
lastChange = "2014-08-25 10:38:23 +0100";
layers = (
{
layerId = "90FEB760-6DE5-46E5-A8E9-582C63BAB3AD";
name = Regular;
paths = (
{
closed = 1;
nodes = (
"723 320 LINE",
"723 323 OFFCURVE",
"723 326 OFFCURVE",
"723 330 CURVE SMOOTH",
"723 518 OFFCURVE",
"568 670 OFFCURVE",
"377 670 CURVE SMOOTH",
"187 670 OFFCURVE",
"32 518 OFFCURVE",
"32 330 CURVE SMOOTH",
"32 142 OFFCURVE",
"187 -9 OFFCURVE",
"377 -9 CURVE SMOOTH",
"489 -9 OFFCURVE",
"588 43 OFFCURVE",
"651 122 CURVE",
"610 122 LINE",
"556 54 OFFCURVE",
"467 10 OFFCURVE",
"378 10 CURVE SMOOTH",
"295 10 OFFCURVE",
"221 39 OFFCURVE",
"167 100 CURVE",
"162 106 OFFCURVE",
"159 113 OFFCURVE",
"159 121 CURVE SMOOTH",
"159 316 LINE SMOOTH",
"159 319 OFFCURVE",
"161 320 OFFCURVE",
"164 320 CURVE SMOOTH"
);
},
{
closed = 1;
nodes = (
"596 345 LINE SMOOTH",
"596 343 OFFCURVE",
"595 339 OFFCURVE",
"592 339 CURVE SMOOTH",
"164 339 LINE SMOOTH",
"161 339 OFFCURVE",
"159 343 OFFCURVE",
"159 345 CURVE SMOOTH",
"159 537 LINE SMOOTH",
"159 546 OFFCURVE",
"162 554 OFFCURVE",
"167 560 CURVE SMOOTH",
"221 620 OFFCURVE",
"296 649 OFFCURVE",
"378 649 CURVE SMOOTH",
"459 649 OFFCURVE",
"534 621 OFFCURVE",
"588 563 CURVE SMOOTH",
"593 557 OFFCURVE",
"596 549 OFFCURVE",
"596 541 CURVE SMOOTH"
);
}
);
width = 755;
}
);
unicode = 212E;
},
{
glyphname = literSign;
lastChange = "2014-08-25 10:38:23 +0100";
layers = (
{
layerId = "90FEB760-6DE5-46E5-A8E9-582C63BAB3AD";
name = Regular;
paths = (
{
closed = 1;
nodes = (
"165 540 LINE SMOOTH",
"165 584 OFFCURVE",
"174 607 OFFCURVE",
"205 607 CURVE SMOOTH",
"233 607 OFFCURVE",
"244 592 OFFCURVE",
"244 545 CURVE SMOOTH",
"244 422 OFFCURVE",
"167 294 OFFCURVE",
"20 244 CURVE",
"20 177 LINE",
"208 239 OFFCURVE",
"310 407 OFFCURVE",
"310 540 CURVE SMOOTH",
"310 635 OFFCURVE",
"274 670 OFFCURVE",
"203 670 CURVE SMOOTH",
"132 670 OFFCURVE",
"95 626 OFFCURVE",
"95 535 CURVE SMOOTH",
"95 124 LINE SMOOTH",
"95 29 OFFCURVE",
"140 -10 OFFCURVE",
"235 -10 CURVE SMOOTH",
"265 -10 OFFCURVE",
"295 -5 OFFCURVE",
"319 4 CURVE",
"326 71 LINE",
"291 62 OFFCURVE",
"270 57 OFFCURVE",
"239 57 CURVE SMOOTH",
"192 57 OFFCURVE",
"165 94 OFFCURVE",
"165 134 CURVE SMOOTH"
);
}
);
width = 365;
}
);
unicode = 2113;
},
{
glyphname = asciicircum;
lastChange = "2014-08-25 10:38:23 +0100";
layers = (
{
layerId = "90FEB760-6DE5-46E5-A8E9-582C63BAB3AD";
name = Regular;
paths = (
{
closed = 1;
nodes = (
"233 660 LINE",
"403 348 LINE",
"484 348 LINE",
"304 660 LINE"
);
},
{
closed = 1;
nodes = (
"233 660 LINE",
"53 348 LINE",
"134 348 LINE",
"304 660 LINE"
);
}
);
width = 537;
}
);
unicode = 005E;
},
{
glyphname = dagger;
lastChange = "2014-08-25 10:38:23 +0100";
layers = (
{
layerId = "90FEB760-6DE5-46E5-A8E9-582C63BAB3AD";
name = Regular;
paths = (
{
closed = 1;
nodes = (
"286 660 LINE",
"286 -210 LINE",
"366 -210 LINE",
"366 660 LINE"
);
},
{
closed = 1;
nodes = (
"88 440 LINE",
"88 371 LINE",
"563 371 LINE",
"563 440 LINE"
);
}
);
width = 651;
}
);
unicode = 2020;
},
{
glyphname = daggerdbl;
lastChange = "2014-08-25 10:38:23 +0100";
layers = (
{
layerId = "90FEB760-6DE5-46E5-A8E9-582C63BAB3AD";
name = Regular;
paths = (
{
closed = 1;
nodes = (
"286 660 LINE",
"286 -210 LINE",
"366 -210 LINE",
"366 660 LINE"
);
},
{
closed = 1;
nodes = (
"88 79 LINE",
"88 10 LINE",
"563 10 LINE",
"563 79 LINE"
);
},
{
closed = 1;
nodes = (
"88 440 LINE",
"88 371 LINE",
"563 371 LINE",
"563 440 LINE"
);
}
);
width = 651;
}
);
unicode = 2021;
},
{
glyphname = breve;
lastChange = "2014-08-25 10:38:23 +0100";
layers = (
{
anchors = (
{
name = _top;
position = "{250, 500}";
}
);
layerId = "90FEB760-6DE5-46E5-A8E9-582C63BAB3AD";
name = Regular;
paths = (
{
closed = 1;
nodes = (
"331 728 LINE",
"331 681 OFFCURVE",
"297 642 OFFCURVE",
"250 642 CURVE SMOOTH",
"203 642 OFFCURVE",
"169 681 OFFCURVE",
"169 728 CURVE",
"102 728 LINE",
"102 640 OFFCURVE",
"162 580 OFFCURVE",
"250 580 CURVE SMOOTH",
"338 580 OFFCURVE",
"398 640 OFFCURVE",
"398 728 CURVE"
);
}
);
width = 500;
}
);
unicode = 02D8;
},
{
glyphname = caron;
lastChange = "2014-08-25 10:38:23 +0100";
layers = (
{
anchors = (
{
name = _top;
position = "{250, 500}";
}
);
layerId = "90FEB760-6DE5-46E5-A8E9-582C63BAB3AD";
name = Regular;
paths = (
{
closed = 1;
nodes = (
"336 750 LINE",
"250 635 LINE",
"164 750 LINE",
"91 750 LINE",
"205 583 LINE",
"295 583 LINE",
"409 750 LINE"
);
}
);
width = 500;
}
);
unicode = 02C7;
},
{
color = 9;
glyphname = cedilla;
lastChange = "2014-08-25 10:38:23 +0100";
layers = (
{
anchors = (
{
name = _bottom;
position = "{310, 0}";
}
);
layerId = "90FEB760-6DE5-46E5-A8E9-582C63BAB3AD";
name = Regular;
paths = (
{
closed = 1;
nodes = (
"331 -32 OFFCURVE",
"352 -55 OFFCURVE",
"352 -97 CURVE SMOOTH",
"352 -132 OFFCURVE",
"327 -152 OFFCURVE",
"295 -152 CURVE SMOOTH",
"267 -152 OFFCURVE",
"242 -140 OFFCURVE",
"226 -123 CURVE",
"196 -180 LINE",
"224 -205 OFFCURVE",
"259 -215 OFFCURVE",
"306 -215 CURVE SMOOTH",
"380 -215 OFFCURVE",
"422 -164 OFFCURVE",
"422 -108 CURVE SMOOTH",
"422 -54 OFFCURVE",
"384 4 OFFCURVE",
"301 29 CURVE",
"253 3 LINE"
);
}
);
width = 600;
}
);
unicode = 00B8;
},
{
glyphname = dieresis;
lastChange = "2014-08-25 10:38:23 +0100";
layers = (
{
anchors = (
{
name = _top;
position = "{253, 500}";
}
);
layerId = "90FEB760-6DE5-46E5-A8E9-582C63BAB3AD";
name = Regular;
paths = (
{
closed = 1;
nodes = (
"120 706 OFFCURVE",
"94 680 OFFCURVE",
"94 649 CURVE SMOOTH",
"94 618 OFFCURVE",
"120 592 OFFCURVE",
"151 592 CURVE SMOOTH",
"182 592 OFFCURVE",
"208 618 OFFCURVE",
"208 649 CURVE SMOOTH",
"208 680 OFFCURVE",
"182 706 OFFCURVE",
"151 706 CURVE SMOOTH"
);
},
{
closed = 1;
nodes = (
"317 706 OFFCURVE",
"291 680 OFFCURVE",
"291 649 CURVE SMOOTH",
"291 618 OFFCURVE",
"317 592 OFFCURVE",
"348 592 CURVE SMOOTH",
"379 592 OFFCURVE",
"405 618 OFFCURVE",
"405 649 CURVE SMOOTH",
"405 680 OFFCURVE",
"379 706 OFFCURVE",
"348 706 CURVE SMOOTH"
);
}
);
width = 500;
}
);
unicode = 00A8;
},
{
glyphname = dotaccent;
lastChange = "2014-08-25 10:38:23 +0100";
layers = (
{
anchors = (
{
name = _top;
position = "{250, 500}";
}
);
layerId = "90FEB760-6DE5-46E5-A8E9-582C63BAB3AD";
name = Regular;
paths = (
{
closed = 1;
nodes = (
"217 716 OFFCURVE",
"190 689 OFFCURVE",
"190 656 CURVE SMOOTH",
"190 623 OFFCURVE",
"217 596 OFFCURVE",
"250 596 CURVE SMOOTH",
"283 596 OFFCURVE",
"310 623 OFFCURVE",
"310 656 CURVE SMOOTH",
"310 689 OFFCURVE",
"283 716 OFFCURVE",
"250 716 CURVE SMOOTH"
);
}
);
width = 500;
}
);
unicode = 02D9;
},
{
glyphname = grave;
lastChange = "2014-08-25 10:38:23 +0100";
layers = (
{
anchors = (
{
name = _top;
position = "{250, 500}";
}
);
layerId = "90FEB760-6DE5-46E5-A8E9-582C63BAB3AD";
name = Regular;
paths = (
{
closed = 1;
nodes = (
"126 750 LINE",
"227 583 LINE",
"292 583 LINE",
"220 750 LINE"
);
}
);
width = 500;
}
);
unicode = 0060;
},
{
glyphname = macron;
lastChange = "2014-08-25 10:38:23 +0100";
layers = (
{
anchors = (
{
name = _top;
position = "{250, 500}";
},
{
name = ogonek;
position = "{500, 10}";
}
);
layerId = "90FEB760-6DE5-46E5-A8E9-582C63BAB3AD";
name = Regular;
paths = (
{
closed = 1;
nodes = (
"76 674 LINE",
"76 607 LINE",
"424 607 LINE",
"424 674 LINE"
);
}
);
width = 500;
}
);
unicode = 00AF;
},
{
color = 9;
glyphname = ogonek;
lastChange = "2014-08-25 10:38:23 +0100";
layers = (
{
anchors = (
{
name = _ogonek;
position = "{299, 0}";
}
);
layerId = "90FEB760-6DE5-46E5-A8E9-582C63BAB3AD";
name = Regular;
paths = (
{
closed = 1;
nodes = (
"253 25 LINE",
"144 -10 OFFCURVE",
"92 -53 OFFCURVE",
"92 -118 CURVE SMOOTH",
"92 -180 OFFCURVE",
"141 -215 OFFCURVE",
"207 -215 CURVE SMOOTH",
"257 -215 OFFCURVE",
"289 -196 OFFCURVE",
"309 -178 CURVE",
"287 -122 LINE",
"277 -136 OFFCURVE",
"257 -152 OFFCURVE",
"221 -152 CURVE SMOOTH",
"190 -152 OFFCURVE",
"161 -139 OFFCURVE",
"161 -104 CURVE SMOOTH",
"161 -67 OFFCURVE",
"198 -40 OFFCURVE",
"299 0 CURVE"
);
}
);
width = 600;
}
);
unicode = 02DB;
},
{
glyphname = ring;
lastChange = "2014-08-25 10:38:23 +0100";
layers = (
{
anchors = (
{
name = _top;
position = "{253, 500}";
}
);
layerId = "90FEB760-6DE5-46E5-A8E9-582C63BAB3AD";
name = Regular;
paths = (
{
closed = 1;
nodes = (
"175 812 OFFCURVE",
"124 764 OFFCURVE",
"124 694 CURVE SMOOTH",
"124 623 OFFCURVE",
"175 575 OFFCURVE",
"250 575 CURVE SMOOTH",
"325 575 OFFCURVE",
"375 623 OFFCURVE",
"375 694 CURVE SMOOTH",
"375 764 OFFCURVE",
"325 812 OFFCURVE",
"250 812 CURVE SMOOTH"
);
},
{
closed = 1;
nodes = (
"291 763 OFFCURVE",
"321 734 OFFCURVE",
"321 694 CURVE SMOOTH",
"321 654 OFFCURVE",
"291 625 OFFCURVE",
"250 625 CURVE SMOOTH",
"209 625 OFFCURVE",
"179 654 OFFCURVE",
"179 694 CURVE SMOOTH",
"179 734 OFFCURVE",
"209 763 OFFCURVE",
"250 763 CURVE SMOOTH"
);
}
);
width = 500;
}
);
unicode = 02DA;
},
{
color = 0;
glyphname = tilde;
lastChange = "2014-08-25 10:38:23 +0100";
layers = (
{
anchors = (
{
name = _top;
position = "{251, 500}";
}
);
layerId = "90FEB760-6DE5-46E5-A8E9-582C63BAB3AD";
name = Regular;
paths = (
{
closed = 1;
nodes = (
"368 734 LINE",
"361 691 OFFCURVE",
"351 665 OFFCURVE",
"318 665 CURVE SMOOTH",
"276 665 OFFCURVE",
"248 733 OFFCURVE",
"182 733 CURVE SMOOTH",
"111 733 OFFCURVE",
"76 687 OFFCURVE",
"69 599 CURVE",
"132 599 LINE",
"139 642 OFFCURVE",
"148 668 OFFCURVE",
"181 668 CURVE SMOOTH",
"226 668 OFFCURVE",
"251 600 OFFCURVE",
"319 600 CURVE SMOOTH",
"388 600 OFFCURVE",
"424 646 OFFCURVE",
"431 734 CURVE"
);
}
);
width = 500;
}
);
unicode = 02DC;
},
{
glyphname = acute.cap;
lastChange = "2014-08-25 10:38:23 +0100";
layers = (
{
anchors = (
{
name = _top;
position = "{250, 660}";
}
);
layerId = "90FEB760-6DE5-46E5-A8E9-582C63BAB3AD";
name = Regular;
paths = (
{
closed = 1;
nodes = (
"208 743 LINE",
"273 743 LINE",
"359 891 LINE",
"265 891 LINE"
);
}
);
width = 485;
}
);
leftMetricsKey = "=|grave";
rightMetricsKey = "=|grave";
},
{
glyphname = caron.alt;
lastChange = "2014-08-25 10:38:23 +0100";
layers = (
{
anchors = (
{
name = _topright;
position = "{89, 730}";
}
);
layerId = "90FEB760-6DE5-46E5-A8E9-582C63BAB3AD";
name = Regular;
paths = (
{
closed = 1;
nodes = (
"89 730 LINE",
"69 533 LINE",
"119 533 LINE",
"170 730 LINE"
);
}
);
width = 239;
}
);
},
{
glyphname = commaaccent;
lastChange = "2014-08-25 10:38:23 +0100";
layers = (
{
anchors = (
{
name = _bottom;
position = "{138, 0}";
}
);
layerId = "90FEB760-6DE5-46E5-A8E9-582C63BAB3AD";
name = Regular;
paths = (
{
closed = 1;
nodes = (
"84 -76 LINE",
"40 -237 LINE",
"103 -237 LINE",
"168 -76 LINE"
);
}
);
width = 275;
}
);
unicode = 0326;
},
{
export = 0;
glyphname = bowl;
lastChange = "2014-08-25 10:38:23 +0100";
layers = (
{
layerId = "90FEB760-6DE5-46E5-A8E9-582C63BAB3AD";
name = Regular;
paths = (
{
closed = 1;
nodes = (
"474 244 LINE",
"474 131 OFFCURVE",
"412 60 OFFCURVE",
"317 60 CURVE SMOOTH",
"219 60 OFFCURVE",
"160 134 OFFCURVE",
"160 250 CURVE SMOOTH",
"160 366 OFFCURVE",
"219 440 OFFCURVE",
"317 440 CURVE SMOOTH",
"412 440 OFFCURVE",
"474 369 OFFCURVE",
"474 256 CURVE",
"498 337 LINE",
"498 432 OFFCURVE",
"420 510 OFFCURVE",
"308 510 CURVE SMOOTH",
"169 510 OFFCURVE",
"80 413 OFFCURVE",
"80 250 CURVE SMOOTH",
"80 87 OFFCURVE",
"169 -10 OFFCURVE",
"308 -10 CURVE SMOOTH",
"420 -10 OFFCURVE",
"498 68 OFFCURVE",
"498 163 CURVE"
);
}
);
width = 600;
}
);
},
{
export = 0;
glyphname = asteriskline;
lastChange = "2014-08-25 10:38:23 +0100";
layers = (
{
layerId = "90FEB760-6DE5-46E5-A8E9-582C63BAB3AD";
name = Regular;
paths = (
{
closed = 1;
nodes = (
"227 373 LINE",
"227 252 LINE",
"297 252 LINE",
"297 373 LINE",
"280 458 LINE",
"280 524 LINE",
"297 609 LINE",
"297 730 LINE",
"227 730 LINE",
"227 609 LINE",
"244 524 LINE",
"244 458 LINE"
);
}
);
width = 524;
}
);
},
{
glyphname = ausign_ra_virama_anusvara;
lastChange = "2014-08-25 10:51:01 +0100";
layers = (
{
layerId = "90FEB760-6DE5-46E5-A8E9-582C63BAB3AD";
name = Regular;
paths = (
{
closed = 1;
nodes = (
"128 627 LINE",
"128 0 LINE",
"198 0 LINE",
"198 627 LINE"
);
},
{
closed = 1;
nodes = (
"-15 660 LINE",
"-15 604 LINE",
"330 604 LINE",
"330 660 LINE"
);
},
{
closed = 1;
nodes = (
"131 618 LINE",
"148 642 LINE",
"-193 920 LINE",
"-235 855 LINE"
);
},
{
closed = 1;
nodes = (
"255 822 OFFCURVE",
"235 803 OFFCURVE",
"235 777 CURVE SMOOTH",
"235 751 OFFCURVE",
"255 732 OFFCURVE",
"280 732 CURVE SMOOTH",
"306 732 OFFCURVE",
"325 751 OFFCURVE",
"325 777 CURVE SMOOTH",
"325 803 OFFCURVE",
"306 822 OFFCURVE",
"280 822 CURVE SMOOTH"
);
},
{
closed = 1;
nodes = (
"195 1008 OFFCURVE",
"43 925 OFFCURVE",
"113 777 CURVE SMOOTH",
"179 647 LINE",
"209 647 LINE",
"168 745 LINE SMOOTH",
"104 900 OFFCURVE",
"206 931 OFFCURVE",
"322 887 CURVE",
"314 946 LINE"
);
},
{
closed = 1;
nodes = (
"172 627 LINE",
"197 644 LINE",
"1 994 LINE",
"-60 946 LINE"
);
}
